<svg id="Layer_1" data-name="Layer 1" xmlns="http://www.w3.org/2000/svg" viewBox="0 0 469.53 133.38"><title>businesscard</title><path d="M208.27,436.85a31.45,31.45,0,0,1-3.54-24.34l.88.24A30.51,30.51,0,0,0,209,436.36Z" transform="translate(-62.5 -354.57)" style="fill:#ef7f4d"/><path d="M207.54,438.39a30.52,30.52,0,0,1-3.65-7.59,32.5,32.5,0,0,1-.57-18.67l.88.23a31.64,31.64,0,0,0,.56,18.16,29.2,29.2,0,0,0,3.52,7.34Z" transform="translate(-62.5 -354.57)" style="fill:#e60012"/><path d="M209.13,435.44a30,30,0,0,1-2.5-5.65,29.09,29.09,0,0,1-.49-16.9l.88.24a28.14,28.14,0,0,0,.47,16.37,29.17,29.17,0,0,0,2.43,5.49Z" transform="translate(-62.5 -354.57)" style="fill:#f8caba"/><path d="M197.81,415.79a13.93,13.93,0,0,1-5.89-1.26l.42-.81a13.24,13.24,0,0,0,11.24-.18c.35-.17.7-.36,1.06-.58l.47.79c-.38.22-.76.42-1.13.61A13.92,13.92,0,0,1,197.81,415.79Z" transform="translate(-62.5 -354.57)" style="fill:#ef7f4d"/><path d="M197.8,414.34a12.41,12.41,0,0,1-5.22-1.11l.42-.81a11.78,11.78,0,0,0,9.94-.19c.32-.16.64-.33.95-.52l.47.78c-.34.2-.68.39-1,.56a12.71,12.71,0,0,1-2.34.87A12.15,12.15,0,0,1,197.8,414.34Z" transform="translate(-62.5 -354.57)" style="fill:#f8caba"/><path d="M224.58,430a27.45,27.45,0,0,1-8.19-1.84c-6.53-2.64-10.46-7.64-11.7-14.85l.9-.15c1.18,6.88,4.93,11.64,11.14,14.16a26.57,26.57,0,0,0,7.92,1.77Z" transform="translate(-62.5 -354.57)" style="fill:#ef7f4d"/><path d="M225.43,431.54a30.16,30.16,0,0,1-9.59-2c-7-2.84-11.26-8.21-12.58-15.95l.89-.16c1.27,7.41,5.32,12.55,12,15.27a29.35,29.35,0,0,0,9.28,1.94Z" transform="translate(-62.5 -354.57)" style="fill:#e60012"/><path d="M223.91,428.5a25.61,25.61,0,0,1-7-1.67c-6-2.44-9.67-7.07-10.81-13.75l.9-.15c1.08,6.35,4.53,10.74,10.25,13.06a24.68,24.68,0,0,0,6.73,1.6Z" transform="translate(-62.5 -354.57)" style="fill:#f8caba"/><path d="M193,421.07l0-.91c.28,0,7-.3,10.66-5.59.23-.32.44-.66.65-1l.79.46q-.33.57-.69,1.08C200.45,420.75,193.33,421.06,193,421.07Z" transform="translate(-62.5 -354.57)" style="fill:#ef7f4d"/><path d="M193.08,422.53l0-.91c.78,0,7.76-.43,11.81-6.22.25-.36.49-.73.71-1.12l.79.46a14,14,0,0,1-.76,1.18C201.31,422.07,193.91,422.5,193.08,422.53Z" transform="translate(-62.5 -354.57)" style="fill:#e60012"/><path d="M193,419.62l0-.91c.25,0,6.24-.29,9.52-5,.2-.29.4-.6.58-.91l.79.46c-.2.33-.41.66-.62,1C199.68,419.31,193.25,419.61,193,419.62Z" transform="translate(-62.5 -354.57)" style="fill:#f8caba"/><path d="M203.12,405.56a4.76,4.76,0,0,1,3.14,1.18,4.77,4.77,0,0,1-3,8.36h-.13a4.78,4.78,0,0,1-.13-9.55h.13m0-.91H203a5.68,5.68,0,0,0-5.51,6.06,5.61,5.61,0,0,0,1.93,3.9,5.66,5.66,0,0,0,3.74,1.41h.16a5.68,5.68,0,0,0-.16-11.36Z" transform="translate(-62.5 -354.57)" style="fill:#e60012"/><path d="M203.12,407a3.35,3.35,0,0,1,2.18.82,3.32,3.32,0,0,1,.32,4.68,3.35,3.35,0,0,1-2.41,1.14h-.09A3.32,3.32,0,0,1,203,407h.09m0-.91H203a4.23,4.23,0,0,0,.12,8.45h.12a4.23,4.23,0,0,0-.12-8.46Z" transform="translate(-62.5 -354.57)" style="fill:#ef7f4d"/><path d="M203.12,408.47a1.89,1.89,0,0,1,1.22.46,1.82,1.82,0,0,1,.63,1.28,1.79,1.79,0,0,1-.45,1.34,1.85,1.85,0,0,1-1.35.64h0a1.83,1.83,0,0,1-1.22-.46,1.81,1.81,0,0,1-.63-1.27,1.79,1.79,0,0,1,.45-1.35,1.89,1.89,0,0,1,1.35-.64h.05m0-.91h-.07a2.76,2.76,0,0,0-2.69,3,2.76,2.76,0,0,0,2.76,2.58h.07a2.79,2.79,0,0,0,2-1,2.78,2.78,0,0,0-2.09-4.59Z" transform="translate(-62.5 -354.57)" style="fill:#f8caba"/><path d="M197.84,417.24a15.58,15.58,0,0,1-6.58-1.41l.41-.81a15,15,0,0,0,9.88.83,14.59,14.59,0,0,0,2.67-1c.39-.19.78-.41,1.17-.63l.46.78c-.4.24-.81.46-1.23.67a16.19,16.19,0,0,1-2.84,1.06A15.28,15.28,0,0,1,197.84,417.24Z" transform="translate(-62.5 -354.57)" style="fill:#e60012"/><path d="M211.75,405.31A7.64,7.64,0,0,1,217.49,418a7.67,7.67,0,0,1-5.54,2.61h-.21a7.6,7.6,0,0,1-5-1.89,7.65,7.65,0,0,1-.72-10.76,7.6,7.6,0,0,1,5.53-2.6h.22m0-.91h-.24a8.54,8.54,0,0,0-6.2,2.91,8.54,8.54,0,0,0,6.43,14.16H212a8.57,8.57,0,0,0,6.19-2.92,8.54,8.54,0,0,0-.81-12.05,8.54,8.54,0,0,0-5.61-2.11Z" transform="translate(-62.5 -354.57)" style="fill:#e60012"/><path d="M211.75,406.77A6.17,6.17,0,0,1,216.39,417a6.21,6.21,0,0,1-4.48,2.11h-.17a6.15,6.15,0,0,1-6.15-5.76,6.1,6.1,0,0,1,1.51-4.47,6.21,6.21,0,0,1,4.47-2.11h.18m0-.91h-.2a7.15,7.15,0,0,0-5.14,2.42A7.08,7.08,0,0,0,211.74,420h.2a7.07,7.07,0,0,0,5.13-2.42,7.08,7.08,0,0,0-5.32-11.74Z" transform="translate(-62.5 -354.57)" style="fill:#ef7f4d"/><path d="M211.75,408.23a4.7,4.7,0,0,1,4.69,4.4,4.63,4.63,0,0,1-1.15,3.41,4.69,4.69,0,0,1-3.42,1.61h-.13a4.71,4.71,0,0,1-.13-9.42h.14m0-.91h-.16a5.63,5.63,0,0,0-4.08,1.92,5.65,5.65,0,0,0,.53,7.94,5.61,5.61,0,0,0,3.7,1.39h.16a5.62,5.62,0,0,0-.15-11.24Z" transform="translate(-62.5 -354.57)" style="fill:#f8caba"/><path d="M136.2,435.23a1.43,1.43,0,0,1-.9-.48,8.51,8.51,0,0,1-1.07-1.26,19.24,19.24,0,0,1-1.11-1.7c-.37-.62-.71-1.24-1-1.85s-.57-1.17-.77-1.66c-.33,1.14-.65,2.26-1,3.36s-.59,2.1-.85,3a1.33,1.33,0,0,1-.8-.25.73.73,0,0,1-.36-.63,1.54,1.54,0,0,1,.09-.46l.16-.5c.29-.92.57-1.79.85-2.6s.56-1.6.82-2.36.55-1.51.83-2.26.59-1.49.9-2.25.66-1.54,1-2.36a5.26,5.26,0,0,0-1.28.36,6.92,6.92,0,0,0-.87.44,1.18,1.18,0,0,1-.46.2.53.53,0,0,1-.2-.08,1.37,1.37,0,0,1-.23-.19.36.36,0,0,1-.11-.21l1.07-.41a9.23,9.23,0,0,1,1.34-.39,7.61,7.61,0,0,1,1.52-.16,6.17,6.17,0,0,1,1.53.19,5,5,0,0,1,1.44.57,3.2,3.2,0,0,1,1.05,1,2.93,2.93,0,0,1,0,3,3.4,3.4,0,0,1-1,1,6,6,0,0,1-1.39.67,10.45,10.45,0,0,1-1.48.39c-.49.08-.94.14-1.33.17s-.69,0-.89,0l1,1.8c.32.59.68,1.17,1.06,1.74a14.87,14.87,0,0,0,1.37,1.74,17.58,17.58,0,0,0,1.9,1.79,1,1,0,0,1-.37.4A1,1,0,0,1,136.2,435.23Zm-4.6-7.92a9.33,9.33,0,0,0,1.92-.3,7,7,0,0,0,1.77-.72,4,4,0,0,0,1.3-1.17,2.93,2.93,0,0,0,.49-1.69,2.33,2.33,0,0,0-.46-1.51,2.45,2.45,0,0,0-1.17-.78,4.71,4.71,0,0,0-1.5-.24,24.74,24.74,0,0,0-1.19,2.89C132.36,424.92,132,426.09,131.6,427.31Z" transform="translate(-62.5 -354.57)" style="fill:#3e3a39"/><path d="M138.44,438a1.28,1.28,0,0,1-.77-.24.78.78,0,0,1-.33-.69,1.76,1.76,0,0,1,.28-1,3.15,3.15,0,0,1,.75-.81,7.74,7.74,0,0,1,1.08-.69c.41-.23.83-.45,1.28-.67.16-.43.33-.91.5-1.44s.33-1.12.48-1.76a9.65,9.65,0,0,1-1.2,1.57,1.92,1.92,0,0,1-1.36.65,1.54,1.54,0,0,1-.65-.15,1.24,1.24,0,0,1-.53-.46,1.42,1.42,0,0,1-.21-.8,4.64,4.64,0,0,1,.16-1.14,10.9,10.9,0,0,1,.41-1.26,6.73,6.73,0,0,1,.51-1c.18-.27.33-.4.45-.4a.86.86,0,0,1,.26,0,1.19,1.19,0,0,1,.35.15c.11.06.16.13.16.2a5.08,5.08,0,0,0-.35.65c-.12.27-.25.59-.37.93a10.54,10.54,0,0,0-.31,1,3.52,3.52,0,0,0-.12.83.88.88,0,0,0,.14.51.56.56,0,0,0,.49.19,1.21,1.21,0,0,0,.74-.32,5,5,0,0,0,.82-.83,9.11,9.11,0,0,0,.76-1.08c0-.13.07-.26.1-.4s.06-.27.08-.41a1.9,1.9,0,0,1,.25-.57.72.72,0,0,1,.64-.32h.17l.2,0a6,6,0,0,1-.17,1c-.11.51-.27,1.1-.47,1.78s-.45,1.37-.73,2.08a5.07,5.07,0,0,0,1.61-1,5.34,5.34,0,0,0,1.28-1.93l.22.17a4,4,0,0,1-.79,1.46,6.09,6.09,0,0,1-1.2,1.07,10.28,10.28,0,0,1-1.31.74,20.34,20.34,0,0,1-1,2.1,7,7,0,0,1-1.11,1.58A1.71,1.71,0,0,1,138.44,438Zm-.09-.56c.18,0,.47-.23.88-.69a8.39,8.39,0,0,0,1.32-2.42c-.47.26-.92.51-1.33.76a4,4,0,0,0-1,.81,1.51,1.51,0,0,0-.37,1,.71.71,0,0,0,.1.33A.39.39,0,0,0,138.35,437.45Z" transform="translate(-62.5 -354.57)" style="fill:#3e3a39"/><path d="M145.69,433.68a1.19,1.19,0,0,1-1.06-.47,1.94,1.94,0,0,1-.32-1.12,3.69,3.69,0,0,1,.18-1.12,5,5,0,0,1,.46-1.09,3.22,3.22,0,0,1,.65-.82,1.07,1.07,0,0,1,.72-.31l.18,0,.19.07a2.07,2.07,0,0,0-.38.51,7.72,7.72,0,0,0-.41.86,7.59,7.59,0,0,0-.32,1,2.93,2.93,0,0,0-.13.8,1.26,1.26,0,0,0,.17.76.55.55,0,0,0,.46.24,1.54,1.54,0,0,0,.87-.39,6.38,6.38,0,0,0,1-1,2.61,2.61,0,0,1-.76-1.06,3.28,3.28,0,0,1-.28-1.33,2.82,2.82,0,0,1,.21-1.09,1.86,1.86,0,0,1,.58-.81,1.48,1.48,0,0,1,.93-.3,1,1,0,0,1,1,.38,1.8,1.8,0,0,1,.24,1,4.09,4.09,0,0,1-.33,1.51,8.43,8.43,0,0,1-.84,1.6,1.32,1.32,0,0,0,.67.18,2.21,2.21,0,0,0,1.32-.51,2.15,2.15,0,0,0,.55-.75l.21.17a2.33,2.33,0,0,1-1,1.17,2.69,2.69,0,0,1-1.22.34,2,2,0,0,1-.43,0,1.7,1.7,0,0,1-.4-.13,6.25,6.25,0,0,1-1.31,1.31A2.32,2.32,0,0,1,145.69,433.68Zm2.57-2.57a8.1,8.1,0,0,0,.73-1.36,3.53,3.53,0,0,0,.28-1.33,1.58,1.58,0,0,0-.14-.75.45.45,0,0,0-.38-.23c-.23,0-.47.17-.72.5a2.17,2.17,0,0,0-.36,1.28,4,4,0,0,0,.14,1A2.32,2.32,0,0,0,148.26,431.11Z" transform="translate(-62.5 -354.57)" style="fill:#3e3a39"/><path d="M156.06,433.78a1.17,1.17,0,0,1-.84-.33,2.16,2.16,0,0,1-.55-.84,4.75,4.75,0,0,1-.3-1,4.93,4.93,0,0,1-.1-.93,2.66,2.66,0,0,0,.56-.1,2.94,2.94,0,0,0,.75-.3,2.12,2.12,0,0,0,.66-.52,1.16,1.16,0,0,0,.27-.76.71.71,0,0,0-.26-.58,1,1,0,0,0-.61-.21,1.61,1.61,0,0,0-1,.38,3.76,3.76,0,0,0-.85,1,10.32,10.32,0,0,0-.67,1.28c-.2.45-.37.89-.51,1.29s-.25.75-.35,1a.7.7,0,0,1-.29.43.83.83,0,0,1-.4.11.45.45,0,0,1-.43-.25,1.52,1.52,0,0,1-.16-.62c0-.25,0-.51,0-.77a8.68,8.68,0,0,1,.3-2.1,19.59,19.59,0,0,1,.8-2.47c.33-.86.69-1.69,1.09-2.49a24.29,24.29,0,0,1,1.19-2.19,10.35,10.35,0,0,1,1.1-1.55c.34-.39.61-.58.82-.58s.29.11.39.33a1.94,1.94,0,0,1,.15.8,4.16,4.16,0,0,1-.26,1.34,7.71,7.71,0,0,1-.74,1.5,8.39,8.39,0,0,1-1.14,1.41,8.07,8.07,0,0,1-1.42,1.14,15.81,15.81,0,0,0-.87,2.75,11.16,11.16,0,0,0-.29,2.25c.19-.47.41-1,.68-1.54a12.05,12.05,0,0,1,.9-1.61,5.47,5.47,0,0,1,1.1-1.26,2,2,0,0,1,1.24-.49,1.47,1.47,0,0,1,1.1.46,1.63,1.63,0,0,1,.16,2,2.3,2.3,0,0,1-.69.63,3.68,3.68,0,0,1-.83.35,2.8,2.8,0,0,1-.67.11,5,5,0,0,0,.11.51,4.57,4.57,0,0,0,.25.77,2.57,2.57,0,0,0,.41.69.75.75,0,0,0,.59.29,1.49,1.49,0,0,0,1-.39,4.28,4.28,0,0,0,.86-1,10.77,10.77,0,0,0,.76-1.44l.18.17a6,6,0,0,1-.76,1.62,5,5,0,0,1-1.12,1.24A2,2,0,0,1,156.06,433.78Zm-2.56-7.32a7.55,7.55,0,0,0,1.41-1.47,9,9,0,0,0,.94-1.58,3.3,3.3,0,0,0,.33-1.2c0-.06,0-.1,0-.12s0,0,0,0-.31.21-.6.62a16.45,16.45,0,0,0-1,1.61C154.19,425,153.84,425.68,153.5,426.46Z" transform="translate(-62.5 -354.57)" style="fill:#3e3a39"/><path d="M159.87,433.68a1.19,1.19,0,0,1-1.07-.47,1.94,1.94,0,0,1-.32-1.12,3.69,3.69,0,0,1,.18-1.12,5.57,5.57,0,0,1,.46-1.09,3.22,3.22,0,0,1,.65-.82,1.09,1.09,0,0,1,.72-.31l.19,0,.18.07a2.09,2.09,0,0,0-.37.51,6.27,6.27,0,0,0-.42.86c-.12.32-.23.64-.32,1a2.93,2.93,0,0,0-.13.8,1.25,1.25,0,0,0,.18.76.52.52,0,0,0,.45.24,1.52,1.52,0,0,0,.87-.39,6.38,6.38,0,0,0,1-1,2.61,2.61,0,0,1-.76-1.06,3.44,3.44,0,0,1-.27-1.33,3,3,0,0,1,.2-1.09,1.88,1.88,0,0,1,.59-.81,1.43,1.43,0,0,1,.92-.3,1,1,0,0,1,1,.38,1.72,1.72,0,0,1,.25,1,4.09,4.09,0,0,1-.33,1.51,9.76,9.76,0,0,1-.84,1.6,1.31,1.31,0,0,0,.66.18,1.93,1.93,0,0,0,.63-.12,2,2,0,0,0,1.24-1.14l.21.17a2.24,2.24,0,0,1-1,1.17,2.65,2.65,0,0,1-1.21.34,2.12,2.12,0,0,1-.44,0,1.87,1.87,0,0,1-.4-.13,6.46,6.46,0,0,1-1.3,1.31A2.32,2.32,0,0,1,159.87,433.68Zm2.56-2.57a6.88,6.88,0,0,0,.73-1.36,3.55,3.55,0,0,0,.29-1.33,1.45,1.45,0,0,0-.15-.75.45.45,0,0,0-.38-.23c-.23,0-.47.17-.71.5a2.11,2.11,0,0,0-.37,1.28,3.6,3.6,0,0,0,.15,1A2.46,2.46,0,0,0,162.43,431.11Z" transform="translate(-62.5 -354.57)" style="fill:#3e3a39"/><path d="M173.31,434.64a2.91,2.91,0,0,1-1.75-.54,3.42,3.42,0,0,1-1.18-1.51,5.57,5.57,0,0,1-.43-2.29,9,9,0,0,1,.43-2.72,12.84,12.84,0,0,1,2.82-4.89,8,8,0,0,1,2-1.56,4.08,4.08,0,0,1,2-.58,3.51,3.51,0,0,1,.59.05,1.69,1.69,0,0,1,.45.16H178a3.37,3.37,0,0,0-1.83.6,8.1,8.1,0,0,0-1.77,1.63,12.94,12.94,0,0,0-1.5,2.29,13.88,13.88,0,0,0-1,2.63,10,10,0,0,0-.38,2.64,6.4,6.4,0,0,0,.23,1.73,2.78,2.78,0,0,0,.76,1.28,1.92,1.92,0,0,0,1.35.48,3.13,3.13,0,0,0,1.83-.6,6.07,6.07,0,0,0,1.55-1.63,12.15,12.15,0,0,0,1.19-2.3,15.76,15.76,0,0,0,.77-2.62,13.36,13.36,0,0,0,.27-2.6,8,8,0,0,0-.07-1.05,4,4,0,0,0-.24-1c-.12-.27-.28-.4-.48-.4a1,1,0,0,0-.68.39,5.51,5.51,0,0,0-.71,1q-.33.6-.6,1.23a7.34,7.34,0,0,0-.37,1.13,1.12,1.12,0,0,1-.63-.34.77.77,0,0,1-.21-.52,2.12,2.12,0,0,1,.33-1,5.82,5.82,0,0,1,.82-1.1,5.52,5.52,0,0,1,1-.87,1.86,1.86,0,0,1,1-.34.94.94,0,0,1,.74.33,2.54,2.54,0,0,1,.46.85,5.36,5.36,0,0,1,.22,1.1,10.67,10.67,0,0,1,.06,1.09,13.36,13.36,0,0,1-.42,3.47,10.59,10.59,0,0,1-1.16,2.75,9.1,9.1,0,0,1-1.61,2,6.92,6.92,0,0,1-1.83,1.23A4.48,4.48,0,0,1,173.31,434.64Z" transform="translate(-62.5 -354.57)" style="fill:#3e3a39"/><path d="M185.66,433.78a1.19,1.19,0,0,1-.84-.33,2.41,2.41,0,0,1-.55-.84,6.19,6.19,0,0,1-.3-1,5.78,5.78,0,0,1-.09-.93,2.77,2.77,0,0,0,.56-.1,3.26,3.26,0,0,0,.75-.3,2.07,2.07,0,0,0,.65-.52,1.12,1.12,0,0,0,.28-.76.69.69,0,0,0-.27-.58.94.94,0,0,0-.61-.21,1.59,1.59,0,0,0-1,.38,3.58,3.58,0,0,0-.85,1,10.32,10.32,0,0,0-.67,1.28c-.2.45-.37.89-.51,1.29l-.35,1a.76.76,0,0,1-.3.43.8.8,0,0,1-.4.11.45.45,0,0,1-.43-.25,1.53,1.53,0,0,1-.15-.62c0-.25,0-.51,0-.77a8.68,8.68,0,0,1,.3-2.1,21.24,21.24,0,0,1,.79-2.47c.33-.86.7-1.69,1.09-2.49s.8-1.54,1.19-2.19a12,12,0,0,1,1.1-1.55c.34-.39.62-.58.83-.58s.29.11.39.33a1.94,1.94,0,0,1,.15.8,4.16,4.16,0,0,1-.26,1.34,7.78,7.78,0,0,1-.75,1.5,8.84,8.84,0,0,1-1.13,1.41,8.14,8.14,0,0,1-1.43,1.14,16.65,16.65,0,0,0-.86,2.75,11.16,11.16,0,0,0-.29,2.25c.18-.47.41-1,.67-1.54a12.05,12.05,0,0,1,.9-1.61,6,6,0,0,1,1.1-1.26,2,2,0,0,1,1.24-.49,1.57,1.57,0,0,1,1.56,1.56,1.58,1.58,0,0,1-.29.95,2.22,2.22,0,0,1-.7.63,3.61,3.61,0,0,1-.82.35,2.87,2.87,0,0,1-.67.11,4.23,4.23,0,0,0,.1.51,4.66,4.66,0,0,0,.26.77,2.34,2.34,0,0,0,.41.69.75.75,0,0,0,.59.29,1.44,1.44,0,0,0,1-.39,4.54,4.54,0,0,0,.87-1,12.07,12.07,0,0,0,.76-1.44l.17.17a5.67,5.67,0,0,1-.75,1.62,5,5,0,0,1-1.13,1.24A2,2,0,0,1,185.66,433.78Zm-2.55-7.32a7.85,7.85,0,0,0,1.41-1.47,8.31,8.31,0,0,0,.93-1.58,3.3,3.3,0,0,0,.33-1.2.35.35,0,0,0,0-.12,0,0,0,0,0,0,0c-.12,0-.32.21-.6.62a14.68,14.68,0,0,0-1,1.61C183.8,425,183.45,425.68,183.11,426.46Z" transform="translate(-62.5 -354.57)" style="fill:#3e3a39"/><path d="M189.1,433.94a1.26,1.26,0,0,1-.91-.36,1.44,1.44,0,0,1-.38-1.09,3.76,3.76,0,0,1,.28-1.36,6.89,6.89,0,0,1,.77-1.43,8.58,8.58,0,0,1,1.11-1.29,5.76,5.76,0,0,1,1.31-.94,3.06,3.06,0,0,1,1.37-.35,1.79,1.79,0,0,1,1.14.36,1.16,1.16,0,0,1,.45.95.7.7,0,0,1-.23.6,1.16,1.16,0,0,1-.62.15q0-.14.06-.3c0-.11,0-.21,0-.31a1.21,1.21,0,0,0-.19-.69.74.74,0,0,0-.66-.29,1.78,1.78,0,0,0-1,.35,4.77,4.77,0,0,0-1,.9,8.42,8.42,0,0,0-.84,1.24,7.77,7.77,0,0,0-.57,1.31,3.75,3.75,0,0,0-.21,1.15c0,.45.15.68.47.68a1.41,1.41,0,0,0,.87-.37,6.33,6.33,0,0,0,1-1c.33-.39.65-.79.95-1.21s.58-.8.81-1.15c0-.07.07-.11.09-.11l.27.07a1.3,1.3,0,0,1,.29.14.28.28,0,0,1,.12.23.92.92,0,0,1-.16.43l-.35.62c-.13.23-.24.47-.35.71a1.72,1.72,0,0,0-.16.67,1.09,1.09,0,0,0,.14.51.5.5,0,0,0,.46.26,2.17,2.17,0,0,0,1.24-.69,8.28,8.28,0,0,0,1.55-2.07l.18.17a6.52,6.52,0,0,1-.94,1.66,4.94,4.94,0,0,1-1.24,1.12,2.4,2.4,0,0,1-1.28.4,1.15,1.15,0,0,1-.95-.38,1.31,1.31,0,0,1-.31-.84,2.32,2.32,0,0,1,0-.24l0-.27a8.6,8.6,0,0,1-1.37,1.52A2,2,0,0,1,189.1,433.94Z" transform="translate(-62.5 -354.57)" style="fill:#3e3a39"/><path d="M139.13,417a.82.82,0,0,1-.26,0,.81.81,0,0,1-.29-.12.76.76,0,0,1-.23-.24.8.8,0,0,1-.09-.41,3.23,3.23,0,0,1,.17-.93q.16-.58.39-1.29c.12-.36.23-.74.34-1.13s.19-.78.26-1.17a6.43,6.43,0,0,0,.11-1.12c0-.25,0-.48,0-.7a1,1,0,0,0-.15-.52.46.46,0,0,0-.43-.2.72.72,0,0,0-.48.17,1.18,1.18,0,0,0-.32.43,2.53,2.53,0,0,0-.18.55,2.8,2.8,0,0,0-.06.55,1.38,1.38,0,0,0,.09.54.65.65,0,0,1-.55-.21.84.84,0,0,1-.16-.51,1.6,1.6,0,0,1,.14-.63,2.27,2.27,0,0,1,.41-.58,2.08,2.08,0,0,1,.59-.43,1.56,1.56,0,0,1,.7-.16,1,1,0,0,1,.94.49,2.49,2.49,0,0,1,.31,1.31,6.33,6.33,0,0,1-.21,1.56c-.14.55-.29,1.08-.46,1.6-.11.33-.21.66-.31,1s-.17.59-.23.85a2.53,2.53,0,0,0-.1.67.55.55,0,0,0,.06.29.28.28,0,0,0,.25.11,1,1,0,0,0,.56-.24,3.81,3.81,0,0,0,.62-.64,7.89,7.89,0,0,0,.62-.9c.2-.32.38-.66.55-1s.3-.67.41-1a4.15,4.15,0,0,0,.21-.8.6.6,0,0,1,.47.17.56.56,0,0,1,.13.33,1.47,1.47,0,0,1-.13.49c-.09.22-.19.47-.31.75s-.21.5-.31.78-.19.55-.26.82a3.26,3.26,0,0,0-.11.79.87.87,0,0,0,0,.31.23.23,0,0,0,.23.12,1.16,1.16,0,0,0,.66-.29,4.47,4.47,0,0,0,.77-.79,9.3,9.3,0,0,0,.78-1.13,11.43,11.43,0,0,0,.68-1.3,10,10,0,0,0,.49-1.34,4.61,4.61,0,0,0,.18-1.21,1.45,1.45,0,0,0-.15-.75.69.69,0,0,0-.41-.3,1.43,1.43,0,0,1,.3-.36.55.55,0,0,1,.29-.11.53.53,0,0,1,.41.28,1.37,1.37,0,0,1,.2.84,4.54,4.54,0,0,1-.2,1.27,11.13,11.13,0,0,1-.56,1.46,13.22,13.22,0,0,1-.81,1.48,11.18,11.18,0,0,1-1,1.3,5.87,5.87,0,0,1-1,.92,1.63,1.63,0,0,1-.9.34,1.09,1.09,0,0,1-.39-.08.86.86,0,0,1-.34-.25.65.65,0,0,1-.14-.43,1.69,1.69,0,0,1,.06-.39,4.75,4.75,0,0,1,.15-.52,6.75,6.75,0,0,1-1.06,1.2A1.64,1.64,0,0,1,139.13,417Z" transform="translate(-62.5 -354.57)" style="fill:#3e3a39"/><path d="M147,416.51a1.11,1.11,0,0,1-1.23-1.17,2.24,2.24,0,0,1,.23-1,4.2,4.2,0,0,1,.6-.95,3.73,3.73,0,0,1,.83-.72,1.79,1.79,0,0,1,.9-.27.8.8,0,0,1,.43.12.53.53,0,0,1,.2.49,1.26,1.26,0,0,1-.23.72,2.24,2.24,0,0,1-.59.6,3.49,3.49,0,0,1-.81.43,3.45,3.45,0,0,1-.87.21.68.68,0,0,0,0,.19,1,1,0,0,0,0,.17,1.63,1.63,0,0,0,0,.31.68.68,0,0,0,.13.27.59.59,0,0,0,.24.2.94.94,0,0,0,.39.07A1.64,1.64,0,0,0,148,416a3.18,3.18,0,0,0,.79-.65,3.9,3.9,0,0,0,.61-.89l.13.1a4.1,4.1,0,0,1-.7,1.05,3.61,3.61,0,0,1-.9.69A2.26,2.26,0,0,1,147,416.51Zm-.49-1.69a4.26,4.26,0,0,0,.61-.27,4.59,4.59,0,0,0,.66-.42,2.42,2.42,0,0,0,.53-.53,1.05,1.05,0,0,0,.21-.62.29.29,0,0,0-.05-.17s-.08-.06-.17-.06a.93.93,0,0,0-.51.18,3,3,0,0,0-.53.49,5.22,5.22,0,0,0-.45.67A2.82,2.82,0,0,0,146.46,414.82Z" transform="translate(-62.5 -354.57)" style="fill:#3e3a39"/><path d="M150.16,416.81a.91.91,0,0,1-.78-.35,1.48,1.48,0,0,1-.26-.92,5.3,5.3,0,0,1,.17-1.2c.12-.45.27-.93.46-1.44s.4-1,.63-1.46.47-.91.7-1.3a6.28,6.28,0,0,1,.67-.93c.21-.23.38-.35.51-.35s.2.07.25.21a1.31,1.31,0,0,1,.08.43,2.5,2.5,0,0,1-.13.68,5.74,5.74,0,0,1-.34.87,10.25,10.25,0,0,1-.51.9,5.86,5.86,0,0,1-.64.81,2.8,2.8,0,0,1-.69.58,3.19,3.19,0,0,0-.17.46c-.08.24-.15.5-.22.8a4.43,4.43,0,0,0-.09.87,1.71,1.71,0,0,0,.12.69.45.45,0,0,0,.43.26,1.06,1.06,0,0,0,.61-.23,1.75,1.75,0,0,0,.5-.61,1.29,1.29,0,0,1-.55-.56,1.72,1.72,0,0,1-.18-.75,1.12,1.12,0,0,1,.25-.77.77.77,0,0,1,.6-.3.54.54,0,0,1,.46.24,1.21,1.21,0,0,1,.17.69,2.84,2.84,0,0,1-.09.69,3.52,3.52,0,0,1-.26.68l.12,0h.14a1,1,0,0,0,.61-.18,1.73,1.73,0,0,0,.41-.44,3.45,3.45,0,0,0,.27-.49l.12.14a1.76,1.76,0,0,1-.67.92,1.52,1.52,0,0,1-.77.23h-.16l-.16,0a3,3,0,0,1-.67.79A1.44,1.44,0,0,1,150.16,416.81Zm.23-3.86a3,3,0,0,0,.55-.57,5.52,5.52,0,0,0,.5-.73,8.33,8.33,0,0,0,.42-.76,5.8,5.8,0,0,0,.28-.68,1.48,1.48,0,0,0,.1-.45s0-.06,0-.07h0s-.15.09-.31.29a5.89,5.89,0,0,0-.5.76c-.19.32-.37.68-.55,1.06A9.87,9.87,0,0,0,150.39,413Zm1.18,2.42a2.35,2.35,0,0,0,.17-.49,2.26,2.26,0,0,0,.06-.53,1.2,1.2,0,0,0-.1-.55c-.06-.14-.14-.2-.24-.2a.31.31,0,0,0-.26.2,1,1,0,0,0-.12.52,1.75,1.75,0,0,0,.11.58A.93.93,0,0,0,151.57,415.37Z" transform="translate(-62.5 -354.57)" style="fill:#3e3a39"/><path d="M157.47,417a1.92,1.92,0,0,1-.59-.09.91.91,0,0,1-.49-.37c.07-.32.15-.67.25-1s.2-.76.32-1.15.23-.78.35-1.16.23-.74.33-1.07.21-.62.3-.87.15-.43.2-.56a1.8,1.8,0,0,1,.1-.24,3.37,3.37,0,0,1,.17-.32,1.64,1.64,0,0,1,.23-.28.48.48,0,0,1,.29-.11.46.46,0,0,1,.28.1c-.21.48-.42,1-.63,1.6s-.42,1.19-.61,1.82-.38,1.23-.54,1.82-.29,1.13-.4,1.62l.24,0h.19a2.77,2.77,0,0,0,1.25-.3,4.29,4.29,0,0,0,1.12-.82,5.68,5.68,0,0,0,.91-1.19,6.18,6.18,0,0,0,.62-1.42,5.65,5.65,0,0,0,.21-1.5,3.09,3.09,0,0,0-.26-1.35,1.76,1.76,0,0,0-.73-.79,2.33,2.33,0,0,0-1.08-.25,2.53,2.53,0,0,0-1.18.27,2.12,2.12,0,0,0-.83.7,1.76,1.76,0,0,0-.3,1,1.25,1.25,0,0,0,0,.21l0,.17a.58.58,0,0,1-.47-.17.63.63,0,0,1-.14-.4,1.28,1.28,0,0,1,.25-.71,2.73,2.73,0,0,1,.69-.66,3.51,3.51,0,0,1,1-.49,3.82,3.82,0,0,1,1.23-.19,2.51,2.51,0,0,1,1.45.37,2.13,2.13,0,0,1,.81,1,3.73,3.73,0,0,1,.25,1.41,5.28,5.28,0,0,1-.27,1.68,5.7,5.7,0,0,1-.76,1.47,5.53,5.53,0,0,1-1.09,1.17,4.69,4.69,0,0,1-1.32.78A3.73,3.73,0,0,1,157.47,417Z" transform="translate(-62.5 -354.57)" style="fill:#3e3a39"/><path d="M163.44,416.51a1.11,1.11,0,0,1-1.23-1.17,2.24,2.24,0,0,1,.23-1,4.2,4.2,0,0,1,.6-.95,3.73,3.73,0,0,1,.83-.72,1.79,1.79,0,0,1,.9-.27.8.8,0,0,1,.43.12.53.53,0,0,1,.2.49,1.26,1.26,0,0,1-.23.72,2.24,2.24,0,0,1-.59.6,3.49,3.49,0,0,1-.81.43,3.55,3.55,0,0,1-.87.21.68.68,0,0,0,0,.19,1.11,1.11,0,0,0,0,.17,1.65,1.65,0,0,0,0,.31.68.68,0,0,0,.13.27.59.59,0,0,0,.24.2.94.94,0,0,0,.39.07,1.64,1.64,0,0,0,.86-.25,3.18,3.18,0,0,0,.79-.65,3.9,3.9,0,0,0,.61-.89l.13.1a4.1,4.1,0,0,1-.7,1.05,3.61,3.61,0,0,1-.9.69A2.26,2.26,0,0,1,163.44,416.51Zm-.49-1.69a4.26,4.26,0,0,0,.61-.27,4.59,4.59,0,0,0,.66-.42,2.42,2.42,0,0,0,.53-.53A1.05,1.05,0,0,0,165,413a.29.29,0,0,0-.05-.17s-.08-.06-.17-.06a.93.93,0,0,0-.51.18,3,3,0,0,0-.53.49,4.36,4.36,0,0,0-.45.67A2.82,2.82,0,0,0,163,414.82Z" transform="translate(-62.5 -354.57)" style="fill:#3e3a39"/><path d="M166.77,416.59a1.23,1.23,0,0,1-.75-.21,1.13,1.13,0,0,1-.39-.51,1.66,1.66,0,0,1-.12-.61,1.12,1.12,0,0,1,.08-.46.61.61,0,0,1,.2-.24,1,1,0,0,1,.22-.13.35.35,0,0,0,.15-.08,7.23,7.23,0,0,0,.55-.69,6,6,0,0,0,.45-.77v-.12a.88.88,0,0,1,.12-.53.36.36,0,0,1,.27-.16.21.21,0,0,1,.12,0,.12.12,0,0,1,0,.09.61.61,0,0,1,0,.16,1.17,1.17,0,0,0,0,.29,2.5,2.5,0,0,0,.13.72c.09.26.18.53.27.82a3.24,3.24,0,0,1,.13.89,2.28,2.28,0,0,1,0,.26,2,2,0,0,1,0,.24,1.45,1.45,0,0,0,.66-.32,2.66,2.66,0,0,0,.61-.83l.09.11a1.69,1.69,0,0,1-.58.84,1.87,1.87,0,0,1-.83.36,1.16,1.16,0,0,1-.51.63A1.53,1.53,0,0,1,166.77,416.59Zm0-.36a1.1,1.1,0,0,0,.33-.08.6.6,0,0,0,.31-.41,1.83,1.83,0,0,1-.75-.34,1.77,1.77,0,0,1-.49-.5c-.15,0-.22.12-.22.35a1.16,1.16,0,0,0,.21.67A.7.7,0,0,0,166.79,416.23Zm.69-.65,0-.22a2,2,0,0,0,0-.26,3.73,3.73,0,0,0-.12-.94c-.07-.32-.14-.61-.19-.89-.16.26-.32.5-.49.74a6.41,6.41,0,0,1-.49.58,2,2,0,0,0,.47.6A1.69,1.69,0,0,0,167.48,415.58Z" transform="translate(-62.5 -354.57)" style="fill:#3e3a39"/><path d="M169.92,416.33a.7.7,0,0,1-.58-.24,1,1,0,0,1-.19-.61,2.34,2.34,0,0,1,.08-.58,6.21,6.21,0,0,1,.23-.74,4.5,4.5,0,0,1,.33-.74,2.43,2.43,0,0,1,.4-.56.6.6,0,0,1,.41-.21.3.3,0,0,1,.16.05.24.24,0,0,1,.06.17,1,1,0,0,1-.15.39l-.37.63a4.65,4.65,0,0,0-.37.74,1.9,1.9,0,0,0-.16.74.71.71,0,0,0,.12.49.52.52,0,0,0,.38.12,1.13,1.13,0,0,0,.73-.34,4.08,4.08,0,0,0,.82-1.21l.09.11a2.88,2.88,0,0,1-.84,1.33A1.76,1.76,0,0,1,169.92,416.33Zm1.22-4.62a.55.55,0,0,1-.29-.08.28.28,0,0,1-.13-.26A.42.42,0,0,1,171,411a.86.86,0,0,1,.49-.16.36.36,0,0,1,.24.07.3.3,0,0,1,.09.24.5.5,0,0,1-.21.37A.64.64,0,0,1,171.14,411.71Z" transform="translate(-62.5 -354.57)" style="fill:#3e3a39"/><path d="M172,418.9a.67.67,0,0,1-.4-.14.53.53,0,0,1-.18-.45,1,1,0,0,1,.18-.56,2.38,2.38,0,0,1,.48-.47,4.18,4.18,0,0,1,.65-.4l.66-.35c.09-.23.18-.48.26-.76s.17-.57.25-.9a4.6,4.6,0,0,1-.8.92,1.26,1.26,0,0,1-.84.37.64.64,0,0,1-.56-.27,1.13,1.13,0,0,1-.2-.71,2,2,0,0,1,.26-1,3.14,3.14,0,0,1,.67-.84,3.49,3.49,0,0,1,.88-.57,2.27,2.27,0,0,1,.86-.2.73.73,0,0,1,.42.09.28.28,0,0,1,.13.23.2.2,0,0,1,0,.14l-.07.06a.33.33,0,0,0-.15-.11.65.65,0,0,0-.26,0,1.46,1.46,0,0,0-.76.23,2.83,2.83,0,0,0-.65.6,3.25,3.25,0,0,0-.45.75,1.84,1.84,0,0,0-.16.71.63.63,0,0,0,.09.37.32.32,0,0,0,.26.13,1.14,1.14,0,0,0,.7-.39,5.94,5.94,0,0,0,.79-.95l.06-.25c0-.07,0-.17.06-.28a1,1,0,0,1,.15-.33.42.42,0,0,1,.37-.19h.1l.11,0a3.36,3.36,0,0,1-.09.59c-.07.29-.16.62-.28,1s-.25.78-.41,1.18a3.59,3.59,0,0,0,.66-.41,4,4,0,0,0,.58-.58,2.85,2.85,0,0,0,.41-.72l.13.11a2.36,2.36,0,0,1-.48.82,4.36,4.36,0,0,1-.72.65,4.56,4.56,0,0,1-.69.42,12,12,0,0,1-.59,1.24,4.19,4.19,0,0,1-.65.89A1,1,0,0,1,172,418.9Zm0-.33c.14,0,.32-.13.55-.39a5.23,5.23,0,0,0,.76-1.37,7.85,7.85,0,0,0-.76.42,2.44,2.44,0,0,0-.57.46.76.76,0,0,0-.22.53.42.42,0,0,0,.07.26A.22.22,0,0,0,172,418.57Z" transform="translate(-62.5 -354.57)" style="fill:#3e3a39"/><path d="M178.82,416.27a.71.71,0,0,1-.53-.18.63.63,0,0,1-.18-.46,1.47,1.47,0,0,1,.08-.45l.15-.48a2,2,0,0,0,.07-.48.5.5,0,0,0-.12-.39.41.41,0,0,0-.29-.1,1,1,0,0,0-.63.26,3.56,3.56,0,0,0-.63.65c-.2.27-.39.54-.57.82l-.46.76a1.06,1.06,0,0,1-.31-.05.58.58,0,0,1-.23-.17,1.65,1.65,0,0,1,.11-.31l.25-.65c.09-.26.18-.52.25-.79a2.94,2.94,0,0,0,.11-.73.79.79,0,0,1,.19-.15.68.68,0,0,1,.28-.07.24.24,0,0,1,.27.27,2.88,2.88,0,0,1-.09.54c-.06.25-.14.51-.23.79a7.56,7.56,0,0,1,.61-.82,3.59,3.59,0,0,1,.72-.69,1.31,1.31,0,0,1,.77-.27.64.64,0,0,1,.57.28,1.24,1.24,0,0,1,.17.63,1.57,1.57,0,0,1-.1.58c-.07.18-.13.35-.21.52a1.24,1.24,0,0,0-.1.5.42.42,0,0,0,.08.29.29.29,0,0,0,.22.09.75.75,0,0,0,.51-.24,4,4,0,0,0,.49-.6c.15-.24.29-.49.42-.74l.11.14a4.47,4.47,0,0,1-.48.87,2.24,2.24,0,0,1-.57.61A1.16,1.16,0,0,1,178.82,416.27Z" transform="translate(-62.5 -354.57)" style="fill:#3e3a39"/><path d="M181.35,416.51a1.11,1.11,0,0,1-1.23-1.17,2.4,2.4,0,0,1,.23-1,3.92,3.92,0,0,1,.61-.95,3.73,3.73,0,0,1,.83-.72,1.74,1.74,0,0,1,.9-.27.85.85,0,0,1,.43.12c.13.08.19.24.19.49a1.25,1.25,0,0,1-.22.72,2.28,2.28,0,0,1-.6.6,3.3,3.3,0,0,1-.81.43,3.45,3.45,0,0,1-.87.21,1.48,1.48,0,0,0,0,.19,1,1,0,0,0,0,.17,1.63,1.63,0,0,0,0,.31.84.84,0,0,0,.13.27.56.56,0,0,0,.25.2.88.88,0,0,0,.39.07,1.61,1.61,0,0,0,.85-.25,3,3,0,0,0,.79-.65,4.29,4.29,0,0,0,.62-.89l.12.1a3.82,3.82,0,0,1-.69,1.05,3.48,3.48,0,0,1-.91.69A2.26,2.26,0,0,1,181.35,416.51Zm-.49-1.69a4.33,4.33,0,0,0,.62-.27,6,6,0,0,0,.66-.42,2.6,2.6,0,0,0,.52-.53,1.05,1.05,0,0,0,.21-.62.39.39,0,0,0,0-.17.21.21,0,0,0-.17-.06.93.93,0,0,0-.52.18,2.64,2.64,0,0,0-.52.49,5.29,5.29,0,0,0-.46.67A3.75,3.75,0,0,0,180.86,414.82Z" transform="translate(-62.5 -354.57)" style="fill:#3e3a39"/><path d="M185.37,416.33a.77.77,0,0,1-.54-.18.61.61,0,0,1-.19-.47,1.51,1.51,0,0,1,.14-.64l.27-.66a1.43,1.43,0,0,0,.14-.59.57.57,0,0,0-.19-.48,4.68,4.68,0,0,0-.37-.29c-.16.4-.32.77-.49,1.13s-.31.63-.41.81l-.09-.17c.09-.18.21-.43.36-.77a9.87,9.87,0,0,0,.45-1.15.37.37,0,0,1-.1-.24.74.74,0,0,1,.17-.5c.12-.13.2-.19.26-.19a.11.11,0,0,1,.12.1,1.15,1.15,0,0,1,0,.14.65.65,0,0,1-.06.2,1.37,1.37,0,0,0-.05.18.31.31,0,0,0,.15.25l.36.27a1.33,1.33,0,0,1,.36.35.82.82,0,0,1,.16.53,1.57,1.57,0,0,1-.13.62c-.08.2-.17.4-.25.59a1.2,1.2,0,0,0-.13.5.27.27,0,0,0,.09.24.38.38,0,0,0,.22.06,1,1,0,0,0,.5-.15,2.84,2.84,0,0,0,.5-.39,3.35,3.35,0,0,0,.43-.49,2,2,0,0,0,.28-.48l.13.11a3.56,3.56,0,0,1-.52.83,3.1,3.1,0,0,1-.74.67A1.54,1.54,0,0,1,185.37,416.33Z" transform="translate(-62.5 -354.57)" style="fill:#3e3a39"/><path d="M500.24,370.92a12.67,12.67,0,1,1-12.67,12.67,12.68,12.68,0,0,1,12.67-12.67m0-.53a13.2,13.2,0,1,0,13.19,13.2,13.2,13.2,0,0,0-13.19-13.2Z" transform="translate(-62.5 -354.57)" style="fill:#8f8f8f"/><path d="M500.24,371.77a11.82,11.82,0,1,1-11.83,11.82,11.84,11.84,0,0,1,11.83-11.82m0-.53a12.35,12.35,0,1,0,12.35,12.35,12.37,12.37,0,0,0-12.35-12.35Z" transform="translate(-62.5 -354.57)" style="fill:#8f8f8f"/><path d="M500.24,372.61a11,11,0,1,1-11,11,11,11,0,0,1,11-11m0-.53a11.51,11.51,0,1,0,11.5,11.51,11.52,11.52,0,0,0-11.5-11.51Z" transform="translate(-62.5 -354.57)" style="fill:#8f8f8f"/><path d="M499.48,395.73a18.28,18.28,0,0,1-1.66-14.15l.51.15a17.66,17.66,0,0,0,1.61,13.73Z" transform="translate(-62.5 -354.57)" style="fill:#8f8f8f"/><path d="M499,396.61a17.14,17.14,0,0,1-2-4.45,18.82,18.82,0,0,1,0-10.83l.5.16a18.37,18.37,0,0,0,0,10.52,16.83,16.83,0,0,0,1.93,4.31Z" transform="translate(-62.5 -354.57)" style="fill:#8f8f8f"/><path d="M500,394.93a17.2,17.2,0,0,1-1.35-3.32,16.83,16.83,0,0,1,0-9.79l.51.15a16.32,16.32,0,0,0,0,9.49,16.59,16.59,0,0,0,1.32,3.22Z" transform="translate(-62.5 -354.57)" style="fill:#8f8f8f"/><path d="M494,383.37a8.13,8.13,0,0,1-3.62-.83l.26-.46a7.66,7.66,0,0,0,6.51.08c.21-.1.41-.2.62-.32l.26.46c-.22.12-.44.24-.66.34A8.19,8.19,0,0,1,494,383.37Z" transform="translate(-62.5 -354.57)" style="fill:#8f8f8f"/><path d="M494,382.53a7.2,7.2,0,0,1-3.21-.73l.25-.46a6.8,6.8,0,0,0,4.49.48,7.31,7.31,0,0,0,1.27-.43,5.93,5.93,0,0,0,.56-.29l.26.46c-.2.11-.4.22-.6.31a7.39,7.39,0,0,1-1.37.47A7,7,0,0,1,494,382.53Z" transform="translate(-62.5 -354.57)" style="fill:#8f8f8f"/><path d="M509,392a16.11,16.11,0,0,1-4.71-1.2,10.63,10.63,0,0,1-6.54-8.79l.52-.07a10.15,10.15,0,0,0,6.23,8.38,15.19,15.19,0,0,0,4.55,1.15Z" transform="translate(-62.5 -354.57)" style="fill:#8f8f8f"/><path d="M509.51,392.93a17.53,17.53,0,0,1-5.52-1.32,11.43,11.43,0,0,1-7-9.44l.53-.07a10.91,10.91,0,0,0,6.72,9,16.83,16.83,0,0,0,5.35,1.27Z" transform="translate(-62.5 -354.57)" style="fill:#8f8f8f"/><path d="M508.68,391.15a15.11,15.11,0,0,1-4-1.08,9.85,9.85,0,0,1-6.05-8.14l.53-.07a9.31,9.31,0,0,0,5.73,7.72,13.83,13.83,0,0,0,3.87,1Z" transform="translate(-62.5 -354.57)" style="fill:#8f8f8f"/><path d="M490.91,386.35v-.53a8.41,8.41,0,0,0,6.26-3.07,5.72,5.72,0,0,0,.39-.57l.45.27c-.13.22-.27.42-.41.62A9,9,0,0,1,490.91,386.35Z" transform="translate(-62.5 -354.57)" style="fill:#8f8f8f"/><path d="M490.92,387.2v-.53a9.14,9.14,0,0,0,6.93-3.41c.15-.21.3-.42.43-.64l.45.28c-.14.23-.3.45-.45.67A9.75,9.75,0,0,1,490.92,387.2Z" transform="translate(-62.5 -354.57)" style="fill:#8f8f8f"/><path d="M490.91,385.51V385a7.58,7.58,0,0,0,5.6-2.73c.12-.17.24-.34.35-.52l.44.28a5.28,5.28,0,0,1-.37.55A8.11,8.11,0,0,1,490.91,385.51Z" transform="translate(-62.5 -354.57)" style="fill:#8f8f8f"/><path d="M496.93,377.53a2.77,2.77,0,0,1,2,4.64,2.8,2.8,0,0,1-2,.89,2.78,2.78,0,0,1-2.77-2.66,2.77,2.77,0,0,1,.73-2,2.81,2.81,0,0,1,2-.88m0-.53a3.29,3.29,0,0,0-2.24,5.71,3.3,3.3,0,0,0,2.24.88,3.29,3.29,0,0,0,3.29-3.43,3.29,3.29,0,0,0-3.29-3.16Z" transform="translate(-62.5 -354.57)" style="fill:#8f8f8f"/><path d="M496.93,378.37a1.92,1.92,0,0,1,1.3.51,1.89,1.89,0,0,1,.61,1.34,1.9,1.9,0,0,1-1.91,2,1.92,1.92,0,0,1-1.31-.51,1.89,1.89,0,0,1-.61-1.33,1.91,1.91,0,0,1,1.92-2m0-.53a2.46,2.46,0,0,0-1.8.79,2.45,2.45,0,0,0,.13,3.46,2.47,2.47,0,0,0,1.67.65,2.44,2.44,0,0,0,1.79-.79,2.39,2.39,0,0,0,.65-1.76,2.42,2.42,0,0,0-.78-1.7,2.46,2.46,0,0,0-1.66-.65Z" transform="translate(-62.5 -354.57)" style="fill:#8f8f8f"/><path d="M496.93,379.21a1.1,1.1,0,0,1,.73.29,1.05,1.05,0,0,1,.34.75,1.08,1.08,0,0,1-.28.77,1.11,1.11,0,0,1-.79.35,1.09,1.09,0,0,1-1.08-1,1.1,1.1,0,0,1,.28-.77,1.11,1.11,0,0,1,.8-.35m0-.52a1.59,1.59,0,0,0-1.18.51,1.65,1.65,0,0,0-.43,1.15,1.6,1.6,0,0,0,2.78,1,1.57,1.57,0,0,0,.43-1.15,1.6,1.6,0,0,0-1.6-1.54Z" transform="translate(-62.5 -354.57)" style="fill:#8f8f8f"/><path d="M494,384.21a9.31,9.31,0,0,1-4-.92l.25-.47a8.6,8.6,0,0,0,5.71.64,8.24,8.24,0,0,0,1.56-.54c.23-.1.46-.22.69-.34l.25.46c-.23.13-.48.25-.72.36a8.58,8.58,0,0,1-1.66.57A8.84,8.84,0,0,1,494,384.21Z" transform="translate(-62.5 -354.57)" style="fill:#8f8f8f"/><path d="M501.88,377.52a4.4,4.4,0,0,1,4.41,4.25,4.42,4.42,0,0,1-4.41,4.59,4.42,4.42,0,1,1,0-8.84m0-.53a5,5,0,0,0-3.64,1.59,5,5,0,0,0,3.64,8.31,5,5,0,0,0,3.63-1.59,5,5,0,0,0-3.63-8.31Z" transform="translate(-62.5 -354.57)" style="fill:#8f8f8f"/><path d="M501.88,378.37a3.57,3.57,0,0,1,2.62,6,3.58,3.58,0,1,1-2.62-6m0-.53a4.13,4.13,0,0,0-3,1.32,4.1,4.1,0,1,0,3-1.32Z" transform="translate(-62.5 -354.57)" style="fill:#8f8f8f"/><path d="M501.88,379.21a2.71,2.71,0,0,1,1.85.73,2.68,2.68,0,0,1,.88,1.89,2.73,2.73,0,1,1-2.73-2.62m0-.53a3.23,3.23,0,0,0-2.39,1.05,3.26,3.26,0,1,0,4.78,4.42,3.26,3.26,0,0,0-2.39-5.47Z" transform="translate(-62.5 -354.57)" style="fill:#8f8f8f"/><path d="M291.32,488H62.5V354.57H291.32ZM63,487.46H290.82V355.07H63Z" transform="translate(-62.5 -354.57)" style="fill:#c1c1c5"/><path d="M532,488H303.21V354.57H532Zm-228.32-.5H531.53V355.07H303.71Z" transform="translate(-62.5 -354.57)" style="fill:#c1c1c5"/><path d="M339.44,385.14a1,1,0,1,1-1-1A1,1,0,0,1,339.44,385.14Z" transform="translate(-62.5 -354.57)" style="fill:#3e3a39"/><path d="M341.74,381.74h.68V386a3,3,0,0,0,.5,1.93,2,2,0,0,0,1.61.59,2.61,2.61,0,0,0,1-.16,1.51,1.51,0,0,0,.66-.47,2.16,2.16,0,0,0,.36-.78,5.21,5.21,0,0,0,.11-1.11v-4.29h.68v4.49a3,3,0,0,1-.7,2.15,3.28,3.28,0,0,1-4.19,0,3.08,3.08,0,0,1-.69-2.14Z" transform="translate(-62.5 -354.57)" style="fill:#3e3a39"/><path d="M349.19,388.94v-7.2h.68v7.2Z" transform="translate(-62.5 -354.57)" style="fill:#3e3a39"/><path d="M351.45,389.84h-.56l2.35-8.29h.56Z" transform="translate(-62.5 -354.57)" style="fill:#3e3a39"/><path d="M354.52,381.74h.68V386a3,3,0,0,0,.5,1.93,2,2,0,0,0,1.61.59,2.61,2.61,0,0,0,1-.16,1.51,1.51,0,0,0,.66-.47,2.16,2.16,0,0,0,.36-.78,5.21,5.21,0,0,0,.11-1.11v-4.29h.68v4.49a3,3,0,0,1-.7,2.15,3.28,3.28,0,0,1-4.19,0,3.08,3.08,0,0,1-.69-2.14Z" transform="translate(-62.5 -354.57)" style="fill:#3e3a39"/><path d="M364,385.76l-2.09,3.18h-.77l2.48-3.7-2.38-3.5H362l2,3,2-3h.79l-2.36,3.5,2.47,3.7h-.78Z" transform="translate(-62.5 -354.57)" style="fill:#3e3a39"/><path d="M370.62,388.94v-7.2h3.05a5.54,5.54,0,0,1,.57.07,2.81,2.81,0,0,1,.54.17,2.44,2.44,0,0,1,.52.29,2.22,2.22,0,0,1,.59.63,4,4,0,0,1,.36.79,5.08,5.08,0,0,1,.19.84,5.79,5.79,0,0,1,.06.79,6.11,6.11,0,0,1-.05.73,5.4,5.4,0,0,1-.14.72,3.71,3.71,0,0,1-.27.68,2.77,2.77,0,0,1-.41.6,2.31,2.31,0,0,1-.55.45,2.81,2.81,0,0,1-.62.26,3.05,3.05,0,0,1-.67.13,5.63,5.63,0,0,1-.71,0Zm.68-.58h1.63a5.9,5.9,0,0,0,.86-.06,2.52,2.52,0,0,0,.83-.27,1.76,1.76,0,0,0,.59-.49,2.76,2.76,0,0,0,.36-.68,3.84,3.84,0,0,0,.19-.76,5.3,5.3,0,0,0,.06-.77,7.31,7.31,0,0,0-.05-.8,3.94,3.94,0,0,0-.19-.77,3,3,0,0,0-.38-.67,1.93,1.93,0,0,0-.62-.5,2.18,2.18,0,0,0-.76-.22,6.64,6.64,0,0,0-.89-.05H371.3Z" transform="translate(-62.5 -354.57)" style="fill:#3e3a39"/><path d="M378.12,386.49a2.56,2.56,0,0,0,.11.79,1.88,1.88,0,0,0,.32.65,1.49,1.49,0,0,0,.55.44,1.79,1.79,0,0,0,1.77-.14,1.54,1.54,0,0,0,.56-.88h.67a3.76,3.76,0,0,1-.29.68,2,2,0,0,1-1.09.92,2.83,2.83,0,0,1-.86.13,2.46,2.46,0,0,1-1.07-.21,2,2,0,0,1-.75-.58,2.38,2.38,0,0,1-.42-.86,3.62,3.62,0,0,1-.14-1.06,3.38,3.38,0,0,1,.16-1.07,2.74,2.74,0,0,1,.47-.88,2.19,2.19,0,0,1,.75-.59,2.26,2.26,0,0,1,1-.21,2.07,2.07,0,0,1,1.68.73,3.33,3.33,0,0,1,.6,2.14Zm3.38-.5a2.41,2.41,0,0,0-.11-.72,1.71,1.71,0,0,0-.31-.58,1.65,1.65,0,0,0-.51-.39,1.8,1.8,0,0,0-.71-.14,1.56,1.56,0,0,0-1.23.55,1.85,1.85,0,0,0-.34.58,2.32,2.32,0,0,0-.17.7Z" transform="translate(-62.5 -354.57)" style="fill:#3e3a39"/><path d="M383.66,387.32a1.49,1.49,0,0,0,.5.94,1.66,1.66,0,0,0,1,.28,1.91,1.91,0,0,0,.57-.08,1.21,1.21,0,0,0,.39-.22,1.13,1.13,0,0,0,.24-.3.94.94,0,0,0,.08-.36.68.68,0,0,0-.25-.57,1.92,1.92,0,0,0-.61-.29c-.25-.07-.52-.13-.8-.18a3.74,3.74,0,0,1-.8-.22,1.64,1.64,0,0,1-.62-.43,1.18,1.18,0,0,1-.24-.79,1.34,1.34,0,0,1,.47-1.07,2,2,0,0,1,1.35-.41,2.28,2.28,0,0,1,1.36.37,1.75,1.75,0,0,1,.64,1.26h-.61a1.17,1.17,0,0,0-.46-.85,1.7,1.7,0,0,0-.94-.24,1.37,1.37,0,0,0-.87.24.81.81,0,0,0-.3.65.63.63,0,0,0,.24.53,1.71,1.71,0,0,0,.62.3,7.11,7.11,0,0,0,.8.21,4.14,4.14,0,0,1,.8.25,1.73,1.73,0,0,1,.61.45,1.16,1.16,0,0,1,.25.78,1.39,1.39,0,0,1-.16.65,1.55,1.55,0,0,1-.44.48,2.15,2.15,0,0,1-.67.28,3.22,3.22,0,0,1-.84.1,2.31,2.31,0,0,1-.82-.14,1.65,1.65,0,0,1-.6-.37,1.67,1.67,0,0,1-.39-.56,1.83,1.83,0,0,1-.16-.69Z" transform="translate(-62.5 -354.57)" style="fill:#3e3a39"/><path d="M388.37,382.63v-.89H389v.89Zm0,6.31v-5.18h.6v5.18Z" transform="translate(-62.5 -354.57)" style="fill:#3e3a39"/><path d="M394.53,383.76h.6v4.68a4.55,4.55,0,0,1-.11,1,2.14,2.14,0,0,1-.37.84,1.86,1.86,0,0,1-.74.57,3.36,3.36,0,0,1-2.19.07,2,2,0,0,1-.67-.36,1.52,1.52,0,0,1-.4-.49,1.08,1.08,0,0,1-.14-.49h.64a1.08,1.08,0,0,0,.22.47,1,1,0,0,0,.35.29,1.66,1.66,0,0,0,.46.15,4.22,4.22,0,0,0,.52,0,2,2,0,0,0,1-.21,1.56,1.56,0,0,0,.56-.55,2.39,2.39,0,0,0,.24-.77,6.4,6.4,0,0,0,0-.88,1.86,1.86,0,0,1-.8.72,2.32,2.32,0,0,1-1.05.25,2.21,2.21,0,0,1-1-.23,2.11,2.11,0,0,1-.72-.6,2.51,2.51,0,0,1-.42-.87,3.63,3.63,0,0,1-.14-1,4.08,4.08,0,0,1,.13-1.07,2.33,2.33,0,0,1,.41-.87,2,2,0,0,1,.73-.57,2.46,2.46,0,0,1,1.07-.21,1.89,1.89,0,0,1,.51.07,1.94,1.94,0,0,1,.5.2,2,2,0,0,1,.45.33,1.67,1.67,0,0,1,.34.45h0Zm0,2.61a3.12,3.12,0,0,0-.12-.88,2.39,2.39,0,0,0-.33-.7,1.63,1.63,0,0,0-.55-.46,1.54,1.54,0,0,0-.75-.17,1.75,1.75,0,0,0-.7.13,1.6,1.6,0,0,0-.56.4,1.8,1.8,0,0,0-.38.63,2.57,2.57,0,0,0-.13.87,3,3,0,0,0,.08.91,2,2,0,0,0,.32.75,1.5,1.5,0,0,0,.56.5,1.57,1.57,0,0,0,.81.19,1.49,1.49,0,0,0,.73-.18,1.55,1.55,0,0,0,.55-.47,2,2,0,0,0,.35-.69A2.82,2.82,0,0,0,394.53,386.37Z" transform="translate(-62.5 -354.57)" style="fill:#3e3a39"/><path d="M397.24,388.94h-.61v-5.18h.61v.72a3.53,3.53,0,0,1,.74-.62,1.72,1.72,0,0,1,.93-.24,2.33,2.33,0,0,1,.88.16,1.5,1.5,0,0,1,.7.58,1.3,1.3,0,0,1,.22.57,6.06,6.06,0,0,1,0,.62v3.39h-.6v-3.38a1.52,1.52,0,0,0-.32-1.05,1.27,1.27,0,0,0-1-.35,1.7,1.7,0,0,0-.51.08,1.5,1.5,0,0,0-.41.23,1.34,1.34,0,0,0-.31.32,1.16,1.16,0,0,0-.2.38,1.69,1.69,0,0,0-.12.48c0,.15,0,.32,0,.5Z" transform="translate(-62.5 -354.57)" style="fill:#3e3a39"/><path d="M339.44,402.14a1,1,0,1,1-1-1A1,1,0,0,1,339.44,402.14Z" transform="translate(-62.5 -354.57)" style="fill:#3e3a39"/><path d="M343.13,402A5.17,5.17,0,0,0,344,402a1.57,1.57,0,0,0,.63-.21,1.1,1.1,0,0,0,.42-.41,1.36,1.36,0,0,0,.15-.67,1.26,1.26,0,0,0-.12-.57,1.1,1.1,0,0,0-.33-.38,1.32,1.32,0,0,0-.48-.22,2.12,2.12,0,0,0-.57-.07,1.52,1.52,0,0,0-.62.11,1.38,1.38,0,0,0-.78.79,1.54,1.54,0,0,0-.11.61h-.64a2.21,2.21,0,0,1,.16-.87,2.12,2.12,0,0,1,.52-.71,1.56,1.56,0,0,1,.74-.39,4.82,4.82,0,0,1,.86-.08,2.78,2.78,0,0,1,.78.1,1.92,1.92,0,0,1,.64.32,1.67,1.67,0,0,1,.43.55,1.82,1.82,0,0,1,.16.77,1.84,1.84,0,0,1-.25.95,1.62,1.62,0,0,1-.75.62,1.89,1.89,0,0,1,.62.31,2,2,0,0,1,.39.43,1.91,1.91,0,0,1,.19.5,2.92,2.92,0,0,1,.05.5,2.25,2.25,0,0,1-.15.82,2.11,2.11,0,0,1-.44.67,2.22,2.22,0,0,1-.72.46,2.6,2.6,0,0,1-1,.19,4.67,4.67,0,0,1-1.06-.11,1.76,1.76,0,0,1-.75-.37,1.66,1.66,0,0,1-.47-.67,3.42,3.42,0,0,1-.23-1h.64a1.51,1.51,0,0,0,.48,1.22,1.87,1.87,0,0,0,1.27.42,2.08,2.08,0,0,0,.71-.13,2,2,0,0,0,.56-.35,1.49,1.49,0,0,0,.36-.51,1.61,1.61,0,0,0,.12-.6,1.53,1.53,0,0,0-.2-.72,1.33,1.33,0,0,0-.49-.45,2.11,2.11,0,0,0-.71-.22,5,5,0,0,0-.87,0Z" transform="translate(-62.5 -354.57)" style="fill:#3e3a39"/><path d="M347.29,405.94v-7.2h3a5.54,5.54,0,0,1,.57.07,2.81,2.81,0,0,1,.54.17,2.44,2.44,0,0,1,.52.29,2.22,2.22,0,0,1,.59.63,4,4,0,0,1,.36.79,5.08,5.08,0,0,1,.19.84,5.79,5.79,0,0,1,.06.79,6.11,6.11,0,0,1-.05.73,5.4,5.4,0,0,1-.14.72,3.71,3.71,0,0,1-.27.68,2.77,2.77,0,0,1-.41.6,2.31,2.31,0,0,1-.55.45,2.81,2.81,0,0,1-.62.26,3.05,3.05,0,0,1-.67.13,5.63,5.63,0,0,1-.71,0Zm.68-.58h1.63a5.9,5.9,0,0,0,.86-.06,2.52,2.52,0,0,0,.83-.27,1.76,1.76,0,0,0,.59-.49,2.76,2.76,0,0,0,.36-.68,3.84,3.84,0,0,0,.19-.76,5.3,5.3,0,0,0,.06-.77,7.31,7.31,0,0,0-.05-.8,3.94,3.94,0,0,0-.19-.77,3,3,0,0,0-.38-.67,1.93,1.93,0,0,0-.62-.5,2.18,2.18,0,0,0-.76-.22,6.64,6.64,0,0,0-.89-.05H348Z" transform="translate(-62.5 -354.57)" style="fill:#3e3a39"/><path d="M356.63,405.94l2.83-7.2h.77l2.76,7.2h-.7l-.83-2.26h-3.28l-.85,2.26Zm1.78-2.84h2.82l-1.41-3.78Z" transform="translate(-62.5 -354.57)" style="fill:#3e3a39"/><path d="M364.47,405.94h-.6v-5.18h.6v.72a3.81,3.81,0,0,1,.74-.62,1.74,1.74,0,0,1,.93-.24,2.38,2.38,0,0,1,.89.16,1.52,1.52,0,0,1,.69.58,1.3,1.3,0,0,1,.22.57,6.06,6.06,0,0,1,0,.62v3.39h-.6v-3.38a1.57,1.57,0,0,0-.31-1.05,1.3,1.3,0,0,0-1-.35,1.6,1.6,0,0,0-.51.08,1.42,1.42,0,0,0-.42.23,1.34,1.34,0,0,0-.31.32,1.16,1.16,0,0,0-.2.38,1.67,1.67,0,0,0-.11.48,3.94,3.94,0,0,0,0,.5Z" transform="translate(-62.5 -354.57)" style="fill:#3e3a39"/><path d="M369.49,399.63v-.89h.66v.89Zm0,6.31v-5.18h.6v5.18Z" transform="translate(-62.5 -354.57)" style="fill:#3e3a39"/><path d="M372.17,405.94h-.6v-5.18h.6v.78h0a1.57,1.57,0,0,1,.66-.69,2,2,0,0,1,.94-.23,2.15,2.15,0,0,1,.61.08,1.38,1.38,0,0,1,.42.21,1.26,1.26,0,0,1,.29.32,2.38,2.38,0,0,1,.2.39,1.77,1.77,0,0,1,.69-.76,2,2,0,0,1,1-.24,1.81,1.81,0,0,1,.84.17,1.36,1.36,0,0,1,.49.46,1.9,1.9,0,0,1,.22.66,4.68,4.68,0,0,1,.06.76v3.27H378v-3.58a1.42,1.42,0,0,0-.24-.88,1,1,0,0,0-.87-.32,1.57,1.57,0,0,0-.64.14,1.5,1.5,0,0,0-.53.45,1,1,0,0,0-.17.3,2.24,2.24,0,0,0-.1.37,2.32,2.32,0,0,0-.06.38c0,.12,0,.24,0,.35v2.79h-.6v-3.58a1.42,1.42,0,0,0-.24-.88,1,1,0,0,0-.87-.32,1.57,1.57,0,0,0-.64.14,1.5,1.5,0,0,0-.53.45,1,1,0,0,0-.17.3,2.24,2.24,0,0,0-.1.37,2.32,2.32,0,0,0-.06.38c0,.12,0,.24,0,.35Z" transform="translate(-62.5 -354.57)" style="fill:#3e3a39"/><path d="M382.36,402.92l.4-.06a2.1,2.1,0,0,0,.39-.11.32.32,0,0,0,.18-.24,1.77,1.77,0,0,0,0-.3,1,1,0,0,0-.3-.76,1.41,1.41,0,0,0-1-.29,3.27,3.27,0,0,0-.57,0,1.27,1.27,0,0,0-.46.19,1,1,0,0,0-.32.36,1.48,1.48,0,0,0-.16.57H380a1.88,1.88,0,0,1,.21-.79,1.68,1.68,0,0,1,.46-.53,2.22,2.22,0,0,1,.66-.3,3.44,3.44,0,0,1,.8-.09,3.4,3.4,0,0,1,.73.08,1.83,1.83,0,0,1,.6.27,1.33,1.33,0,0,1,.4.5,1.72,1.72,0,0,1,.15.76v2.82c0,.23,0,.38.12.44s.25.05.51,0v.47l-.21.06a1.27,1.27,0,0,1-.26,0,1.12,1.12,0,0,1-.27,0,.53.53,0,0,1-.24-.1.65.65,0,0,1-.15-.18.56.56,0,0,1-.07-.23,1.1,1.1,0,0,1,0-.26,2.8,2.8,0,0,1-.87.64,2.68,2.68,0,0,1-1.06.22,2.39,2.39,0,0,1-.66-.09,1.68,1.68,0,0,1-.55-.28,1.37,1.37,0,0,1-.52-1.12c0-.88.6-1.4,1.81-1.56Zm1,.3a3.16,3.16,0,0,1-.77.21l-.78.08a2.23,2.23,0,0,0-1.08.31.87.87,0,0,0-.38.79.86.86,0,0,0,.09.41.79.79,0,0,0,.25.29.86.86,0,0,0,.36.17,1.52,1.52,0,0,0,.42.06,2.74,2.74,0,0,0,.7-.09,1.83,1.83,0,0,0,.6-.28,1.39,1.39,0,0,0,.43-.47,1.41,1.41,0,0,0,.16-.67Z" transform="translate(-62.5 -354.57)" style="fill:#3e3a39"/><path d="M387.36,406a1.48,1.48,0,0,0-.29.07,1.68,1.68,0,0,1-.4.05,1,1,0,0,1-.69-.23,1.06,1.06,0,0,1-.23-.8v-3.79H385v-.5h.73v-1.44h.6v1.44h1v.5h-1v3.55c0,.13,0,.23,0,.33a.41.41,0,0,0,.06.23.28.28,0,0,0,.15.13,1.08,1.08,0,0,0,.3,0l.24,0,.25,0Z" transform="translate(-62.5 -354.57)" style="fill:#3e3a39"/><path d="M388.38,399.63v-.89H389v.89Zm0,6.31v-5.18h.6v5.18Z" transform="translate(-62.5 -354.57)" style="fill:#3e3a39"/><path d="M392.6,406.08a2.86,2.86,0,0,1-.94-.18,2.19,2.19,0,0,1-1.27-1.36,3.34,3.34,0,0,1-.19-1.19,3.69,3.69,0,0,1,.15-1.07,2.43,2.43,0,0,1,.45-.86,2.19,2.19,0,0,1,.75-.59,2.46,2.46,0,0,1,1.05-.21,2.51,2.51,0,0,1,1.06.21,2.29,2.29,0,0,1,.75.58,2.46,2.46,0,0,1,.44.87,3.69,3.69,0,0,1,.15,1.07,3.6,3.6,0,0,1-.17,1.12,2.68,2.68,0,0,1-.49.86,2.09,2.09,0,0,1-.76.55A2.42,2.42,0,0,1,392.6,406.08Zm1.76-2.73a3.83,3.83,0,0,0-.1-.86,2.36,2.36,0,0,0-.31-.7,1.6,1.6,0,0,0-.54-.46,2,2,0,0,0-1.62,0,1.7,1.7,0,0,0-.54.49,2.11,2.11,0,0,0-.31.7,3.24,3.24,0,0,0-.11.82,3.07,3.07,0,0,0,.12.88,2.17,2.17,0,0,0,.34.7,1.57,1.57,0,0,0,.54.45,1.89,1.89,0,0,0,.77.16,1.55,1.55,0,0,0,.8-.19,1.62,1.62,0,0,0,.55-.49,2.61,2.61,0,0,0,.31-.7A3.59,3.59,0,0,0,394.36,403.35Z" transform="translate(-62.5 -354.57)" style="fill:#3e3a39"/><path d="M396.7,405.94h-.61v-5.18h.61v.72a3.53,3.53,0,0,1,.74-.62,1.72,1.72,0,0,1,.93-.24,2.33,2.33,0,0,1,.88.16,1.5,1.5,0,0,1,.7.58,1.3,1.3,0,0,1,.22.57,6.06,6.06,0,0,1,0,.62v3.39h-.6v-3.38a1.52,1.52,0,0,0-.32-1.05,1.27,1.27,0,0,0-1-.35,1.7,1.7,0,0,0-.51.08,1.5,1.5,0,0,0-.41.23,1.34,1.34,0,0,0-.31.32,1.16,1.16,0,0,0-.2.38,1.69,1.69,0,0,0-.12.48c0,.15,0,.32,0,.5Z" transform="translate(-62.5 -354.57)" style="fill:#3e3a39"/><path d="M339.44,419.14a1,1,0,1,1-1-1A1,1,0,0,1,339.44,419.14Z" transform="translate(-62.5 -354.57)" style="fill:#3e3a39"/><path d="M341.61,418.2a2.63,2.63,0,0,1,.16-.95,2.06,2.06,0,0,1,.46-.73,2.09,2.09,0,0,1,.72-.47,2.59,2.59,0,0,1,.95-.16,2.67,2.67,0,0,1,.93.15,2,2,0,0,1,.68.42,1.79,1.79,0,0,1,.42.62,2.18,2.18,0,0,1,0,1.59,2.26,2.26,0,0,1-.41.64,3.54,3.54,0,0,1-.58.5l-.66.41-.67.38a3.74,3.74,0,0,0-.59.38,3,3,0,0,0-.33.27,1.75,1.75,0,0,0-.29.32,1.36,1.36,0,0,0-.21.37,1.14,1.14,0,0,0-.09.46H346v.54H341.4a3.68,3.68,0,0,1,.11-.92,1.78,1.78,0,0,1,.44-.8,5.1,5.1,0,0,1,.76-.72,9.13,9.13,0,0,1,.78-.54l.72-.43a4.55,4.55,0,0,0,.6-.42,2,2,0,0,0,.41-.52,1.52,1.52,0,0,0,.15-.71,1.48,1.48,0,0,0-.12-.61,1.39,1.39,0,0,0-.33-.46,1.51,1.51,0,0,0-.49-.29,2,2,0,0,0-.61-.09,1.47,1.47,0,0,0-.64.14,1.69,1.69,0,0,0-.49.39,1.61,1.61,0,0,0-.31.56,1.54,1.54,0,0,0-.09.68Z" transform="translate(-62.5 -354.57)" style="fill:#3e3a39"/><path d="M347.29,422.94v-7.2h3a5.54,5.54,0,0,1,.57.07,2.81,2.81,0,0,1,.54.17,2.44,2.44,0,0,1,.52.29,2.22,2.22,0,0,1,.59.63,4,4,0,0,1,.36.79,5.08,5.08,0,0,1,.19.84,5.79,5.79,0,0,1,.06.79,6.11,6.11,0,0,1-.05.73,5.4,5.4,0,0,1-.14.72,3.71,3.71,0,0,1-.27.68,2.77,2.77,0,0,1-.41.6,2.58,2.58,0,0,1-.55.45,2.81,2.81,0,0,1-.62.26,3.05,3.05,0,0,1-.67.13,5.63,5.63,0,0,1-.71,0Zm.68-.58h1.63a5.9,5.9,0,0,0,.86-.06,2.52,2.52,0,0,0,.83-.27,1.76,1.76,0,0,0,.59-.49,2.76,2.76,0,0,0,.36-.68,3.84,3.84,0,0,0,.19-.76,5.3,5.3,0,0,0,.06-.77,7.31,7.31,0,0,0-.05-.8,3.94,3.94,0,0,0-.19-.77,3,3,0,0,0-.38-.67,1.93,1.93,0,0,0-.62-.5,2.18,2.18,0,0,0-.76-.22,6.64,6.64,0,0,0-.89-.05H348Z" transform="translate(-62.5 -354.57)" style="fill:#3e3a39"/><path d="M356.63,422.94l2.83-7.2h.77l2.76,7.2h-.7l-.83-2.26h-3.28l-.85,2.26Zm1.78-2.84h2.82l-1.41-3.78Z" transform="translate(-62.5 -354.57)" style="fill:#3e3a39"/><path d="M364.47,422.94h-.6v-5.18h.6v.72a3.81,3.81,0,0,1,.74-.62,1.74,1.74,0,0,1,.93-.24,2.38,2.38,0,0,1,.89.16,1.52,1.52,0,0,1,.69.58,1.3,1.3,0,0,1,.22.57,6.06,6.06,0,0,1,0,.62v3.39h-.6v-3.38a1.57,1.57,0,0,0-.31-1.05,1.3,1.3,0,0,0-1-.35,1.6,1.6,0,0,0-.51.08,1.42,1.42,0,0,0-.42.23,1.34,1.34,0,0,0-.31.32,1.16,1.16,0,0,0-.2.38,1.67,1.67,0,0,0-.11.48,3.94,3.94,0,0,0,0,.5Z" transform="translate(-62.5 -354.57)" style="fill:#3e3a39"/><path d="M369.49,416.63v-.89h.66v.89Zm0,6.31v-5.18h.6v5.18Z" transform="translate(-62.5 -354.57)" style="fill:#3e3a39"/><path d="M372.17,422.94h-.6v-5.18h.6v.78h0a1.57,1.57,0,0,1,.66-.69,2,2,0,0,1,.94-.23,2.15,2.15,0,0,1,.61.08,1.38,1.38,0,0,1,.42.21,1.26,1.26,0,0,1,.29.32,2.38,2.38,0,0,1,.2.39,1.77,1.77,0,0,1,.69-.76,2,2,0,0,1,1-.24,1.81,1.81,0,0,1,.84.17,1.36,1.36,0,0,1,.49.46,1.9,1.9,0,0,1,.22.66,4.68,4.68,0,0,1,.06.76v3.27H378v-3.58a1.42,1.42,0,0,0-.24-.88,1,1,0,0,0-.87-.32,1.57,1.57,0,0,0-.64.14,1.5,1.5,0,0,0-.53.45,1,1,0,0,0-.17.3,2.24,2.24,0,0,0-.1.37,2.32,2.32,0,0,0-.06.38c0,.12,0,.24,0,.35v2.79h-.6v-3.58a1.42,1.42,0,0,0-.24-.88,1,1,0,0,0-.87-.32,1.57,1.57,0,0,0-.64.14,1.5,1.5,0,0,0-.53.45,1,1,0,0,0-.17.3,2.24,2.24,0,0,0-.1.37,2.32,2.32,0,0,0-.06.38c0,.12,0,.24,0,.35Z" transform="translate(-62.5 -354.57)" style="fill:#3e3a39"/><path d="M382.36,419.92l.4-.06a2.1,2.1,0,0,0,.39-.11.32.32,0,0,0,.18-.24,1.77,1.77,0,0,0,0-.3,1,1,0,0,0-.3-.76,1.41,1.41,0,0,0-1-.29,3.27,3.27,0,0,0-.57,0,1.27,1.27,0,0,0-.46.19,1,1,0,0,0-.32.36,1.48,1.48,0,0,0-.16.57H380a1.88,1.88,0,0,1,.21-.79,1.68,1.68,0,0,1,.46-.53,2.22,2.22,0,0,1,.66-.3,3.44,3.44,0,0,1,.8-.09,3.4,3.4,0,0,1,.73.08,1.83,1.83,0,0,1,.6.27,1.33,1.33,0,0,1,.4.5,1.72,1.72,0,0,1,.15.76v2.82c0,.23,0,.38.12.44s.25.05.51,0v.47l-.21.06a1.27,1.27,0,0,1-.26,0,1.12,1.12,0,0,1-.27,0,.53.53,0,0,1-.24-.1.65.65,0,0,1-.15-.18.56.56,0,0,1-.07-.23,1.1,1.1,0,0,1,0-.26,2.8,2.8,0,0,1-.87.64,2.68,2.68,0,0,1-1.06.22,2.39,2.39,0,0,1-.66-.09,1.68,1.68,0,0,1-.55-.28,1.37,1.37,0,0,1-.52-1.12c0-.88.6-1.4,1.81-1.56Zm1,.3a3.16,3.16,0,0,1-.77.21l-.78.08a2.23,2.23,0,0,0-1.08.31.87.87,0,0,0-.38.79.86.86,0,0,0,.09.41.79.79,0,0,0,.25.29.86.86,0,0,0,.36.17,1.52,1.52,0,0,0,.42.06,2.74,2.74,0,0,0,.7-.09,1.83,1.83,0,0,0,.6-.28,1.39,1.39,0,0,0,.43-.47,1.41,1.41,0,0,0,.16-.67Z" transform="translate(-62.5 -354.57)" style="fill:#3e3a39"/><path d="M387.36,423a1.48,1.48,0,0,0-.29.07,1.68,1.68,0,0,1-.4.05,1,1,0,0,1-.69-.23,1.08,1.08,0,0,1-.23-.8v-3.79H385v-.5h.73v-1.44h.6v1.44h1v.5h-1v3.55c0,.13,0,.23,0,.33a.41.41,0,0,0,.06.23.28.28,0,0,0,.15.13,1.08,1.08,0,0,0,.3,0l.24,0,.25,0Z" transform="translate(-62.5 -354.57)" style="fill:#3e3a39"/><path d="M388.38,416.63v-.89H389v.89Zm0,6.31v-5.18h.6v5.18Z" transform="translate(-62.5 -354.57)" style="fill:#3e3a39"/><path d="M392.6,423.08a2.86,2.86,0,0,1-.94-.18,2.19,2.19,0,0,1-1.27-1.36,3.34,3.34,0,0,1-.19-1.19,3.69,3.69,0,0,1,.15-1.07,2.43,2.43,0,0,1,.45-.86,2.19,2.19,0,0,1,.75-.59,2.46,2.46,0,0,1,1.05-.21,2.51,2.51,0,0,1,1.06.21,2.29,2.29,0,0,1,.75.58,2.46,2.46,0,0,1,.44.87,3.69,3.69,0,0,1,.15,1.07,3.6,3.6,0,0,1-.17,1.12,2.68,2.68,0,0,1-.49.86,2.09,2.09,0,0,1-.76.55A2.42,2.42,0,0,1,392.6,423.08Zm1.76-2.73a3.83,3.83,0,0,0-.1-.86,2.36,2.36,0,0,0-.31-.7,1.6,1.6,0,0,0-.54-.46,2,2,0,0,0-1.62,0,1.7,1.7,0,0,0-.54.49,2.11,2.11,0,0,0-.31.7,3.24,3.24,0,0,0-.11.82,3.07,3.07,0,0,0,.12.88,2.17,2.17,0,0,0,.34.7,1.57,1.57,0,0,0,.54.45,1.89,1.89,0,0,0,.77.16,1.55,1.55,0,0,0,.8-.19,1.62,1.62,0,0,0,.55-.49,2.61,2.61,0,0,0,.31-.7A3.59,3.59,0,0,0,394.36,420.35Z" transform="translate(-62.5 -354.57)" style="fill:#3e3a39"/><path d="M396.7,422.94h-.61v-5.18h.61v.72a3.53,3.53,0,0,1,.74-.62,1.72,1.72,0,0,1,.93-.24,2.33,2.33,0,0,1,.88.16,1.5,1.5,0,0,1,.7.58,1.3,1.3,0,0,1,.22.57,6.06,6.06,0,0,1,0,.62v3.39h-.6v-3.38a1.52,1.52,0,0,0-.32-1.05,1.27,1.27,0,0,0-1-.35,1.7,1.7,0,0,0-.51.08,1.5,1.5,0,0,0-.41.23,1.34,1.34,0,0,0-.31.32,1.16,1.16,0,0,0-.2.38,1.69,1.69,0,0,0-.12.48c0,.15,0,.32,0,.5Z" transform="translate(-62.5 -354.57)" style="fill:#3e3a39"/><path d="M339.44,436.14a1,1,0,1,1-1-1A1,1,0,0,1,339.44,436.14Z" transform="translate(-62.5 -354.57)" style="fill:#3e3a39"/><path d="M341.72,439.94v-7.2h.68v3.09h4.26v-3.09h.68v7.2h-.68v-3.53H342.4v3.53Z" transform="translate(-62.5 -354.57)" style="fill:#3e3a39"/><path d="M348.3,432.74h5.24v.58h-2.28v6.62h-.68v-6.62H348.3Z" transform="translate(-62.5 -354.57)" style="fill:#3e3a39"/><path d="M357.26,439.94v-7.2h1l2.36,6.35h0l2.32-6.35h1v7.2h-.68v-6.42h0L361,439.94h-.64L358,433.52h0v6.42Z" transform="translate(-62.5 -354.57)" style="fill:#3e3a39"/><path d="M365.62,439.94v-7.2h.68v6.62h3.86v.58Z" transform="translate(-62.5 -354.57)" style="fill:#3e3a39"/><path d="M370.9,440.84h-.56l2.35-8.29h.56Z" transform="translate(-62.5 -354.57)" style="fill:#3e3a39"/><path d="M379.07,434.83a2,2,0,0,0-.78-1.31,2.6,2.6,0,0,0-1.49-.39,2.18,2.18,0,0,0-1.12.26,2.1,2.1,0,0,0-.78.7,3.21,3.21,0,0,0-.45,1,4.86,4.86,0,0,0-.14,1.22,5.83,5.83,0,0,0,.12,1.18,2.94,2.94,0,0,0,.42,1,2.13,2.13,0,0,0,.78.74,2.49,2.49,0,0,0,1.23.28,2.32,2.32,0,0,0,.84-.15,2.06,2.06,0,0,0,.66-.42,2.29,2.29,0,0,0,.48-.62,3.4,3.4,0,0,0,.3-.79h.71a4.76,4.76,0,0,1-.35,1,3.08,3.08,0,0,1-.61.82,2.67,2.67,0,0,1-.91.55,3.41,3.41,0,0,1-1.25.21,3,3,0,0,1-1.42-.31,2.68,2.68,0,0,1-1-.82,3.42,3.42,0,0,1-.54-1.21,5.65,5.65,0,0,1-.17-1.45,5.27,5.27,0,0,1,.25-1.75,3.21,3.21,0,0,1,.71-1.18,2.72,2.72,0,0,1,1.06-.66,4.31,4.31,0,0,1,1.33-.2,3.75,3.75,0,0,1,1,.14,2.41,2.41,0,0,1,.84.44,2.44,2.44,0,0,1,.6.71,3,3,0,0,1,.33,1Z" transform="translate(-62.5 -354.57)" style="fill:#3e3a39"/><path d="M381.46,437.79a1.93,1.93,0,0,0,.21.81,1.65,1.65,0,0,0,.45.55,1.75,1.75,0,0,0,.63.3,2.83,2.83,0,0,0,.78.1,2.59,2.59,0,0,0,.83-.12,1.46,1.46,0,0,0,.56-.33,1.18,1.18,0,0,0,.33-.47,1.56,1.56,0,0,0,.11-.57,1.17,1.17,0,0,0-.19-.68,1.49,1.49,0,0,0-.5-.43,2.75,2.75,0,0,0-.7-.26l-.81-.2c-.28-.06-.55-.14-.81-.22a2.86,2.86,0,0,1-.7-.35,1.69,1.69,0,0,1-.49-.57,1.75,1.75,0,0,1-.2-.87,1.8,1.8,0,0,1,.16-.72,1.73,1.73,0,0,1,.46-.62,2.12,2.12,0,0,1,.77-.43,3.07,3.07,0,0,1,1.06-.16,2.88,2.88,0,0,1,1.06.17,2.21,2.21,0,0,1,.76.46,1.94,1.94,0,0,1,.44.69,2.08,2.08,0,0,1,.16.83h-.66A1.55,1.55,0,0,0,385,434a1.29,1.29,0,0,0-.4-.49,1.55,1.55,0,0,0-.56-.28,2.66,2.66,0,0,0-1.54,0,1.58,1.58,0,0,0-.57.38,1.44,1.44,0,0,0-.29.51,1.18,1.18,0,0,0,0,.56,1,1,0,0,0,.27.56,1.84,1.84,0,0,0,.54.34,3.69,3.69,0,0,0,.71.22l.79.18c.26.07.52.14.77.23a2.25,2.25,0,0,1,.67.35,1.59,1.59,0,0,1,.46.56,2.12,2.12,0,0,1-.51,2.42,3.11,3.11,0,0,1-1.94.55,3.44,3.44,0,0,1-1-.15,2.07,2.07,0,0,1-.83-.44,1.91,1.91,0,0,1-.55-.73,2.47,2.47,0,0,1-.2-1Z" transform="translate(-62.5 -354.57)" style="fill:#3e3a39"/><path d="M387.57,437.79a1.93,1.93,0,0,0,.21.81,1.65,1.65,0,0,0,.45.55,1.72,1.72,0,0,0,.64.3,2.71,2.71,0,0,0,.77.1,2.59,2.59,0,0,0,.83-.12,1.59,1.59,0,0,0,.57-.33,1.27,1.27,0,0,0,.32-.47,1.56,1.56,0,0,0,.11-.57,1.17,1.17,0,0,0-.19-.68,1.49,1.49,0,0,0-.5-.43,2.75,2.75,0,0,0-.7-.26l-.81-.2c-.28-.06-.55-.14-.81-.22a2.86,2.86,0,0,1-.7-.35,1.69,1.69,0,0,1-.49-.57,1.75,1.75,0,0,1-.19-.87,1.79,1.79,0,0,1,.15-.72,1.73,1.73,0,0,1,.46-.62,2.12,2.12,0,0,1,.77-.43,3.11,3.11,0,0,1,1.06-.16,2.88,2.88,0,0,1,1.06.17,2.21,2.21,0,0,1,.76.46,2,2,0,0,1,.45.69,2.27,2.27,0,0,1,.15.83h-.65a1.55,1.55,0,0,0-.15-.71,1.37,1.37,0,0,0-.39-.49,1.69,1.69,0,0,0-.57-.28,2.66,2.66,0,0,0-1.54,0,1.46,1.46,0,0,0-.56.38,1.19,1.19,0,0,0-.29.51,1.06,1.06,0,0,0,0,.56,1,1,0,0,0,.28.56,1.61,1.61,0,0,0,.54.34,3.38,3.38,0,0,0,.7.22l.79.18c.26.07.52.14.77.23a2.25,2.25,0,0,1,.67.35,1.59,1.59,0,0,1,.46.56,2.12,2.12,0,0,1-.51,2.42,3.09,3.09,0,0,1-1.94.55,3.44,3.44,0,0,1-1-.15,2.14,2.14,0,0,1-.83-.44,1.91,1.91,0,0,1-.55-.73,2.48,2.48,0,0,1-.19-1Z" transform="translate(-62.5 -354.57)" style="fill:#3e3a39"/><path d="M393.12,440.84h-.56l2.35-8.29h.56Z" transform="translate(-62.5 -354.57)" style="fill:#3e3a39"/><path d="M396.27,437.66c0,.22,0,.45,0,.67a1.76,1.76,0,0,0,.15.59,1,1,0,0,0,.39.43,1.51,1.51,0,0,0,.74.16,1.14,1.14,0,0,0,1-.4,2,2,0,0,0,.28-1.16v-5.21h.69V438a2.37,2.37,0,0,1-.49,1.6,2,2,0,0,1-1.54.56,2,2,0,0,1-1-.21,1.51,1.51,0,0,1-.57-.55,2,2,0,0,1-.27-.79,5.43,5.43,0,0,1-.08-.92Z" transform="translate(-62.5 -354.57)" style="fill:#3e3a39"/><path d="M403.46,436.92l.41-.06a1.77,1.77,0,0,0,.38-.11.31.31,0,0,0,.19-.24,1.77,1.77,0,0,0,0-.3,1,1,0,0,0-.3-.76,1.41,1.41,0,0,0-1-.29,3.27,3.27,0,0,0-.57,0,1.27,1.27,0,0,0-.46.19,1,1,0,0,0-.32.36,1.67,1.67,0,0,0-.17.57h-.6a1.74,1.74,0,0,1,.21-.79,1.68,1.68,0,0,1,.46-.53,2.22,2.22,0,0,1,.66-.3,3.44,3.44,0,0,1,.8-.09,3.4,3.4,0,0,1,.73.08,1.83,1.83,0,0,1,.6.27,1.33,1.33,0,0,1,.4.5,1.72,1.72,0,0,1,.15.76v2.82c0,.23,0,.38.12.44s.25.05.51,0v.47l-.21.06a1.05,1.05,0,0,1-.54,0,.54.54,0,0,1-.23-.1.65.65,0,0,1-.15-.18.78.78,0,0,1-.08-.23,2.17,2.17,0,0,1,0-.26,2.8,2.8,0,0,1-.87.64,2.68,2.68,0,0,1-1.06.22,2.39,2.39,0,0,1-.66-.09,1.59,1.59,0,0,1-.55-.28,1.49,1.49,0,0,1-.39-.47,1.45,1.45,0,0,1-.13-.65q0-1.32,1.8-1.56Zm1,.3a3.85,3.85,0,0,1-.77.21l-.79.08a2.09,2.09,0,0,0-1.07.31.87.87,0,0,0-.39.79.86.86,0,0,0,.1.41.79.79,0,0,0,.25.29.86.86,0,0,0,.36.17,1.51,1.51,0,0,0,.41.06,2.76,2.76,0,0,0,.71-.09,1.83,1.83,0,0,0,.6-.28,1.39,1.39,0,0,0,.43-.47,1.41,1.41,0,0,0,.16-.67Z" transform="translate(-62.5 -354.57)" style="fill:#3e3a39"/><path d="M406.1,434.76h.65l1.68,4.44,1.68-4.44h.65l-2,5.18h-.67Z" transform="translate(-62.5 -354.57)" style="fill:#3e3a39"/><path d="M414,436.92l.4-.06a2.1,2.1,0,0,0,.39-.11.32.32,0,0,0,.18-.24,1.77,1.77,0,0,0,0-.3,1,1,0,0,0-.3-.76,1.41,1.41,0,0,0-1-.29,3.27,3.27,0,0,0-.57,0,1.27,1.27,0,0,0-.46.19,1,1,0,0,0-.32.36,1.48,1.48,0,0,0-.16.57h-.61a1.88,1.88,0,0,1,.21-.79,1.68,1.68,0,0,1,.46-.53,2.22,2.22,0,0,1,.66-.3,3.44,3.44,0,0,1,.8-.09,3.4,3.4,0,0,1,.73.08,1.83,1.83,0,0,1,.6.27,1.33,1.33,0,0,1,.4.5,1.72,1.72,0,0,1,.15.76v2.82c0,.23,0,.38.12.44s.25.05.51,0v.47l-.21.06a1.27,1.27,0,0,1-.26,0,1.12,1.12,0,0,1-.27,0,.53.53,0,0,1-.24-.1.65.65,0,0,1-.15-.18.56.56,0,0,1-.07-.23,1.1,1.1,0,0,1,0-.26,2.8,2.8,0,0,1-.87.64,2.68,2.68,0,0,1-1.06.22,2.39,2.39,0,0,1-.66-.09,1.68,1.68,0,0,1-.55-.28,1.37,1.37,0,0,1-.52-1.12c0-.88.6-1.4,1.81-1.56Zm1,.3a3.68,3.68,0,0,1-.77.21l-.78.08a2.13,2.13,0,0,0-1.08.31.87.87,0,0,0-.38.79.86.86,0,0,0,.09.41.79.79,0,0,0,.25.29.86.86,0,0,0,.36.17,1.52,1.52,0,0,0,.42.06,2.74,2.74,0,0,0,.7-.09,1.83,1.83,0,0,0,.6-.28,1.39,1.39,0,0,0,.43-.47A1.41,1.41,0,0,0,415,438Z" transform="translate(-62.5 -354.57)" style="fill:#3e3a39"/><path d="M417.56,438.32a1.51,1.51,0,0,0,.5.94,1.66,1.66,0,0,0,1.05.28,1.91,1.91,0,0,0,.57-.08,1.32,1.32,0,0,0,.39-.22,1.13,1.13,0,0,0,.24-.3.94.94,0,0,0,.08-.36.68.68,0,0,0-.25-.57,1.92,1.92,0,0,0-.61-.29c-.25-.07-.52-.13-.8-.18a3.74,3.74,0,0,1-.8-.22,1.64,1.64,0,0,1-.62-.43,1.18,1.18,0,0,1-.24-.79,1.34,1.34,0,0,1,.47-1.07,2,2,0,0,1,1.35-.41,2.28,2.28,0,0,1,1.36.37,1.75,1.75,0,0,1,.64,1.26h-.61a1.17,1.17,0,0,0-.46-.85,1.73,1.73,0,0,0-.94-.24,1.42,1.42,0,0,0-.88.24.83.83,0,0,0-.29.65.63.63,0,0,0,.24.53,1.71,1.71,0,0,0,.62.3,7.11,7.11,0,0,0,.8.21,4.14,4.14,0,0,1,.8.25,1.73,1.73,0,0,1,.61.45,1.14,1.14,0,0,1,.25.78,1.39,1.39,0,0,1-.16.65,1.55,1.55,0,0,1-.44.48,2.15,2.15,0,0,1-.67.28,3.22,3.22,0,0,1-.84.1,2.31,2.31,0,0,1-.82-.14,1.65,1.65,0,0,1-.6-.37,1.67,1.67,0,0,1-.39-.56,1.83,1.83,0,0,1-.16-.69Z" transform="translate(-62.5 -354.57)" style="fill:#3e3a39"/><path d="M425.88,436.39a1.85,1.85,0,0,0-.55-.91,1.54,1.54,0,0,0-1-.32,1.57,1.57,0,0,0-.79.19,1.71,1.71,0,0,0-.54.5,2.37,2.37,0,0,0-.3.71,3.13,3.13,0,0,0-.1.8,3.57,3.57,0,0,0,.09.8,2.11,2.11,0,0,0,.31.7,1.59,1.59,0,0,0,.54.49,1.49,1.49,0,0,0,.79.19,1.57,1.57,0,0,0,1.08-.37,1.78,1.78,0,0,0,.52-1h.64a3.11,3.11,0,0,1-.26.78,2.15,2.15,0,0,1-.45.61,2,2,0,0,1-.65.4,2.66,2.66,0,0,1-.88.14,2.47,2.47,0,0,1-1.06-.21,1.94,1.94,0,0,1-.74-.58,2.25,2.25,0,0,1-.43-.86,3.74,3.74,0,0,1-.14-1.07,3.58,3.58,0,0,1,.15-1,2.59,2.59,0,0,1,.46-.87,2.09,2.09,0,0,1,.74-.61,2.25,2.25,0,0,1,1-.22,2.29,2.29,0,0,1,1.46.43,2,2,0,0,1,.7,1.34Z" transform="translate(-62.5 -354.57)" style="fill:#3e3a39"/><path d="M428.4,439.94h-.6v-5.18h.6v1h0a1.73,1.73,0,0,1,.64-.87,2,2,0,0,1,1.05-.24v.65a1.64,1.64,0,0,0-.84.16,1.32,1.32,0,0,0-.53.46,1.8,1.8,0,0,0-.27.68,4.5,4.5,0,0,0-.07.83Z" transform="translate(-62.5 -354.57)" style="fill:#3e3a39"/><path d="M431.16,433.63v-.89h.66v.89Zm0,6.31v-5.18h.61v5.18Z" transform="translate(-62.5 -354.57)" style="fill:#3e3a39"/><path d="M434,442h-.6v-7.22h.6v.91h0a1.45,1.45,0,0,1,.33-.45,1.73,1.73,0,0,1,.45-.33,1.87,1.87,0,0,1,.51-.2,1.79,1.79,0,0,1,.51-.07,2.49,2.49,0,0,1,1.07.21,2,2,0,0,1,.72.57,2.43,2.43,0,0,1,.42.87,4.54,4.54,0,0,1,.13,1.07,4,4,0,0,1-.14,1,2.72,2.72,0,0,1-.43.87,2.11,2.11,0,0,1-.72.6,2.19,2.19,0,0,1-1,.23,2.33,2.33,0,0,1-1.06-.25,1.78,1.78,0,0,1-.79-.72Zm0-4.61a2.82,2.82,0,0,0,.12.83,2,2,0,0,0,.34.69,1.55,1.55,0,0,0,.55.47,1.5,1.5,0,0,0,.74.18,1.64,1.64,0,0,0,1.37-.69,2.43,2.43,0,0,0,.32-.75,3.81,3.81,0,0,0,.08-.91,2.56,2.56,0,0,0-.14-.87,1.78,1.78,0,0,0-.37-.63,1.56,1.56,0,0,0-.56-.4,1.82,1.82,0,0,0-.7-.13,1.58,1.58,0,0,0-1.3.63,2.17,2.17,0,0,0-.34.7A3.08,3.08,0,0,0,434,437.37Z" transform="translate(-62.5 -354.57)" style="fill:#3e3a39"/><path d="M441.25,440a1.48,1.48,0,0,0-.29.07,1.77,1.77,0,0,1-.41.05,1,1,0,0,1-.68-.23,1.08,1.08,0,0,1-.24-.8v-3.79h-.72v-.5h.72v-1.44h.61v1.44h1v.5h-1v3.55c0,.12,0,.23,0,.33a.52.52,0,0,0,.05.23.34.34,0,0,0,.16.13,1.06,1.06,0,0,0,.29,0l.25,0,.25,0Z" transform="translate(-62.5 -354.57)" style="fill:#3e3a39"/><path d="M442,440.84h-.56l2.35-8.29h.56Z" transform="translate(-62.5 -354.57)" style="fill:#3e3a39"/><path d="M445.05,439.94v-7.2h2.63a3.43,3.43,0,0,1,1.15.16,1.73,1.73,0,0,1,.72.44,1.48,1.48,0,0,1,.37.64,2.81,2.81,0,0,1,.11.77,1.86,1.86,0,0,1-.25,1,1.75,1.75,0,0,1-.63.61,2.77,2.77,0,0,1-.89.32,5.52,5.52,0,0,1-1,.09h-1.54v3.18Zm2.24-3.76a5.61,5.61,0,0,0,.86-.06,1.73,1.73,0,0,0,.64-.23,1.11,1.11,0,0,0,.41-.45,1.6,1.6,0,0,0,.15-.74,1.21,1.21,0,0,0-.45-1,2.25,2.25,0,0,0-1.41-.35h-1.76v2.86Z" transform="translate(-62.5 -354.57)" style="fill:#3e3a39"/><path d="M451.17,439.94v-7.2h.69v3.09h4.26v-3.09h.67v7.2h-.67v-3.53h-4.26v3.53Z" transform="translate(-62.5 -354.57)" style="fill:#3e3a39"/><path d="M458.38,439.94v-7.2H461a3.45,3.45,0,0,1,1.16.16,1.73,1.73,0,0,1,.72.44,1.48,1.48,0,0,1,.37.64,2.8,2.8,0,0,1,.1.77,1.86,1.86,0,0,1-.24,1,1.78,1.78,0,0,1-.64.61,2.71,2.71,0,0,1-.88.32,5.55,5.55,0,0,1-1,.09h-1.54v3.18Zm2.23-3.76a5.52,5.52,0,0,0,.86-.06,1.72,1.72,0,0,0,.65-.23,1.11,1.11,0,0,0,.41-.45,1.6,1.6,0,0,0,.14-.74,1.21,1.21,0,0,0-.44-1,2.27,2.27,0,0,0-1.42-.35h-1.76v2.86Z" transform="translate(-62.5 -354.57)" style="fill:#3e3a39"/><path d="M464.24,440.84h-.57l2.36-8.29h.55Z" transform="translate(-62.5 -354.57)" style="fill:#3e3a39"/><path d="M466.67,432.74h.71l2.16,6.4,2.17-6.4h.71l-2.5,7.2h-.75Z" transform="translate(-62.5 -354.57)" style="fill:#3e3a39"/><path d="M476.83,434.76h.59v5.18h-.59v-.72l-.28.29a1.56,1.56,0,0,1-.34.27,1.5,1.5,0,0,1-.46.21,1.8,1.8,0,0,1-.6.09,2.17,2.17,0,0,1-.86-.15,1.34,1.34,0,0,1-.57-.4,1.68,1.68,0,0,1-.31-.61,3,3,0,0,1-.1-.75v-3.41h.61v3.4a1.53,1.53,0,0,0,.3,1,1.3,1.3,0,0,0,1,.36,1.45,1.45,0,0,0,.66-.15,1.28,1.28,0,0,0,.49-.4,1.81,1.81,0,0,0,.31-.62,2.52,2.52,0,0,0,.12-.79Z" transform="translate(-62.5 -354.57)" style="fill:#3e3a39"/><path d="M479.25,437.49a2.56,2.56,0,0,0,.11.79,1.88,1.88,0,0,0,.32.65,1.41,1.41,0,0,0,.55.44,1.67,1.67,0,0,0,.76.17,1.73,1.73,0,0,0,1-.31,1.54,1.54,0,0,0,.56-.88h.67a3.76,3.76,0,0,1-.29.68,2,2,0,0,1-1.09.92,2.83,2.83,0,0,1-.86.13,2.46,2.46,0,0,1-1.07-.21,2,2,0,0,1-.75-.58,2.38,2.38,0,0,1-.42-.86,3.62,3.62,0,0,1-.14-1.06,3.38,3.38,0,0,1,.16-1.07,2.74,2.74,0,0,1,.47-.88,2.19,2.19,0,0,1,.75-.59,2.26,2.26,0,0,1,1-.21,2.07,2.07,0,0,1,1.68.73,3.31,3.31,0,0,1,.6,2.14Zm3.37-.5a2.41,2.41,0,0,0-.1-.72,1.71,1.71,0,0,0-.31-.58,1.65,1.65,0,0,0-.51-.39,1.8,1.8,0,0,0-.71-.14,1.56,1.56,0,0,0-1.23.55,1.85,1.85,0,0,0-.34.58,2.32,2.32,0,0,0-.17.7Z" transform="translate(-62.5 -354.57)" style="fill:#3e3a39"/><path d="M484.73,439.94v-.88h.73v.88Z" transform="translate(-62.5 -354.57)" style="fill:#3e3a39"/><path d="M488,434.76v5.87c0,.22,0,.41,0,.58a1.22,1.22,0,0,1-.14.42.57.57,0,0,1-.31.26,1.46,1.46,0,0,1-.56.09,2.35,2.35,0,0,1-.4,0v-.53a1.45,1.45,0,0,0,.42,0,.37.37,0,0,0,.25-.11.41.41,0,0,0,.13-.24,1.78,1.78,0,0,0,0-.35v-5.95Zm0-1.13h-.66v-.89H488Z" transform="translate(-62.5 -354.57)" style="fill:#3e3a39"/><path d="M489.79,438.32a1.51,1.51,0,0,0,.5.94,1.65,1.65,0,0,0,1,.28,2,2,0,0,0,.58-.08,1.32,1.32,0,0,0,.39-.22,1.13,1.13,0,0,0,.24-.3.94.94,0,0,0,.08-.36.68.68,0,0,0-.25-.57,1.88,1.88,0,0,0-.62-.29,7.71,7.71,0,0,0-.79-.18,3.74,3.74,0,0,1-.8-.22,1.64,1.64,0,0,1-.62-.43,1.19,1.19,0,0,1-.25-.79,1.35,1.35,0,0,1,.48-1.07,2,2,0,0,1,1.35-.41,2.3,2.3,0,0,1,1.36.37,1.75,1.75,0,0,1,.64,1.26h-.62a1.13,1.13,0,0,0-.45-.85,1.74,1.74,0,0,0-.95-.24,1.37,1.37,0,0,0-.87.24.84.84,0,0,0-.3.65.63.63,0,0,0,.25.53,1.74,1.74,0,0,0,.61.3c.25.08.52.15.8.21a3.75,3.75,0,0,1,.8.25,1.68,1.68,0,0,1,.62.45,1.14,1.14,0,0,1,.24.78,1.28,1.28,0,0,1-.16.65,1.41,1.41,0,0,1-.43.48,2.15,2.15,0,0,1-.67.28,3.25,3.25,0,0,1-.85.1,2.29,2.29,0,0,1-.81-.14,1.78,1.78,0,0,1-.61-.37,2,2,0,0,1-.39-.56,2.31,2.31,0,0,1-.16-.69Z" transform="translate(-62.5 -354.57)" style="fill:#3e3a39"/><path d="M336.49,459.94v-5.76H337v2.19a3.06,3.06,0,0,1,.6-.5,1.43,1.43,0,0,1,.74-.19,2.08,2.08,0,0,1,.71.13,1.21,1.21,0,0,1,.55.46,1.1,1.1,0,0,1,.18.46,4,4,0,0,1,0,.5v2.71h-.48v-2.71a1.22,1.22,0,0,0-.25-.84,1.07,1.07,0,0,0-.82-.28,1.3,1.3,0,0,0-.41.07,1.74,1.74,0,0,0-.33.18,1.23,1.23,0,0,0-.25.26.87.87,0,0,0-.16.3,1.38,1.38,0,0,0-.09.39c0,.12,0,.25,0,.4v2.23Z" transform="translate(-62.5 -354.57)" style="fill:#3e3a39"/><path d="M342.4,460l-.24.06a1,1,0,0,1-.32,0,.73.73,0,0,1-.54-.18.84.84,0,0,1-.19-.64v-3h-.59v-.4h.59v-1.15h.48v1.15h.77v.4h-.77V459a2.26,2.26,0,0,0,0,.27.48.48,0,0,0,0,.18.28.28,0,0,0,.13.11.67.67,0,0,0,.23,0l.2,0,.2,0Z" transform="translate(-62.5 -354.57)" style="fill:#3e3a39"/><path d="M344.62,460l-.23.06a1.08,1.08,0,0,1-.32,0,.78.78,0,0,1-.55-.18.84.84,0,0,1-.19-.64v-3h-.58v-.4h.58v-1.15h.48v1.15h.78v.4h-.78V459a2.26,2.26,0,0,0,0,.27.48.48,0,0,0,.05.18.26.26,0,0,0,.12.11.78.78,0,0,0,.24,0l.19,0,.2,0Z" transform="translate(-62.5 -354.57)" style="fill:#3e3a39"/><path d="M345.92,461.57h-.48v-5.78h.48v.73h0a1.54,1.54,0,0,1,.27-.36,1.5,1.5,0,0,1,.36-.26,1.8,1.8,0,0,1,.81-.22,2,2,0,0,1,.86.17,1.74,1.74,0,0,1,.58.46,1.92,1.92,0,0,1,.33.69,3.38,3.38,0,0,1,.1.86,3.26,3.26,0,0,1-.11.83,2.17,2.17,0,0,1-.34.7,1.61,1.61,0,0,1-.58.48,1.74,1.74,0,0,1-.82.18,1.92,1.92,0,0,1-.84-.2,1.49,1.49,0,0,1-.64-.58Zm0-3.69a2.41,2.41,0,0,0,.1.67,1.68,1.68,0,0,0,.28.55,1.35,1.35,0,0,0,.44.38,1.21,1.21,0,0,0,.58.14,1.36,1.36,0,0,0,.65-.15,1.33,1.33,0,0,0,.45-.4,1.91,1.91,0,0,0,.26-.6,2.88,2.88,0,0,0,.06-.73,2.08,2.08,0,0,0-.11-.69,1.44,1.44,0,0,0-.3-.51,1.28,1.28,0,0,0-.45-.32,1.43,1.43,0,0,0-.56-.11,1.33,1.33,0,0,0-.6.14,1.3,1.3,0,0,0-.44.37,1.92,1.92,0,0,0-.26.56A2.28,2.28,0,0,0,345.92,457.88Z" transform="translate(-62.5 -354.57)" style="fill:#3e3a39"/><path d="M350.56,458.64a1.23,1.23,0,0,0,.4.76,1.42,1.42,0,0,0,.84.22,1.25,1.25,0,0,0,.45-.07.82.82,0,0,0,.51-.41.72.72,0,0,0,.06-.29.54.54,0,0,0-.2-.45,1.31,1.31,0,0,0-.49-.23,5.47,5.47,0,0,0-.64-.15,3.17,3.17,0,0,1-.64-.18,1.31,1.31,0,0,1-.49-.34.93.93,0,0,1-.2-.63,1.12,1.12,0,0,1,.38-.86,1.62,1.62,0,0,1,1.08-.33,1.83,1.83,0,0,1,1.09.3,1.39,1.39,0,0,1,.51,1h-.49a.89.89,0,0,0-.36-.68,1.36,1.36,0,0,0-.76-.2,1.07,1.07,0,0,0-.69.2.63.63,0,0,0-.24.52.48.48,0,0,0,.19.42,1.6,1.6,0,0,0,.49.24c.2.06.41.12.64.17a3,3,0,0,1,.64.2,1.43,1.43,0,0,1,.5.36.92.92,0,0,1,.19.62,1,1,0,0,1-.13.53,1.15,1.15,0,0,1-.35.38,1.6,1.6,0,0,1-.53.22,2.82,2.82,0,0,1-.68.08,1.88,1.88,0,0,1-.65-.11,1.31,1.31,0,0,1-.48-.3,1.39,1.39,0,0,1-.31-.45,1.43,1.43,0,0,1-.13-.55Z" transform="translate(-62.5 -354.57)" style="fill:#3e3a39"/><path d="M354.52,456.71V456h.58v.71Zm0,3.23v-.71h.58v.71Z" transform="translate(-62.5 -354.57)" style="fill:#3e3a39"/><path d="M356.35,460.66h-.45l1.88-6.63h.45Z" transform="translate(-62.5 -354.57)" style="fill:#3e3a39"/><path d="M358.57,460.66h-.45L360,454h.45Z" transform="translate(-62.5 -354.57)" style="fill:#3e3a39"/><path d="M361.45,459.94H361v-4.15h.48v.78h0a1.36,1.36,0,0,1,.51-.69,1.58,1.58,0,0,1,.84-.2v.52a1.45,1.45,0,0,0-.67.13,1,1,0,0,0-.42.37,1.35,1.35,0,0,0-.22.55,3.52,3.52,0,0,0-.06.66Z" transform="translate(-62.5 -354.57)" style="fill:#3e3a39"/><path d="M363.58,461.06l.2,0,.2,0a.49.49,0,0,0,.33-.13,1.41,1.41,0,0,0,.21-.31,2.46,2.46,0,0,0,.14-.38,1.75,1.75,0,0,1,.13-.33l-1.61-4.17h.54l1.32,3.56,1.33-3.56h.52l-1.54,4.09c-.1.26-.19.5-.28.71a3.72,3.72,0,0,1-.28.53,1.15,1.15,0,0,1-.33.33.74.74,0,0,1-.42.12l-.25,0-.21,0Z" transform="translate(-62.5 -354.57)" style="fill:#3e3a39"/><path d="M369.26,460.05a2.27,2.27,0,0,1-.75-.14,1.93,1.93,0,0,1-.61-.41,2,2,0,0,1-.41-.68,2.75,2.75,0,0,1-.15-.95,3,3,0,0,1,.12-.86,2.06,2.06,0,0,1,.36-.69,1.74,1.74,0,0,1,.6-.47,2,2,0,0,1,.84-.17,2,2,0,0,1,.85.17,1.77,1.77,0,0,1,.95,1.16,3,3,0,0,1,.12.86,2.72,2.72,0,0,1-.14.89,2.09,2.09,0,0,1-.38.69,1.68,1.68,0,0,1-.61.44A1.86,1.86,0,0,1,369.26,460.05Zm1.41-2.18a3,3,0,0,0-.08-.69,1.59,1.59,0,0,0-.25-.56,1.18,1.18,0,0,0-.43-.37,1.42,1.42,0,0,0-.65-.14,1.26,1.26,0,0,0-.64.15,1.28,1.28,0,0,0-.44.39,2,2,0,0,0-.25.56,2.84,2.84,0,0,0-.08.66,2.58,2.58,0,0,0,.09.7,1.82,1.82,0,0,0,.27.56,1.39,1.39,0,0,0,.44.36,1.33,1.33,0,0,0,.61.13,1.26,1.26,0,0,0,.64-.15,1.21,1.21,0,0,0,.44-.4,1.68,1.68,0,0,0,.25-.56A2.67,2.67,0,0,0,370.67,457.87Z" transform="translate(-62.5 -354.57)" style="fill:#3e3a39"/><path d="M372,459.94v-5.76h.48v3.58l2-2h.66l-1.56,1.5,1.74,2.65h-.54l-1.55-2.31-.78.74v1.57Z" transform="translate(-62.5 -354.57)" style="fill:#3e3a39"/><path d="M377.71,460.05a2.27,2.27,0,0,1-.75-.14,1.82,1.82,0,0,1-.61-.41,2,2,0,0,1-.41-.68,2.75,2.75,0,0,1-.15-.95,3,3,0,0,1,.12-.86,2.06,2.06,0,0,1,.36-.69,1.74,1.74,0,0,1,.6-.47,2,2,0,0,1,.84-.17,2,2,0,0,1,.85.17,1.84,1.84,0,0,1,.6.47,1.87,1.87,0,0,1,.35.69,3,3,0,0,1,.12.86,2.72,2.72,0,0,1-.14.89,1.94,1.94,0,0,1-.39.69,1.64,1.64,0,0,1-.6.44A1.86,1.86,0,0,1,377.71,460.05Zm1.41-2.18a3,3,0,0,0-.08-.69,1.8,1.8,0,0,0-.25-.56,1.18,1.18,0,0,0-.43-.37,1.45,1.45,0,0,0-.65-.14,1.33,1.33,0,0,0-.65.15,1.24,1.24,0,0,0-.43.39,1.78,1.78,0,0,0-.25.56,2.84,2.84,0,0,0-.08.66,2.58,2.58,0,0,0,.09.7,1.62,1.62,0,0,0,.27.56,1.29,1.29,0,0,0,.44.36,1.33,1.33,0,0,0,.61.13,1.29,1.29,0,0,0,.64-.15,1.21,1.21,0,0,0,.44-.4,1.91,1.91,0,0,0,.25-.56A2.67,2.67,0,0,0,379.12,457.87Z" transform="translate(-62.5 -354.57)" style="fill:#3e3a39"/><path d="M382.28,457.61v.5h-2v-.5Z" transform="translate(-62.5 -354.57)" style="fill:#3e3a39"/><path d="M384.82,460.05a2.27,2.27,0,0,1-.75-.14,1.93,1.93,0,0,1-.61-.41,2,2,0,0,1-.41-.68,2.75,2.75,0,0,1-.15-.95A3,3,0,0,1,383,457a2.06,2.06,0,0,1,.36-.69,1.74,1.74,0,0,1,.6-.47,2,2,0,0,1,.84-.17,2,2,0,0,1,.85.17,1.77,1.77,0,0,1,.95,1.16,3,3,0,0,1,.12.86,2.72,2.72,0,0,1-.14.89,2.09,2.09,0,0,1-.38.69,1.76,1.76,0,0,1-.61.44A1.86,1.86,0,0,1,384.82,460.05Zm1.41-2.18a3,3,0,0,0-.08-.69,1.8,1.8,0,0,0-.25-.56,1.18,1.18,0,0,0-.43-.37,1.42,1.42,0,0,0-.65-.14,1.26,1.26,0,0,0-.64.15,1.28,1.28,0,0,0-.44.39,1.78,1.78,0,0,0-.25.56,2.84,2.84,0,0,0-.08.66,2.58,2.58,0,0,0,.09.7,1.82,1.82,0,0,0,.27.56,1.39,1.39,0,0,0,.44.36,1.33,1.33,0,0,0,.61.13,1.26,1.26,0,0,0,.64-.15,1.21,1.21,0,0,0,.44-.4,1.91,1.91,0,0,0,.25-.56A2.67,2.67,0,0,0,386.23,457.87Z" transform="translate(-62.5 -354.57)" style="fill:#3e3a39"/><path d="M387.86,459.94v-.71h.58v.71Z" transform="translate(-62.5 -354.57)" style="fill:#3e3a39"/><path d="M392.78,457.1a1.45,1.45,0,0,0-.44-.73,1.21,1.21,0,0,0-.79-.26,1.14,1.14,0,0,0-.63.16,1.3,1.3,0,0,0-.44.4,1.81,1.81,0,0,0-.24.57,2.27,2.27,0,0,0-.08.63,2.67,2.67,0,0,0,.07.64,1.5,1.5,0,0,0,.25.56,1.18,1.18,0,0,0,.43.4,1.26,1.26,0,0,0,.64.15,1.22,1.22,0,0,0,.86-.3,1.43,1.43,0,0,0,.41-.81h.51a2.37,2.37,0,0,1-.2.62,1.83,1.83,0,0,1-.36.49,1.57,1.57,0,0,1-.53.32,2.24,2.24,0,0,1-1.55-.06,1.5,1.5,0,0,1-.59-.46,1.86,1.86,0,0,1-.34-.69,3,3,0,0,1-.12-.86,2.51,2.51,0,0,1,.13-.82,2,2,0,0,1,.36-.7,1.69,1.69,0,0,1,.6-.49,1.77,1.77,0,0,1,.82-.18,1.82,1.82,0,0,1,1.16.35,1.57,1.57,0,0,1,.56,1.07Z" transform="translate(-62.5 -354.57)" style="fill:#3e3a39"/><path d="M395.94,460.05a2.27,2.27,0,0,1-.75-.14,1.93,1.93,0,0,1-.61-.41,2,2,0,0,1-.41-.68,2.75,2.75,0,0,1-.15-.95,3,3,0,0,1,.12-.86,2.06,2.06,0,0,1,.36-.69,1.74,1.74,0,0,1,.6-.47,2,2,0,0,1,.84-.17,2,2,0,0,1,.85.17,1.77,1.77,0,0,1,.95,1.16,3,3,0,0,1,.12.86,2.72,2.72,0,0,1-.14.89,2.09,2.09,0,0,1-.38.69,1.76,1.76,0,0,1-.61.44A1.86,1.86,0,0,1,395.94,460.05Zm1.41-2.18a3,3,0,0,0-.08-.69,1.8,1.8,0,0,0-.25-.56,1.18,1.18,0,0,0-.43-.37,1.42,1.42,0,0,0-.65-.14,1.26,1.26,0,0,0-.64.15,1.28,1.28,0,0,0-.44.39,2,2,0,0,0-.25.56,2.84,2.84,0,0,0-.08.66,2.58,2.58,0,0,0,.09.7,1.82,1.82,0,0,0,.27.56,1.39,1.39,0,0,0,.44.36,1.33,1.33,0,0,0,.61.13,1.26,1.26,0,0,0,.64-.15,1.21,1.21,0,0,0,.44-.4,1.91,1.91,0,0,0,.25-.56A2.67,2.67,0,0,0,397.35,457.87Z" transform="translate(-62.5 -354.57)" style="fill:#3e3a39"/><path d="M399.16,459.94h-.48v-4.15h.48v.63h0a1.28,1.28,0,0,1,.53-.55,1.49,1.49,0,0,1,.75-.19,1.41,1.41,0,0,1,.49.07,1.08,1.08,0,0,1,.34.17.92.92,0,0,1,.23.25,3,3,0,0,1,.16.31,1.4,1.4,0,0,1,.55-.6,1.64,1.64,0,0,1,.8-.2,1.46,1.46,0,0,1,.68.14,1.12,1.12,0,0,1,.38.37,1.46,1.46,0,0,1,.18.52,4.07,4.07,0,0,1,.05.61v2.62h-.48v-2.87a1.12,1.12,0,0,0-.19-.7.83.83,0,0,0-.7-.26,1.13,1.13,0,0,0-.51.12,1.31,1.31,0,0,0-.43.36,1.36,1.36,0,0,0-.13.24,2.45,2.45,0,0,0-.08.29,2.87,2.87,0,0,0-.05.31c0,.1,0,.19,0,.28v2.23h-.48v-2.87a1.12,1.12,0,0,0-.19-.7.8.8,0,0,0-.7-.26,1.11,1.11,0,0,0-.5.12,1.14,1.14,0,0,0-.43.36.92.92,0,0,0-.13.24,1.4,1.4,0,0,0-.09.29,2.91,2.91,0,0,0,0,.31,2.72,2.72,0,0,0,0,.28Z" transform="translate(-62.5 -354.57)" style="fill:#3e3a39"/><path d="M335.92,460.74v-.4h68.91v.4Z" transform="translate(-62.5 -354.57)" style="fill:#3e3a39"/><path d="M87.58,475.84l-.23.06a1.08,1.08,0,0,1-.32,0,.78.78,0,0,1-.55-.18.84.84,0,0,1-.19-.64v-3h-.58v-.39h.58v-1.16h.48v1.16h.78v.39h-.78v2.84a2.18,2.18,0,0,0,0,.27.43.43,0,0,0,0,.18.22.22,0,0,0,.12.11.78.78,0,0,0,.24,0l.19,0,.2,0Z" transform="translate(-62.5 -354.57)" style="fill:#231815"/><path d="M88.64,473.87a2.18,2.18,0,0,0,.09.63A1.64,1.64,0,0,0,89,475a1.39,1.39,0,0,0,.44.35,1.44,1.44,0,0,0,.61.13,1.27,1.27,0,0,0,.8-.25,1.14,1.14,0,0,0,.45-.7h.54a3.35,3.35,0,0,1-.23.55,1.87,1.87,0,0,1-.36.43,1.58,1.58,0,0,1-.52.3,2,2,0,0,1-.68.1,2.06,2.06,0,0,1-.86-.17,1.5,1.5,0,0,1-.59-.46,1.87,1.87,0,0,1-.35-.69,3.24,3.24,0,0,1-.11-.85,2.91,2.91,0,0,1,.13-.85,2.24,2.24,0,0,1,.38-.7,1.63,1.63,0,0,1,.6-.47,1.71,1.71,0,0,1,.8-.18,1.66,1.66,0,0,1,1.34.59,2.58,2.58,0,0,1,.48,1.71Zm2.71-.4a1.79,1.79,0,0,0-.09-.57,1.39,1.39,0,0,0-.24-.47,1.21,1.21,0,0,0-.42-.31A1.25,1.25,0,0,0,90,472a1.26,1.26,0,0,0-.57.12,1.33,1.33,0,0,0-.41.33,1.42,1.42,0,0,0-.28.46,2.42,2.42,0,0,0-.14.56Z" transform="translate(-62.5 -354.57)" style="fill:#231815"/><path d="M92.87,475.83v-5.76h.48v5.76Z" transform="translate(-62.5 -354.57)" style="fill:#231815"/><path d="M94.81,472.6v-.71h.59v.71Zm0,3.23v-.71h.59v.71Z" transform="translate(-62.5 -354.57)" style="fill:#231815"/><path d="M100.86,471.64H99.4v-.34c.22,0,.41,0,.58-.06a1.25,1.25,0,0,0,.46-.16.92.92,0,0,0,.33-.32,1.52,1.52,0,0,0,.19-.57h.41v5.64h-.51Z" transform="translate(-62.5 -354.57)" style="fill:#231815"/><path d="M103.44,472a2.28,2.28,0,0,1,.13-.76,1.65,1.65,0,0,1,.37-.58,1.54,1.54,0,0,1,.58-.38,2.06,2.06,0,0,1,.76-.13,2.09,2.09,0,0,1,.74.12,1.77,1.77,0,0,1,.55.34,1.29,1.29,0,0,1,.33.49,1.78,1.78,0,0,1,.11.61,1.69,1.69,0,0,1-.12.66,1.66,1.66,0,0,1-.33.51,3,3,0,0,1-.46.41l-.54.33-.53.3a2.37,2.37,0,0,0-.47.3,2.88,2.88,0,0,0-.27.22,2.73,2.73,0,0,0-.23.25,1.11,1.11,0,0,0-.17.3,1.35,1.35,0,0,0-.07.37H107v.43h-3.68a3.36,3.36,0,0,1,.08-.74,1.54,1.54,0,0,1,.36-.64,4,4,0,0,1,.61-.57,7,7,0,0,1,.62-.43c.2-.13.39-.24.57-.34a2.29,2.29,0,0,0,.48-.35,1.42,1.42,0,0,0,.33-.41,1.26,1.26,0,0,0,.12-.57,1.3,1.3,0,0,0-.09-.49,1.41,1.41,0,0,0-.27-.37,1.07,1.07,0,0,0-.39-.22,1.53,1.53,0,0,0-.49-.08,1.1,1.1,0,0,0-.51.12,1.27,1.27,0,0,0-.39.3,1.41,1.41,0,0,0-.32,1Z" transform="translate(-62.5 -354.57)" style="fill:#231815"/><path d="M109.11,472.69a4.28,4.28,0,0,0,.65,0,1.46,1.46,0,0,0,.51-.17.87.87,0,0,0,.33-.33,1.08,1.08,0,0,0,.12-.54,1.06,1.06,0,0,0-.09-.45.91.91,0,0,0-.65-.48,1.7,1.7,0,0,0-.46-.06,1.3,1.3,0,0,0-.49.09,1.09,1.09,0,0,0-.38.25,1.19,1.19,0,0,0-.25.38,1.29,1.29,0,0,0-.08.49h-.52a1.67,1.67,0,0,1,.14-.69,1.48,1.48,0,0,1,.41-.57,1.17,1.17,0,0,1,.59-.31,3.17,3.17,0,0,1,.69-.07,2.59,2.59,0,0,1,.63.08,1.4,1.4,0,0,1,.5.26,1.23,1.23,0,0,1,.35.43,1.52,1.52,0,0,1,.13.62,1.43,1.43,0,0,1-.2.76,1.31,1.31,0,0,1-.6.5,1.67,1.67,0,0,1,.5.25,1.19,1.19,0,0,1,.3.34,1.24,1.24,0,0,1,.16.4,2.85,2.85,0,0,1,0,.4,1.75,1.75,0,0,1-.12.65,1.42,1.42,0,0,1-.36.54,1.52,1.52,0,0,1-.57.37,1.86,1.86,0,0,1-.77.15,3.52,3.52,0,0,1-.85-.09,1.4,1.4,0,0,1-.6-.29,1.37,1.37,0,0,1-.37-.53,3,3,0,0,1-.19-.83h.51a1.22,1.22,0,0,0,.39,1,1.52,1.52,0,0,0,1,.33,1.7,1.7,0,0,0,.57-.1,1.29,1.29,0,0,0,.45-.29,1.14,1.14,0,0,0,.29-.4,1,1,0,0,0,.09-.48,1.09,1.09,0,0,0-.16-.57,1,1,0,0,0-.38-.37,2,2,0,0,0-.58-.17,3.15,3.15,0,0,0-.69,0Z" transform="translate(-62.5 -354.57)" style="fill:#231815"/><path d="M114,469.92a6.78,6.78,0,0,0-.9,1.78,5.89,5.89,0,0,0-.33,2,5.58,5.58,0,0,0,.34,1.94,7.87,7.87,0,0,0,.89,1.76h-.41c-.22-.31-.42-.6-.59-.89a5,5,0,0,1-.42-.87,4.75,4.75,0,0,1-.27-.93,6.79,6.79,0,0,1-.08-1.05,5.75,5.75,0,0,1,.09-1,5.2,5.2,0,0,1,.69-1.8,8.66,8.66,0,0,1,.58-.86Z" transform="translate(-62.5 -354.57)" style="fill:#231815"/><path d="M117.32,474.44h-2.58V474l2.62-3.75h.47V474h.78v.44h-.78v1.39h-.51Zm-2.08-.44h2.08v-3Z" transform="translate(-62.5 -354.57)" style="fill:#231815"/><path d="M119.69,474.37a1.28,1.28,0,0,0,.46.86,1.6,1.6,0,0,0,.93.28,1.48,1.48,0,0,0,.57-.11,1.35,1.35,0,0,0,.43-.31,1.38,1.38,0,0,0,.26-.46,1.47,1.47,0,0,0,.1-.56,1.81,1.81,0,0,0-.1-.58,1.48,1.48,0,0,0-.28-.45,1.23,1.23,0,0,0-.44-.3,1.57,1.57,0,0,0-.58-.1,1.52,1.52,0,0,0-.69.14,1.48,1.48,0,0,0-.54.44l-.42-.05.45-2.92h2.8v.43h-2.36l-.36,1.89.31-.17a1.78,1.78,0,0,1,.29-.12,1.33,1.33,0,0,1,.3-.06h.34a2.09,2.09,0,0,1,.72.12,1.76,1.76,0,0,1,.56.37,1.71,1.71,0,0,1,.38.59,2.36,2.36,0,0,1,.13.78,2,2,0,0,1-.15.8,1.78,1.78,0,0,1-1,.95,1.89,1.89,0,0,1-.67.12,3.5,3.5,0,0,1-.74-.08,1.58,1.58,0,0,1-.62-.27,1.5,1.5,0,0,1-.42-.48,1.79,1.79,0,0,1-.2-.74Z" transform="translate(-62.5 -354.57)" style="fill:#231815"/><path d="M126.84,471.57a1.23,1.23,0,0,0-.35-.69,1,1,0,0,0-.72-.26,1.24,1.24,0,0,0-.82.25,1.56,1.56,0,0,0-.46.63,3.06,3.06,0,0,0-.21.83c0,.29-.07.58-.09.84l.25-.32a2,2,0,0,1,.3-.28,1.43,1.43,0,0,1,.39-.2,2,2,0,0,1,1.86.41,1.83,1.83,0,0,1,.47,1.33,1.85,1.85,0,0,1-.47,1.34,1.77,1.77,0,0,1-1.34.49,2.21,2.21,0,0,1-.78-.14,1.46,1.46,0,0,1-.62-.46,2.21,2.21,0,0,1-.42-.84,4.5,4.5,0,0,1-.15-1.25,7.65,7.65,0,0,1,.08-1.05,3.48,3.48,0,0,1,.32-1,1.94,1.94,0,0,1,.63-.73,1.68,1.68,0,0,1,1-.29,1.76,1.76,0,0,1,1.12.35,1.46,1.46,0,0,1,.53,1Zm-1.19,1.16a1.17,1.17,0,0,0-.53.11,1.08,1.08,0,0,0-.4.3,1.48,1.48,0,0,0-.25.44,1.7,1.7,0,0,0,0,1,1.22,1.22,0,0,0,.22.44,1.16,1.16,0,0,0,.4.33,1.2,1.2,0,0,0,.59.13,1.21,1.21,0,0,0,.6-.13,1.07,1.07,0,0,0,.4-.32,1.5,1.5,0,0,0,.22-.46,1.79,1.79,0,0,0,.07-.51,1.49,1.49,0,0,0-.32-1A1.22,1.22,0,0,0,125.65,472.73Z" transform="translate(-62.5 -354.57)" style="fill:#231815"/><path d="M128.25,477.36a7.23,7.23,0,0,0,.89-1.78,6,6,0,0,0,.33-2,5.53,5.53,0,0,0-.34-1.93,8,8,0,0,0-.88-1.76h.4c.22.3.42.6.59.88a5.77,5.77,0,0,1,.42.87,4.93,4.93,0,0,1,.26.93,6.11,6.11,0,0,1,0,2.09,5.82,5.82,0,0,1-.26.93,6.49,6.49,0,0,1-.43.88,10,10,0,0,1-.58.86Z" transform="translate(-62.5 -354.57)" style="fill:#231815"/><path d="M130.93,470.25h3.6v.48a8.52,8.52,0,0,0-1,1.41,10.63,10.63,0,0,0-.69,1.4,9.34,9.34,0,0,0-.41,1.28,5.61,5.61,0,0,0-.15,1h-.56a5.7,5.7,0,0,1,.24-1.29,11.79,11.79,0,0,1,.51-1.36,10.78,10.78,0,0,1,.69-1.3,9.18,9.18,0,0,1,.79-1.12h-3Z" transform="translate(-62.5 -354.57)" style="fill:#231815"/><path d="M136.25,472.8a4.37,4.37,0,0,1-.36-.25.94.94,0,0,1-.24-.25.81.81,0,0,1-.15-.31,2.3,2.3,0,0,1,0-.42,1.14,1.14,0,0,1,.13-.55,1.34,1.34,0,0,1,.34-.44,1.44,1.44,0,0,1,.51-.29,1.64,1.64,0,0,1,.63-.1,2.72,2.72,0,0,1,.63.08,1.83,1.83,0,0,1,.55.25,1.22,1.22,0,0,1,.52,1.05,1.49,1.49,0,0,1-.18.75,1.25,1.25,0,0,1-.59.51,1.51,1.51,0,0,1,.74.54,1.39,1.39,0,0,1,.26.86,1.83,1.83,0,0,1-.13.73,1.39,1.39,0,0,1-.41.54,1.75,1.75,0,0,1-.62.33,3,3,0,0,1-.82.11,1.9,1.9,0,0,1-1.19-.41,1.83,1.83,0,0,1-.41-.53,1.5,1.5,0,0,1-.16-.72,1.6,1.6,0,0,1,.25-.9A1.4,1.4,0,0,1,136.25,472.8Zm.89.27a1.81,1.81,0,0,0-.54.07,1.17,1.17,0,0,0-.43.22.92.92,0,0,0-.29.38,1.27,1.27,0,0,0-.11.54,1.25,1.25,0,0,0,.1.48,1.21,1.21,0,0,0,.28.39,1.28,1.28,0,0,0,.44.26,1.57,1.57,0,0,0,.58.1,1.46,1.46,0,0,0,.52-.09,1.29,1.29,0,0,0,.42-.26,1.21,1.21,0,0,0,.28-.4,1.25,1.25,0,0,0,.1-.51,1.21,1.21,0,0,0-.1-.52,1.06,1.06,0,0,0-.29-.37,1.25,1.25,0,0,0-.43-.22A1.83,1.83,0,0,0,137.14,473.07Zm0-2.45a1.33,1.33,0,0,0-.45.07.89.89,0,0,0-.36.19.8.8,0,0,0-.25.32,1,1,0,0,0-.09.44,1.06,1.06,0,0,0,.1.45,1,1,0,0,0,.27.31,1.17,1.17,0,0,0,.39.18,1.61,1.61,0,0,0,.44.06,1.56,1.56,0,0,0,.44-.06.9.9,0,0,0,.34-.2,1.07,1.07,0,0,0,.23-.34,1.52,1.52,0,0,0,.08-.51.81.81,0,0,0-.28-.67A1.3,1.3,0,0,0,137.12,470.62Z" transform="translate(-62.5 -354.57)" style="fill:#231815"/><path d="M140.3,474.59a1.21,1.21,0,0,0,.36.69,1.11,1.11,0,0,0,.74.23,1.2,1.2,0,0,0,.8-.25,1.62,1.62,0,0,0,.47-.62,3.45,3.45,0,0,0,.22-.81c0-.3.07-.57.08-.83h0a1.66,1.66,0,0,1-1.52.88,1.81,1.81,0,0,1-.72-.13,1.49,1.49,0,0,1-.55-.37,1.65,1.65,0,0,1-.35-.57,2.47,2.47,0,0,1,0-1.49,1.63,1.63,0,0,1,.33-.59,1.45,1.45,0,0,1,.57-.39,2.12,2.12,0,0,1,.8-.14,1.83,1.83,0,0,1,.95.22,1.7,1.7,0,0,1,.61.61,2.74,2.74,0,0,1,.32.9,5.69,5.69,0,0,1,.1,1.12,4.73,4.73,0,0,1-.15,1.26,3.07,3.07,0,0,1-.43.91,2,2,0,0,1-.65.55,1.9,1.9,0,0,1-.83.18,2.37,2.37,0,0,1-.61-.08,1.28,1.28,0,0,1-.51-.25,1.31,1.31,0,0,1-.35-.42,1.56,1.56,0,0,1-.17-.6Zm1.2-4a1.22,1.22,0,0,0-1,.4,1.57,1.57,0,0,0-.33,1.05,1.4,1.4,0,0,0,.34,1,1.24,1.24,0,0,0,1,.36,1.25,1.25,0,0,0,.53-.11,1.23,1.23,0,0,0,.4-.31,1.36,1.36,0,0,0,.25-.44,1.61,1.61,0,0,0,.09-.54,1.48,1.48,0,0,0-.34-1A1.2,1.2,0,0,0,141.5,470.62Z" transform="translate(-62.5 -354.57)" style="fill:#231815"/><path d="M146,470.19a1.94,1.94,0,0,1,.72.12,1.87,1.87,0,0,1,.52.34,1.82,1.82,0,0,1,.34.51,2.43,2.43,0,0,1,.2.61,4.92,4.92,0,0,1,.1.67c0,.23,0,.45,0,.67a6.19,6.19,0,0,1-.08,1.07,2.72,2.72,0,0,1-.29.9,1.6,1.6,0,0,1-.58.63,1.78,1.78,0,0,1-.95.23,1.84,1.84,0,0,1-1-.23,1.76,1.76,0,0,1-.58-.63,2.76,2.76,0,0,1-.29-.92,6.59,6.59,0,0,1-.08-1.11,7.41,7.41,0,0,1,.07-1.05,2.85,2.85,0,0,1,.28-.91,1.52,1.52,0,0,1,.58-.65A1.7,1.7,0,0,1,146,470.19Zm1.39,2.86a8.69,8.69,0,0,0,0-.89,3,3,0,0,0-.2-.78,1.49,1.49,0,0,0-.43-.55,1.19,1.19,0,0,0-.73-.21,1.09,1.09,0,0,0-.69.21,1.37,1.37,0,0,0-.42.57,3,3,0,0,0-.21.8,6.84,6.84,0,0,0-.06.91,6.07,6.07,0,0,0,.07,1,2.21,2.21,0,0,0,.23.75,1.19,1.19,0,0,0,.42.49,1.29,1.29,0,0,0,.68.17,1.17,1.17,0,0,0,.73-.22,1.36,1.36,0,0,0,.42-.58,2.77,2.77,0,0,0,.19-.79A6.44,6.44,0,0,0,147.42,473.05Z" transform="translate(-62.5 -354.57)" style="fill:#231815"/><path d="M158.42,473.87a2.18,2.18,0,0,0,.09.63,1.64,1.64,0,0,0,.26.53,1.29,1.29,0,0,0,.44.35,1.4,1.4,0,0,0,.6.13,1.28,1.28,0,0,0,.81-.25,1.14,1.14,0,0,0,.45-.7h.54a2.7,2.7,0,0,1-.24.55,1.48,1.48,0,0,1-.36.43,1.44,1.44,0,0,1-.51.3,2,2,0,0,1-.69.1,2,2,0,0,1-.85-.17,1.5,1.5,0,0,1-.59-.46,1.87,1.87,0,0,1-.35-.69,3.24,3.24,0,0,1-.11-.85,2.61,2.61,0,0,1,.13-.85,2.06,2.06,0,0,1,.38-.7,1.68,1.68,0,0,1,.59-.47,1.74,1.74,0,0,1,.8-.18,1.68,1.68,0,0,1,1.35.59,2.64,2.64,0,0,1,.48,1.71Zm2.71-.4a1.79,1.79,0,0,0-.09-.57,1.25,1.25,0,0,0-.25-.47,1.17,1.17,0,0,0-.41-.31,1.26,1.26,0,0,0-.57-.12,1.25,1.25,0,0,0-.56.12,1.5,1.5,0,0,0-.42.33,1.6,1.6,0,0,0-.27.46,2,2,0,0,0-.14.56Z" transform="translate(-62.5 -354.57)" style="fill:#231815"/><path d="M163,475.83h-.48v-4.14H163v.62h0a1.26,1.26,0,0,1,.52-.55,1.61,1.61,0,0,1,.76-.19,1.35,1.35,0,0,1,.48.07,1,1,0,0,1,.34.17.82.82,0,0,1,.24.25,1.77,1.77,0,0,1,.15.31,1.42,1.42,0,0,1,.56-.6,1.6,1.6,0,0,1,.79-.2,1.44,1.44,0,0,1,.68.14,1.07,1.07,0,0,1,.39.37,1.44,1.44,0,0,1,.18.53,3.86,3.86,0,0,1,0,.6v2.62h-.48V473a1.14,1.14,0,0,0-.19-.7.8.8,0,0,0-.7-.26,1.11,1.11,0,0,0-.5.12,1.14,1.14,0,0,0-.43.36.92.92,0,0,0-.13.24,1.4,1.4,0,0,0-.09.29c0,.1,0,.21,0,.31a2.72,2.72,0,0,0,0,.28v2.23h-.48V473a1.21,1.21,0,0,0-.19-.7.83.83,0,0,0-.7-.26,1.13,1.13,0,0,0-.51.12,1.22,1.22,0,0,0-.43.36,1.36,1.36,0,0,0-.13.24,2.45,2.45,0,0,0-.08.29,1.67,1.67,0,0,0-.05.31,2.72,2.72,0,0,0,0,.28Z" transform="translate(-62.5 -354.57)" style="fill:#231815"/><path d="M171.14,473.41l.33,0,.3-.09a.26.26,0,0,0,.15-.19,1.13,1.13,0,0,0,0-.25.81.81,0,0,0-.24-.6,1.07,1.07,0,0,0-.79-.24,2.16,2.16,0,0,0-.46.05,1,1,0,0,0-.36.15.81.81,0,0,0-.26.29,1.33,1.33,0,0,0-.13.45h-.49a1.54,1.54,0,0,1,.17-.63,1.37,1.37,0,0,1,.37-.42,1.51,1.51,0,0,1,.53-.24,2.61,2.61,0,0,1,.64-.08,2.71,2.71,0,0,1,.58.07,1.33,1.33,0,0,1,.48.22.94.94,0,0,1,.32.39,1.41,1.41,0,0,1,.12.61v2.26c0,.18,0,.3.1.35s.2,0,.4,0v.37l-.16.05-.21,0-.22,0a.37.37,0,0,1-.19-.08.41.41,0,0,1-.12-.14.6.6,0,0,1-.06-.19,1.34,1.34,0,0,1,0-.21,2.08,2.08,0,0,1-1.55.69,1.81,1.81,0,0,1-.52-.07,1.21,1.21,0,0,1-.44-.22,1.26,1.26,0,0,1-.31-.38,1.17,1.17,0,0,1-.11-.52c0-.71.48-1.12,1.45-1.25Zm.81.24a2.29,2.29,0,0,1-.62.17,6.2,6.2,0,0,1-.62.06,1.79,1.79,0,0,0-.86.25.7.7,0,0,0-.31.63.68.68,0,0,0,.28.57.7.7,0,0,0,.29.13,1.26,1.26,0,0,0,.33.05,2.1,2.1,0,0,0,.56-.07,1.51,1.51,0,0,0,.48-.22,1.12,1.12,0,0,0,.34-.38,1,1,0,0,0,.13-.54Z" transform="translate(-62.5 -354.57)" style="fill:#231815"/><path d="M173.73,470.78v-.71h.53v.71Zm0,5.05v-4.14h.48v4.14Z" transform="translate(-62.5 -354.57)" style="fill:#231815"/><path d="M175.54,475.83v-5.76H176v5.76Z" transform="translate(-62.5 -354.57)" style="fill:#231815"/><path d="M177.48,472.6v-.71h.58v.71Zm0,3.23v-.71h.58v.71Z" transform="translate(-62.5 -354.57)" style="fill:#231815"/><path d="M182.19,475.83h-.48v-4.14h.48v.77h0a1.36,1.36,0,0,1,.51-.69,1.58,1.58,0,0,1,.84-.2v.52a1.45,1.45,0,0,0-.67.13,1,1,0,0,0-.42.37,1.35,1.35,0,0,0-.22.55,3.52,3.52,0,0,0-.06.66Z" transform="translate(-62.5 -354.57)" style="fill:#231815"/><path d="M184.32,477l.19,0,.21,0a.49.49,0,0,0,.33-.13,1.41,1.41,0,0,0,.21-.31c.05-.12.1-.24.14-.37a1.51,1.51,0,0,1,.13-.34l-1.61-4.16h.53l1.33,3.56,1.33-3.56h.52l-1.55,4.08c-.09.26-.18.5-.27.71a3.24,3.24,0,0,1-.28.53,1,1,0,0,1-.33.33.75.75,0,0,1-.43.12h-.24l-.21,0Z" transform="translate(-62.5 -354.57)" style="fill:#231815"/><path d="M190,475.94a2,2,0,0,1-.75-.14,1.69,1.69,0,0,1-.61-.41,2,2,0,0,1-.41-.68,2.75,2.75,0,0,1-.15-.95,2.86,2.86,0,0,1,.12-.85,2,2,0,0,1,.36-.7,1.72,1.72,0,0,1,.6-.46,1.86,1.86,0,0,1,.84-.18,1.9,1.9,0,0,1,.85.18,1.69,1.69,0,0,1,.6.46,1.87,1.87,0,0,1,.35.69,3,3,0,0,1,.12.86,2.72,2.72,0,0,1-.14.89,1.94,1.94,0,0,1-.39.69,1.79,1.79,0,0,1-.6.45A2,2,0,0,1,190,475.94Zm1.41-2.18a3,3,0,0,0-.08-.69,1.91,1.91,0,0,0-.25-.56,1.28,1.28,0,0,0-.43-.37A1.45,1.45,0,0,0,190,472a1.33,1.33,0,0,0-.65.15,1.24,1.24,0,0,0-.43.39,1.73,1.73,0,0,0-.25.57,2.75,2.75,0,0,0-.08.65,2.58,2.58,0,0,0,.09.7,1.54,1.54,0,0,0,.27.56,1.1,1.1,0,0,0,.44.36,1.33,1.33,0,0,0,.61.13,1.29,1.29,0,0,0,.64-.15,1.21,1.21,0,0,0,.44-.4,2,2,0,0,0,.25-.55A2.82,2.82,0,0,0,191.41,473.76Z" transform="translate(-62.5 -354.57)" style="fill:#231815"/><path d="M192.77,475.83v-5.76h.48v3.58l2-2h.65l-1.55,1.49,1.74,2.65h-.54L194,473.52l-.78.74v1.57Z" transform="translate(-62.5 -354.57)" style="fill:#231815"/><path d="M198.45,475.94a2,2,0,0,1-.75-.14,1.69,1.69,0,0,1-.61-.41,2,2,0,0,1-.41-.68,2.75,2.75,0,0,1-.15-.95,2.86,2.86,0,0,1,.12-.85,2,2,0,0,1,.36-.7,1.72,1.72,0,0,1,.6-.46,2,2,0,0,1,1.68,0,1.61,1.61,0,0,1,.6.46,1.89,1.89,0,0,1,.36.69,3,3,0,0,1,.12.86,2.72,2.72,0,0,1-.14.89,1.94,1.94,0,0,1-.39.69,1.83,1.83,0,0,1-.61.45A2,2,0,0,1,198.45,475.94Zm1.4-2.18a2.51,2.51,0,0,0-.08-.69,1.67,1.67,0,0,0-.24-.56,1.32,1.32,0,0,0-.44-.37,1.38,1.38,0,0,0-.64-.14,1.33,1.33,0,0,0-.65.15,1.24,1.24,0,0,0-.43.39,1.55,1.55,0,0,0-.25.57,2.32,2.32,0,0,0-.08.65,2.58,2.58,0,0,0,.09.7,1.54,1.54,0,0,0,.27.56,1,1,0,0,0,.44.36,1.31,1.31,0,0,0,.61.13,1.25,1.25,0,0,0,1.08-.55,1.7,1.7,0,0,0,.24-.55A2.36,2.36,0,0,0,199.85,473.76Z" transform="translate(-62.5 -354.57)" style="fill:#231815"/><path d="M202.89,475.94a2,2,0,0,1-.74-.14,1.6,1.6,0,0,1-.61-.41,1.85,1.85,0,0,1-.41-.68,2.52,2.52,0,0,1-.16-.95,2.86,2.86,0,0,1,.12-.85,2,2,0,0,1,.36-.7,1.72,1.72,0,0,1,.6-.46,2.07,2.07,0,0,1,1.69,0,1.61,1.61,0,0,1,.6.46,1.89,1.89,0,0,1,.36.69,3,3,0,0,1,.11.86,2.73,2.73,0,0,1-.13.89,1.94,1.94,0,0,1-.39.69,1.83,1.83,0,0,1-.61.45A2,2,0,0,1,202.89,475.94Zm1.41-2.18a2.51,2.51,0,0,0-.08-.69,1.5,1.5,0,0,0-.25-.56,1.19,1.19,0,0,0-.43-.37,1.39,1.39,0,0,0-.65-.14,1.29,1.29,0,0,0-.64.15,1.38,1.38,0,0,0-.44.39,1.72,1.72,0,0,0-.24.57,2.32,2.32,0,0,0-.08.65,2.58,2.58,0,0,0,.09.7,1.54,1.54,0,0,0,.27.56,1,1,0,0,0,.44.36,1.26,1.26,0,0,0,.6.13,1.33,1.33,0,0,0,.65-.15,1.18,1.18,0,0,0,.43-.4,1.53,1.53,0,0,0,.25-.55A2.36,2.36,0,0,0,204.3,473.76Z" transform="translate(-62.5 -354.57)" style="fill:#231815"/><path d="M205.66,475.83v-5.76h.48v3.58l2-2h.66l-1.55,1.49,1.73,2.65h-.53l-1.55-2.31-.79.74v1.57Z" transform="translate(-62.5 -354.57)" style="fill:#231815"/><path d="M211.6,473.41l.32,0,.31-.09a.26.26,0,0,0,.15-.19,1.13,1.13,0,0,0,0-.25.81.81,0,0,0-.24-.6,1.09,1.09,0,0,0-.8-.24,2.14,2.14,0,0,0-.45.05,1.11,1.11,0,0,0-.37.15.89.89,0,0,0-.25.29,1.14,1.14,0,0,0-.13.45h-.49a1.4,1.4,0,0,1,.17-.63,1.25,1.25,0,0,1,.37-.42,1.51,1.51,0,0,1,.53-.24,2.59,2.59,0,0,1,.63-.08,2.73,2.73,0,0,1,.59.07,1.51,1.51,0,0,1,.48.22,1,1,0,0,1,.32.39,1.41,1.41,0,0,1,.12.61v2.26c0,.18,0,.3.1.35s.2,0,.4,0v.37l-.16.05-.22,0-.21,0a.33.33,0,0,1-.19-.08.41.41,0,0,1-.12-.14.6.6,0,0,1-.06-.19,1.25,1.25,0,0,1,0-.21,1.88,1.88,0,0,1-.69.51,2,2,0,0,1-.85.18,1.77,1.77,0,0,1-.52-.07,1.35,1.35,0,0,1-.45-.22,1.1,1.1,0,0,1-.3-.38,1.05,1.05,0,0,1-.11-.52c0-.71.48-1.12,1.44-1.25Zm.81.24a2.39,2.39,0,0,1-.62.17l-.62.06a1.75,1.75,0,0,0-.86.25.7.7,0,0,0-.31.63.64.64,0,0,0,.27.57.76.76,0,0,0,.29.13,1.26,1.26,0,0,0,.33.05,2,2,0,0,0,.56-.07,1.47,1.47,0,0,0,.49-.22,1.24,1.24,0,0,0,.34-.38,1.13,1.13,0,0,0,.13-.54Z" transform="translate(-62.5 -354.57)" style="fill:#231815"/><path d="M215.79,470.19a1.94,1.94,0,0,1,.72.12,1.87,1.87,0,0,1,.52.34,1.82,1.82,0,0,1,.34.51,2.43,2.43,0,0,1,.2.61,4.92,4.92,0,0,1,.1.67c0,.23,0,.45,0,.67a6.19,6.19,0,0,1-.08,1.07,2.72,2.72,0,0,1-.29.9,1.6,1.6,0,0,1-.58.63,1.78,1.78,0,0,1-1,.23,1.84,1.84,0,0,1-1-.23,1.76,1.76,0,0,1-.58-.63,2.76,2.76,0,0,1-.29-.92,7.83,7.83,0,0,1-.08-1.11A7.41,7.41,0,0,1,214,472a2.85,2.85,0,0,1,.28-.91,1.58,1.58,0,0,1,.58-.65A1.7,1.7,0,0,1,215.79,470.19Zm1.39,2.86a6.55,6.55,0,0,0-.05-.89,2.62,2.62,0,0,0-.2-.78,1.39,1.39,0,0,0-.43-.55,1.19,1.19,0,0,0-.73-.21,1.09,1.09,0,0,0-.69.21,1.37,1.37,0,0,0-.42.57,3,3,0,0,0-.21.8,6.84,6.84,0,0,0-.06.91,6.07,6.07,0,0,0,.07,1,2.21,2.21,0,0,0,.23.75,1.26,1.26,0,0,0,.42.49,1.29,1.29,0,0,0,.68.17,1.17,1.17,0,0,0,.73-.22,1.36,1.36,0,0,0,.42-.58,2.77,2.77,0,0,0,.19-.79A6.44,6.44,0,0,0,217.18,473.05Z" transform="translate(-62.5 -354.57)" style="fill:#231815"/><path d="M218.49,470.25h3.59v.48a7.93,7.93,0,0,0-1,1.41,9.61,9.61,0,0,0-.7,1.4,8,8,0,0,0-.4,1.28,6.87,6.87,0,0,0-.16,1h-.56a6.32,6.32,0,0,1,.24-1.29,11.79,11.79,0,0,1,.51-1.36,14.63,14.63,0,0,1,.69-1.3,10.42,10.42,0,0,1,.79-1.12h-3Z" transform="translate(-62.5 -354.57)" style="fill:#231815"/><path d="M228.41,474.49a2.5,2.5,0,0,1-.48.63,2.89,2.89,0,0,1-.62.47,2.86,2.86,0,0,1-.72.29,2.93,2.93,0,0,1-.78.1,3,3,0,0,1-1.19-.24,3.1,3.1,0,0,1-1.61-1.63,3.11,3.11,0,0,1-.23-1.19,2.92,2.92,0,0,1,.24-1.17,3.15,3.15,0,0,1,.65-.95,3.32,3.32,0,0,1,1-.65,3,3,0,0,1,1.15-.23,2.92,2.92,0,0,1,1.08.19,2.66,2.66,0,0,1,.88.52,2.48,2.48,0,0,1,.59.8,2.45,2.45,0,0,1,.21,1,2.24,2.24,0,0,1-.17.89,2.59,2.59,0,0,1-.44.74,2,2,0,0,1-.6.51,1.27,1.27,0,0,1-.65.19.86.86,0,0,1-.41-.1.53.53,0,0,1-.28-.31,1.53,1.53,0,0,1-.44.29,1.32,1.32,0,0,1-.51.1,1.11,1.11,0,0,1-.46-.09,1,1,0,0,1-.36-.26A1.3,1.3,0,0,1,224,474a1.39,1.39,0,0,1-.07-.46,2.49,2.49,0,0,1,.14-.83,3.2,3.2,0,0,1,.4-.78,2.31,2.31,0,0,1,.63-.58,1.42,1.42,0,0,1,.81-.23,1,1,0,0,1,.53.14.87.87,0,0,1,.37.39l.12-.37h.53l-.8,2.41a1.44,1.44,0,0,0-.08.25.5.5,0,0,0,0,.2.17.17,0,0,0,.06.14.21.21,0,0,0,.17.06.77.77,0,0,0,.48-.19,1.72,1.72,0,0,0,.41-.47,2.57,2.57,0,0,0,.28-.63,2.21,2.21,0,0,0,.1-.66,2.1,2.1,0,0,0-.18-.88,1.93,1.93,0,0,0-.5-.66,2.35,2.35,0,0,0-.72-.42,2.72,2.72,0,0,0-.86-.14,2.45,2.45,0,0,0-1.83.79,2.76,2.76,0,0,0-.52.84,3,3,0,0,0-.19,1,2.69,2.69,0,0,0,.2,1,2.57,2.57,0,0,0,3,1.51,2.78,2.78,0,0,0,.57-.21,2.71,2.71,0,0,0,.93-.81Zm-3.25-.23a.73.73,0,0,0,.51-.22,2.29,2.29,0,0,0,.42-.54,3.31,3.31,0,0,0,.29-.67,2.71,2.71,0,0,0,.1-.63.61.61,0,0,0-.15-.41.5.5,0,0,0-.4-.18.93.93,0,0,0-.58.2,1.71,1.71,0,0,0-.43.49,2.34,2.34,0,0,0-.29.62,2.31,2.31,0,0,0-.09.61.84.84,0,0,0,.16.51A.52.52,0,0,0,225.16,474.26Z" transform="translate(-62.5 -354.57)" style="fill:#231815"/><path d="M232.64,471.69h.48v3.74a4.17,4.17,0,0,1-.08.8,1.81,1.81,0,0,1-.3.66,1.55,1.55,0,0,1-.6.46,2.24,2.24,0,0,1-1,.18,2.28,2.28,0,0,1-.78-.12,1.75,1.75,0,0,1-.53-.29,1.28,1.28,0,0,1-.32-.39,1.07,1.07,0,0,1-.12-.4h.52a.83.83,0,0,0,.17.38,1,1,0,0,0,.29.24,1.27,1.27,0,0,0,.36.11,2.73,2.73,0,0,0,.41,0,1.52,1.52,0,0,0,.79-.17,1.1,1.1,0,0,0,.45-.43,1.8,1.8,0,0,0,.19-.62,5.37,5.37,0,0,0,0-.7,1.63,1.63,0,0,1-.64.58,1.91,1.91,0,0,1-.84.19,1.74,1.74,0,0,1-.82-.18,1.8,1.8,0,0,1-.58-.48,2.17,2.17,0,0,1-.34-.7,3.26,3.26,0,0,1-.11-.83,3.43,3.43,0,0,1,.11-.86,1.84,1.84,0,0,1,.33-.69,1.56,1.56,0,0,1,.58-.46,2,2,0,0,1,.85-.17,1.45,1.45,0,0,1,.41.06,2.31,2.31,0,0,1,.41.16,1.39,1.39,0,0,1,.62.62h0Zm0,2.08a2.63,2.63,0,0,0-.09-.7,1.71,1.71,0,0,0-.27-.56,1.28,1.28,0,0,0-1-.51,1.47,1.47,0,0,0-.56.11,1.37,1.37,0,0,0-.75.83,2.08,2.08,0,0,0-.11.69,2.48,2.48,0,0,0,.07.73,1.81,1.81,0,0,0,.25.6,1.28,1.28,0,0,0,1.1.55,1.28,1.28,0,0,0,.59-.14,1.33,1.33,0,0,0,.44-.38,1.57,1.57,0,0,0,.27-.55A2.09,2.09,0,0,0,232.64,473.77Z" transform="translate(-62.5 -354.57)" style="fill:#231815"/><path d="M234.74,475.83h-.48v-4.14h.48v.62h0a1.28,1.28,0,0,1,.53-.55,1.61,1.61,0,0,1,.75-.19,1.45,1.45,0,0,1,.49.07,1.2,1.2,0,0,1,.34.17.92.92,0,0,1,.23.25,1.77,1.77,0,0,1,.15.31,1.42,1.42,0,0,1,.56-.6,1.61,1.61,0,0,1,.8-.2,1.39,1.39,0,0,1,.67.14,1.07,1.07,0,0,1,.39.37,1.44,1.44,0,0,1,.18.53,3.86,3.86,0,0,1,0,.6v2.62h-.47V473a1.21,1.21,0,0,0-.19-.7.83.83,0,0,0-.7-.26,1.13,1.13,0,0,0-.51.12,1.22,1.22,0,0,0-.43.36.92.92,0,0,0-.13.24,1.38,1.38,0,0,0-.08.29,1.67,1.67,0,0,0,0,.31,2.72,2.72,0,0,0,0,.28v2.23h-.48V473a1.14,1.14,0,0,0-.19-.7.82.82,0,0,0-.7-.26,1.19,1.19,0,0,0-.51.12,1.31,1.31,0,0,0-.43.36,1.36,1.36,0,0,0-.13.24,2.45,2.45,0,0,0-.08.29c0,.1,0,.21-.05.31s0,.19,0,.28Z" transform="translate(-62.5 -354.57)" style="fill:#231815"/><path d="M242.9,473.41l.32,0,.31-.09a.23.23,0,0,0,.14-.19,1.13,1.13,0,0,0,0-.25.85.85,0,0,0-.23-.6,1.11,1.11,0,0,0-.8-.24,2.24,2.24,0,0,0-.46.05,1.14,1.14,0,0,0-.36.15.92.92,0,0,0-.26.29,1.33,1.33,0,0,0-.13.45H241a1.72,1.72,0,0,1,.17-.63,1.37,1.37,0,0,1,.37-.42,1.6,1.6,0,0,1,.53-.24,2.67,2.67,0,0,1,.64-.08,2.8,2.8,0,0,1,.59.07,1.51,1.51,0,0,1,.48.22,1.12,1.12,0,0,1,.32.39,1.58,1.58,0,0,1,.11.61v2.26a.47.47,0,0,0,.1.35c.07,0,.2,0,.41,0v.37l-.17.05-.21,0-.22,0a.37.37,0,0,1-.19-.08.53.53,0,0,1-.11-.14.6.6,0,0,1-.06-.19,1.25,1.25,0,0,1,0-.21,1.83,1.83,0,0,1-.7.51,2,2,0,0,1-.84.18,1.88,1.88,0,0,1-.53-.07,1.3,1.3,0,0,1-.44-.22,1.1,1.1,0,0,1-.3-.38,1.05,1.05,0,0,1-.12-.52c0-.71.49-1.12,1.45-1.25Zm.8.24a2.32,2.32,0,0,1-.61.17q-.32,0-.63.06a1.79,1.79,0,0,0-.86.25.73.73,0,0,0-.31.63.68.68,0,0,0,.28.57.7.7,0,0,0,.29.13,1.26,1.26,0,0,0,.33.05,2.1,2.1,0,0,0,.56-.07,1.67,1.67,0,0,0,.49-.22,1.24,1.24,0,0,0,.34-.38,1.13,1.13,0,0,0,.12-.54Z" transform="translate(-62.5 -354.57)" style="fill:#231815"/><path d="M245.49,470.78v-.71H246v.71Zm0,5.05v-4.14H246v4.14Z" transform="translate(-62.5 -354.57)" style="fill:#231815"/><path d="M247.29,475.83v-5.76h.48v5.76Z" transform="translate(-62.5 -354.57)" style="fill:#231815"/><path d="M249.23,475.83v-.71h.58v.71Z" transform="translate(-62.5 -354.57)" style="fill:#231815"/><path d="M254.15,473a1.45,1.45,0,0,0-.44-.73,1.21,1.21,0,0,0-.79-.26,1.23,1.23,0,0,0-.63.16,1.3,1.3,0,0,0-.44.4,1.81,1.81,0,0,0-.24.57,2.27,2.27,0,0,0-.08.63,2.81,2.81,0,0,0,.07.65,1.53,1.53,0,0,0,.25.55,1.18,1.18,0,0,0,.43.4,1.26,1.26,0,0,0,.64.15,1.22,1.22,0,0,0,.86-.3,1.4,1.4,0,0,0,.41-.81h.51a2.45,2.45,0,0,1-.2.63,2,2,0,0,1-.36.48,1.57,1.57,0,0,1-.53.32,2.24,2.24,0,0,1-1.55-.06,1.5,1.5,0,0,1-.59-.46,1.86,1.86,0,0,1-.34-.69,3,3,0,0,1-.12-.86,2.51,2.51,0,0,1,.13-.82,2,2,0,0,1,.36-.7,1.69,1.69,0,0,1,.6-.49,1.77,1.77,0,0,1,.82-.18,1.82,1.82,0,0,1,1.16.35,1.59,1.59,0,0,1,.56,1.07Z" transform="translate(-62.5 -354.57)" style="fill:#231815"/><path d="M257.31,475.94a2,2,0,0,1-.75-.14,1.77,1.77,0,0,1-.61-.41,2,2,0,0,1-.41-.68,2.75,2.75,0,0,1-.15-.95,2.86,2.86,0,0,1,.12-.85,2,2,0,0,1,.36-.7,1.72,1.72,0,0,1,.6-.46,1.86,1.86,0,0,1,.84-.18,1.9,1.9,0,0,1,.85.18,1.61,1.61,0,0,1,.6.46,1.73,1.73,0,0,1,.35.69,3,3,0,0,1,.12.86,2.72,2.72,0,0,1-.14.89,2.09,2.09,0,0,1-.38.69,1.93,1.93,0,0,1-.61.45A2,2,0,0,1,257.31,475.94Zm1.41-2.18a3,3,0,0,0-.08-.69,1.91,1.91,0,0,0-.25-.56,1.28,1.28,0,0,0-.43-.37,1.42,1.42,0,0,0-.65-.14,1.26,1.26,0,0,0-.64.15,1.28,1.28,0,0,0-.44.39,2,2,0,0,0-.25.57,2.75,2.75,0,0,0-.08.65,2.58,2.58,0,0,0,.09.7,1.72,1.72,0,0,0,.27.56,1.17,1.17,0,0,0,.44.36,1.33,1.33,0,0,0,.61.13,1.26,1.26,0,0,0,.64-.15,1.21,1.21,0,0,0,.44-.4,2,2,0,0,0,.25-.55A2.82,2.82,0,0,0,258.72,473.76Z" transform="translate(-62.5 -354.57)" style="fill:#231815"/><path d="M260.53,475.83h-.48v-4.14h.48v.62h0a1.34,1.34,0,0,1,.53-.55,1.61,1.61,0,0,1,.75-.19,1.41,1.41,0,0,1,.49.07,1.08,1.08,0,0,1,.34.17.92.92,0,0,1,.23.25,1.82,1.82,0,0,1,.16.31,1.4,1.4,0,0,1,.55-.6,1.64,1.64,0,0,1,.8-.2,1.46,1.46,0,0,1,.68.14,1.12,1.12,0,0,1,.38.37,1.44,1.44,0,0,1,.18.53,3.83,3.83,0,0,1,.05.6v2.62h-.48V473a1.14,1.14,0,0,0-.19-.7.83.83,0,0,0-.7-.26,1.13,1.13,0,0,0-.51.12,1.31,1.31,0,0,0-.43.36,1.36,1.36,0,0,0-.13.24,2.45,2.45,0,0,0-.08.29c0,.1,0,.21-.05.31s0,.19,0,.28v2.23h-.48V473a1.14,1.14,0,0,0-.19-.7.8.8,0,0,0-.7-.26,1.11,1.11,0,0,0-.5.12,1.14,1.14,0,0,0-.43.36.92.92,0,0,0-.13.24,1.4,1.4,0,0,0-.09.29c0,.1,0,.21,0,.31a2.72,2.72,0,0,0,0,.28Z" transform="translate(-62.5 -354.57)" style="fill:#231815"/></svg>