<svg id="Layer_1" data-name="Layer 1" xmlns="http://www.w3.org/2000/svg" viewBox="0 0 249.85 249.85"><title>logo_circle_white</title><path d="M297,301.34a119.92,119.92,0,1,1-84.8,35.12A119.14,119.14,0,0,1,297,301.34m0-5A124.93,124.93,0,1,0,421.91,421.26,124.93,124.93,0,0,0,297,296.34Z" transform="translate(-172.05 -296.34)" style="fill:#fff"/><path d="M297,309.33A111.94,111.94,0,1,1,185.05,421.26,112.05,112.05,0,0,1,297,309.33m0-5A116.94,116.94,0,1,0,413.91,421.26,117.06,117.06,0,0,0,297,304.33Z" transform="translate(-172.05 -296.34)" style="fill:#fff"/><path d="M297,317.33A103.94,103.94,0,1,1,193,421.26,104.05,104.05,0,0,1,297,317.33m0-5A108.94,108.94,0,1,0,405.92,421.26,109.06,109.06,0,0,0,297,312.33Z" transform="translate(-172.05 -296.34)" style="fill:#fff"/><path d="M289.86,536.21c-8.68-14.81-35.46-68.23-15.71-134l4.79,1.44c-19.17,63.82,6.81,115.64,15.23,130Z" transform="translate(-172.05 -296.34)" style="fill:#fff"/><path d="M285.66,544.59c-.45-.66-11.19-16.54-18.87-42.18-7.08-23.63-12.88-60.6-.29-102.48l4.78,1.43c-12.22,40.7-6.58,76.64.3,99.62,7.46,24.9,17.77,40.15,18.21,40.79Z" transform="translate(-172.05 -296.34)" style="fill:#fff"/><path d="M294.78,528.64a165.78,165.78,0,0,1-12.84-31.39c-9.21-31.15-9.25-62.34-.13-92.72L286.6,406c-8.84,29.43-8.8,59.66.13,89.86a160.45,160.45,0,0,0,12.45,30.43Z" transform="translate(-172.05 -296.34)" style="fill:#fff"/><path d="M237.88,419.2a77,77,0,0,1-34.26-7.82L206,407c1.17.64,29.19,15.5,61.68.71,2-.89,3.95-1.9,5.88-3l2.45,4.36c-2.06,1.15-4.16,2.22-6.26,3.17A76.42,76.42,0,0,1,237.88,419.2Z" transform="translate(-172.05 -296.34)" style="fill:#fff"/><path d="M237.77,411.25a68.44,68.44,0,0,1-30.33-6.89l2.38-4.39a64.15,64.15,0,0,0,42.5,4.6,66.14,66.14,0,0,0,12.06-4.14c1.76-.81,3.54-1.71,5.28-2.69l2.45,4.36c-1.87,1-3.77,2-5.66,2.87a70.4,70.4,0,0,1-13,4.46A68,68,0,0,1,237.77,411.25Z" transform="translate(-172.05 -296.34)" style="fill:#fff"/><path d="M380.32,501.26a150.64,150.64,0,0,1-44.61-11.34c-35.39-15.47-56.21-43.46-61.89-83.19l4.94-.71c5.42,37.9,25.26,64.59,58.95,79.33a146,146,0,0,0,43.13,10.94Z" transform="translate(-172.05 -296.34)" style="fill:#fff"/><path d="M384.75,509.7c-13.18-1-32.94-4-52.24-12.45-38.1-16.66-60.51-46.73-66.61-89.39l5-.7c5.84,40.82,27.26,69.59,63.66,85.51,18.66,8.16,37.83,11.05,50.63,12Z" transform="translate(-172.05 -296.34)" style="fill:#fff"/><path d="M376.91,492.81a140.25,140.25,0,0,1-38-10.21c-32.69-14.29-51.93-40.2-57.19-77l4.95-.71c5,35,23.25,59.58,54.24,73.13a135.9,135.9,0,0,0,36.64,9.84Z" transform="translate(-172.05 -296.34)" style="fill:#fff"/><path d="M208.71,447.43l0-5c1.55,0,38.22-.64,59.32-29.09,1.29-1.74,2.54-3.57,3.7-5.46l4.25,2.63c-1.24,2-2.56,4-3.94,5.81C249.44,446.76,210.37,447.42,208.71,447.43Z" transform="translate(-172.05 -296.34)" style="fill:#fff"/><path d="M208.77,455.43l0-5c4.29,0,42.61-1.22,65.67-32.32,1.43-1.92,2.8-3.94,4.08-6l4.25,2.62c-1.35,2.2-2.81,4.34-4.31,6.37C253.93,454.13,213.32,455.39,208.77,455.43Z" transform="translate(-172.05 -296.34)" style="fill:#fff"/><path d="M208.65,439.44l0-5c1.39,0,34.19-.54,53-25.85,1.16-1.56,2.27-3.21,3.32-4.9l4.25,2.63c-1.12,1.81-2.32,3.57-3.56,5.25C245.35,438.85,210.14,439.43,208.65,439.44Z" transform="translate(-172.05 -296.34)" style="fill:#fff"/><path d="M265.66,363.86a26.21,26.21,0,1,1-19.24,8.42,26.07,26.07,0,0,1,19.24-8.42m0-5a31.17,31.17,0,1,0,21.15,8.28,31.26,31.26,0,0,0-21.15-8.28Z" transform="translate(-172.05 -296.34)" style="fill:#fff"/><path d="M265.66,371.86a18.2,18.2,0,1,1-13.37,5.85,18.14,18.14,0,0,1,13.37-5.85m0-5a23.24,23.24,0,0,0-17,7.46,23.19,23.19,0,0,0,17,38.92,23.19,23.19,0,0,0,0-46.38Z" transform="translate(-172.05 -296.34)" style="fill:#fff"/><path d="M265.66,379.86a10.19,10.19,0,1,1-7.5,3.27,10.17,10.17,0,0,1,7.5-3.27m0-5a15.19,15.19,0,0,0-15.19,15.79,15.2,15.2,0,0,0,15.17,14.6,15.24,15.24,0,0,0,11.17-4.89,15.19,15.19,0,0,0-11.15-25.5Z" transform="translate(-172.05 -296.34)" style="fill:#fff"/><path d="M238,427.16a86.34,86.34,0,0,1-38.24-8.75l2.39-4.39c1,.53,24.46,13,54,6A81,81,0,0,0,271,415c2.18-1,4.36-2.1,6.49-3.29l2.44,4.36c-2.25,1.26-4.56,2.43-6.86,3.48a85.76,85.76,0,0,1-15.73,5.4A83.93,83.93,0,0,1,238,427.16Z" transform="translate(-172.05 -296.34)" style="fill:#fff"/><path d="M312.55,363.83a41.79,41.79,0,1,1-30.75,13.44,41.7,41.7,0,0,1,30.75-13.44m0-5a46.8,46.8,0,0,0-46.8,48.69,46.82,46.82,0,1,0,46.8-48.69Z" transform="translate(-172.05 -296.34)" style="fill:#fff"/><path d="M312.55,371.82a33.83,33.83,0,1,1-24.87,10.88,33.7,33.7,0,0,1,24.87-10.88m0-5A39,39,0,0,0,284,379.31a38.83,38.83,0,0,0,28.51,65.2,38.84,38.84,0,1,0,0-77.68Z" transform="translate(-172.05 -296.34)" style="fill:#fff"/><path d="M312.55,379.82a25.82,25.82,0,1,1-19,8.3,25.77,25.77,0,0,1,19-8.3m0-5A30.85,30.85,0,1,0,333.47,383a30.94,30.94,0,0,0-20.92-8.19Z" transform="translate(-172.05 -296.34)" style="fill:#fff"/></svg>