<svg id="Layer_1" data-name="Layer 1" xmlns="http://www.w3.org/2000/svg" viewBox="0 0 124.57 150.14"><title>logo_name_ver</title><path d="M289.83,438.17c-4.61-7.65-18.88-35.29-9-69.65l2.5.72c-9.58,33.35,4.27,60.17,8.74,67.59Z" transform="translate(-228.34 -345.69)" style="fill:#ef7f4d"/><path d="M287.7,442.57a85.52,85.52,0,0,1-10.09-21.84,92.87,92.87,0,0,1-.79-53.36l2.5.72a90.3,90.3,0,0,0,.77,51.86,82.37,82.37,0,0,0,9.74,21.12Z" transform="translate(-228.34 -345.69)" style="fill:#e60012"/><path d="M292.35,434.2a86.33,86.33,0,0,1-6.89-16.26,83.17,83.17,0,0,1-.64-48.27l2.5.72a80.56,80.56,0,0,0,.63,46.78,83.42,83.42,0,0,0,6.67,15.77Z" transform="translate(-228.34 -345.69)" style="fill:#f8caba"/><path d="M261.55,377.59a40.09,40.09,0,0,1-17.4-3.86l1.22-2.3a37.83,37.83,0,0,0,32.12,0c1-.48,2-1,3-1.59l1.3,2.26c-1.06.61-2.15,1.18-3.24,1.69A39.71,39.71,0,0,1,261.55,377.59Z" transform="translate(-228.34 -345.69)" style="fill:#ef7f4d"/><path d="M261.5,373.45a35.42,35.42,0,0,1-15.4-3.4l1.21-2.3a33.45,33.45,0,0,0,22.16,2.13,34.55,34.55,0,0,0,6.25-2.23c.91-.43,1.83-.91,2.73-1.43l1.3,2.25c-1,.56-1.95,1.07-2.93,1.53a37.19,37.19,0,0,1-6.72,2.4A35.4,35.4,0,0,1,261.5,373.45Z" transform="translate(-228.34 -345.69)" style="fill:#f8caba"/><path d="M336.71,419.42a78.67,78.67,0,0,1-23.3-5.63c-18.52-7.83-29.53-22.27-32.74-42.92l2.57-.4c3.06,19.7,13.55,33.47,31.19,40.93A76.36,76.36,0,0,0,337,416.83Z" transform="translate(-228.34 -345.69)" style="fill:#ef7f4d"/><path d="M339.07,423.78a86,86,0,0,1-27.28-6.15c-19.94-8.44-31.79-24-35.23-46.12l2.57-.4c3.29,21.22,14.62,36.06,33.67,44.12a83.2,83.2,0,0,0,26.44,5.95Z" transform="translate(-228.34 -345.69)" style="fill:#e60012"/><path d="M334.88,415A73.69,73.69,0,0,1,315,410c-17.1-7.24-27.28-20.6-30.25-39.73l2.57-.4c2.83,18.18,12.48,30.87,28.7,37.73a70.49,70.49,0,0,0,19.14,4.89Z" transform="translate(-228.34 -345.69)" style="fill:#f8caba"/><path d="M247,392.47l-.05-2.61c.81,0,19.89-.56,30.7-15.51.66-.91,1.3-1.88,1.89-2.86l2.23,1.34c-.63,1.05-1.31,2.07-2,3.05C268.23,391.87,247.89,392.45,247,392.47Z" transform="translate(-228.34 -345.69)" style="fill:#ef7f4d"/><path d="M247.11,396.63l-.05-2.6c2.24,0,22.18-.91,34-17.24.73-1,1.43-2.07,2.09-3.16l2.23,1.35c-.7,1.14-1.44,2.27-2.21,3.34C270.61,395.67,249.48,396.58,247.11,396.63Z" transform="translate(-228.34 -345.69)" style="fill:#e60012"/><path d="M247,388.3l0-2.6c.72,0,17.8-.51,27.4-13.79.6-.81,1.17-1.68,1.7-2.57l2.23,1.34c-.57,1-1.18,1.88-1.82,2.76C266.06,387.76,247.73,388.29,247,388.3Z" transform="translate(-228.34 -345.69)" style="fill:#f8caba"/><path d="M276.32,348.6a13.64,13.64,0,0,1,.15,27.27h-.16a13.64,13.64,0,0,1-.16-27.27h.17m0-2.6h-.2a16.31,16.31,0,0,0-11.86,5.36,16.23,16.23,0,0,0,12.05,27.11h.19a16.24,16.24,0,0,0-.18-32.47Z" transform="translate(-228.34 -345.69)" style="fill:#e60012"/><path d="M276.32,352.77a9.47,9.47,0,0,1,.1,18.94h-.11a9.47,9.47,0,0,1-.11-18.94h.12m0-2.61h-.15a12.06,12.06,0,0,0-11.91,12.69,12.08,12.08,0,0,0,12.05,11.45h.14a12.06,12.06,0,0,0,11.91-12.69,12.06,12.06,0,0,0-12-11.46Z" transform="translate(-228.34 -345.69)" style="fill:#ef7f4d"/><path d="M276.32,356.93a5.31,5.31,0,0,1,3.94,8.86,5.35,5.35,0,0,1-3.89,1.76h-.06a5.31,5.31,0,0,1-3.55-1.37,5.23,5.23,0,0,1-1.75-3.67,5.31,5.31,0,0,1,1.36-3.83,5.37,5.37,0,0,1,3.88-1.75h.07m0-2.6h-.1a7.91,7.91,0,0,0,.09,15.82h.09a8,8,0,0,0,5.79-2.61,7.91,7.91,0,0,0-5.87-13.21Z" transform="translate(-228.34 -345.69)" style="fill:#f8caba"/><path d="M261.63,381.73a44.79,44.79,0,0,1-19.42-4.32l1.22-2.3a42.54,42.54,0,0,0,28.15,2.81,41.91,41.91,0,0,0,7.68-2.74c1.12-.53,2.25-1.12,3.35-1.75l1.3,2.25c-1.16.67-2.35,1.3-3.55,1.86a45.8,45.8,0,0,1-8.15,2.91A44.09,44.09,0,0,1,261.63,381.73Z" transform="translate(-228.34 -345.69)" style="fill:#e60012"/><path d="M300.83,348.29a21.79,21.79,0,0,1,.24,43.57h-.26a21.79,21.79,0,0,1-.25-43.57h.27m0-2.6h-.3a24.48,24.48,0,0,0-17.82,8.05,24.39,24.39,0,0,0,18.1,40.72h.3a24.49,24.49,0,0,0,17.82-8,24.39,24.39,0,0,0-18.1-40.72Z" transform="translate(-228.34 -345.69)" style="fill:#e60012"/><path d="M300.83,352.45a17.62,17.62,0,0,1,.19,35.24h-.21a17.63,17.63,0,0,1-.2-35.25h.22m0-2.6h-.25a20.21,20.21,0,0,0-19.95,21.26,20.21,20.21,0,0,0,20.18,19.19h.25a20.3,20.3,0,0,0,14.77-6.68,20.23,20.23,0,0,0-15-33.77Z" transform="translate(-228.34 -345.69)" style="fill:#ef7f4d"/><path d="M300.83,356.62a13.46,13.46,0,0,1,.14,26.91h-.16a13.42,13.42,0,0,1-13.42-12.76,13.31,13.31,0,0,1,3.44-9.71,13.46,13.46,0,0,1,9.83-4.44h.17m0-2.61h-.2a16.06,16.06,0,0,0,.18,32.11h.2a16.06,16.06,0,0,0-.18-32.12Z" transform="translate(-228.34 -345.69)" style="fill:#f8caba"/><path d="M242.67,490.74a2.69,2.69,0,0,1-1.64-.88,15.66,15.66,0,0,1-2-2.31c-.68-.95-1.36-2-2-3.12s-1.29-2.26-1.86-3.39-1-2.14-1.42-3q-.9,3.13-1.73,6.16t-1.57,5.49a2.54,2.54,0,0,1-1.46-.45,1.35,1.35,0,0,1-.65-1.15,2.72,2.72,0,0,1,.16-.85c.1-.33.2-.63.29-.91q.79-2.54,1.56-4.77c.52-1.49,1-2.93,1.51-4.32s1-2.76,1.52-4.13,1.07-2.74,1.65-4.13,1.19-2.82,1.85-4.32a9.91,9.91,0,0,0-2.33.66,13.87,13.87,0,0,0-1.6.8,2.12,2.12,0,0,1-.84.37.8.8,0,0,1-.36-.15,1.83,1.83,0,0,1-.44-.35.62.62,0,0,1-.19-.37c.56-.23,1.21-.49,1.95-.76a17.21,17.21,0,0,1,2.47-.71,13.3,13.3,0,0,1,2.78-.29,12.38,12.38,0,0,1,2.8.34,9.07,9.07,0,0,1,2.63,1.06,5.9,5.9,0,0,1,1.93,1.85,5.43,5.43,0,0,1,0,5.44,6.37,6.37,0,0,1-1.89,1.91,11.26,11.26,0,0,1-2.54,1.23,19.1,19.1,0,0,1-2.72.7,23.16,23.16,0,0,1-2.44.32c-.72.06-1.27.08-1.63.08q1,1.69,1.89,3.3t1.95,3.18a28.74,28.74,0,0,0,2.5,3.19,31.2,31.2,0,0,0,3.49,3.26,1.85,1.85,0,0,1-.69.74A1.8,1.8,0,0,1,242.67,490.74Zm-8.41-14.5a17.34,17.34,0,0,0,3.5-.56,13.24,13.24,0,0,0,3.25-1.31,7.23,7.23,0,0,0,2.37-2.15,5.25,5.25,0,0,0,.89-3.08,4.18,4.18,0,0,0-.83-2.77,4.58,4.58,0,0,0-2.14-1.44,8.7,8.7,0,0,0-2.75-.43,46.43,46.43,0,0,0-2.18,5.29Q235.27,472.88,234.26,476.24Z" transform="translate(-228.34 -345.69)" style="fill:#3e3a39"/><path d="M246.77,495.82a2.38,2.38,0,0,1-1.41-.43,1.47,1.47,0,0,1-.61-1.26,3.37,3.37,0,0,1,.52-1.83,6.07,6.07,0,0,1,1.37-1.47,14.86,14.86,0,0,1,2-1.28c.74-.4,1.52-.81,2.33-1.21.3-.79.61-1.67.92-2.64s.6-2.05.87-3.22a16.17,16.17,0,0,1-2.19,2.86,3.44,3.44,0,0,1-2.48,1.2,2.9,2.9,0,0,1-1.2-.27,2.26,2.26,0,0,1-1-.85,2.55,2.55,0,0,1-.39-1.47,8.25,8.25,0,0,1,.31-2.08,18.17,18.17,0,0,1,.75-2.3,10.7,10.7,0,0,1,.93-1.86c.32-.49.59-.73.83-.73a2.17,2.17,0,0,1,.46.09,3.32,3.32,0,0,1,.64.27c.21.12.31.24.31.37a6.88,6.88,0,0,0-.64,1.19,17.84,17.84,0,0,0-.69,1.71,18.19,18.19,0,0,0-.56,1.84,6.52,6.52,0,0,0-.23,1.53,1.53,1.53,0,0,0,.26.93,1,1,0,0,0,.9.35,2.27,2.27,0,0,0,1.36-.59,9.41,9.41,0,0,0,1.5-1.52,17.53,17.53,0,0,0,1.39-2q.11-.36.18-.72c.05-.25.1-.5.14-.75a3.41,3.41,0,0,1,.47-1,1.25,1.25,0,0,1,1.16-.6l.32,0a1.82,1.82,0,0,1,.36.08,10.27,10.27,0,0,1-.31,1.9c-.2.93-.49,2-.86,3.25s-.82,2.51-1.33,3.81a9.31,9.31,0,0,0,2.94-1.9,9.77,9.77,0,0,0,2.34-3.54l.42.32a7.44,7.44,0,0,1-1.46,2.67,10.64,10.64,0,0,1-2.19,1.95,16.33,16.33,0,0,1-2.4,1.36,38,38,0,0,1-1.81,3.84,13,13,0,0,1-2,2.9A3.05,3.05,0,0,1,246.77,495.82Zm-.16-1q.48,0,1.62-1.26a16,16,0,0,0,2.41-4.44c-.87.47-1.68.94-2.43,1.4a7.36,7.36,0,0,0-1.79,1.48,2.82,2.82,0,0,0-.67,1.86,1.32,1.32,0,0,0,.19.61A.71.71,0,0,0,246.61,494.8Z" transform="translate(-228.34 -345.69)" style="fill:#3e3a39"/><path d="M260.05,487.89a2.17,2.17,0,0,1-1.95-.85,3.52,3.52,0,0,1-.58-2.06,7.16,7.16,0,0,1,.32-2.05,9.54,9.54,0,0,1,.85-2,5.94,5.94,0,0,1,1.18-1.5,2,2,0,0,1,1.33-.58,1.4,1.4,0,0,1,.34.05l.33.11a4.18,4.18,0,0,0-.68,1,12.12,12.12,0,0,0-.76,1.57,17,17,0,0,0-.59,1.74,5.7,5.7,0,0,0-.24,1.47,2.37,2.37,0,0,0,.32,1.39,1,1,0,0,0,.83.44,2.8,2.8,0,0,0,1.6-.72,11.37,11.37,0,0,0,1.83-1.84,4.82,4.82,0,0,1-1.39-1.94,6.39,6.39,0,0,1-.5-2.45,5.24,5.24,0,0,1,.37-2,3.43,3.43,0,0,1,1.07-1.49,2.65,2.65,0,0,1,1.7-.56,2,2,0,0,1,1.76.7,3.3,3.3,0,0,1,.44,1.76,7.58,7.58,0,0,1-.6,2.77,16.41,16.41,0,0,1-1.54,2.93,2.5,2.5,0,0,0,1.22.32,3.75,3.75,0,0,0,1.15-.21,4,4,0,0,0,1.26-.72,3.68,3.68,0,0,0,1-1.37l.38.32a4.08,4.08,0,0,1-1.8,2.12,4.7,4.7,0,0,1-2.23.63,4.17,4.17,0,0,1-.8-.08,3.12,3.12,0,0,1-.73-.24,11.82,11.82,0,0,1-2.39,2.4A4.24,4.24,0,0,1,260.05,487.89Zm4.7-4.71a12.61,12.61,0,0,0,1.33-2.48,6.52,6.52,0,0,0,.53-2.44,2.62,2.62,0,0,0-.27-1.36.8.8,0,0,0-.69-.44c-.43,0-.86.31-1.31.93a3.88,3.88,0,0,0-.67,2.34,6.77,6.77,0,0,0,.27,1.87A4.15,4.15,0,0,0,264.75,483.18Z" transform="translate(-228.34 -345.69)" style="fill:#3e3a39"/><path d="M279,488.08a2.14,2.14,0,0,1-1.54-.61,4.17,4.17,0,0,1-1-1.53,9.88,9.88,0,0,1-.54-1.91,9.57,9.57,0,0,1-.18-1.71,4.34,4.34,0,0,0,1-.18,6.07,6.07,0,0,0,1.37-.54,3.75,3.75,0,0,0,1.2-1,2.1,2.1,0,0,0,.5-1.39,1.29,1.29,0,0,0-.48-1.06,1.78,1.78,0,0,0-1.12-.38,2.94,2.94,0,0,0-1.86.69,7.05,7.05,0,0,0-1.55,1.79,17.4,17.4,0,0,0-1.23,2.35c-.37.83-.67,1.62-.93,2.37l-.64,1.85a1.39,1.39,0,0,1-.54.79,1.43,1.43,0,0,1-.74.21.82.82,0,0,1-.78-.45,2.8,2.8,0,0,1-.29-1.14c0-.46-.05-.93-.05-1.42a16.18,16.18,0,0,1,.54-3.84,39.41,39.41,0,0,1,1.46-4.53c.61-1.57,1.27-3.09,2-4.56s1.45-2.8,2.18-4a20.64,20.64,0,0,1,2-2.85c.62-.7,1.12-1.05,1.51-1.05s.53.2.72.6a3.66,3.66,0,0,1,.27,1.48,7.4,7.4,0,0,1-.48,2.44,13.68,13.68,0,0,1-1.36,2.74,15.85,15.85,0,0,1-2.08,2.59,13.55,13.55,0,0,1-2.61,2.08,30.62,30.62,0,0,0-1.58,5,19.63,19.63,0,0,0-.53,4.11c.34-.85.75-1.79,1.23-2.81a23,23,0,0,1,1.65-3,10.67,10.67,0,0,1,2-2.3,3.55,3.55,0,0,1,2.28-.9,2.85,2.85,0,0,1,2.84,2.85,2.88,2.88,0,0,1-.52,1.75,4.25,4.25,0,0,1-1.28,1.15,6.7,6.7,0,0,1-1.51.64,4.77,4.77,0,0,1-1.23.21,8.33,8.33,0,0,0,.19.92,9,9,0,0,0,.47,1.41,4.79,4.79,0,0,0,.75,1.27,1.38,1.38,0,0,0,1.09.52,2.71,2.71,0,0,0,1.76-.7,8.4,8.4,0,0,0,1.58-1.87,19.13,19.13,0,0,0,1.39-2.64l.32.32a10.89,10.89,0,0,1-1.37,3,9.51,9.51,0,0,1-2.07,2.27A3.67,3.67,0,0,1,279,488.08Zm-4.68-13.41a14.29,14.29,0,0,0,2.58-2.69,14.64,14.64,0,0,0,1.71-2.89,5.89,5.89,0,0,0,.61-2.19,1.13,1.13,0,0,0,0-.23.07.07,0,0,0-.08-.06c-.21,0-.58.37-1.1,1.12a30.9,30.9,0,0,0-1.78,3C275.61,471.92,275,473.24,274.35,474.67Z" transform="translate(-228.34 -345.69)" style="fill:#3e3a39"/><path d="M286,487.89a2.17,2.17,0,0,1-1.95-.85,3.59,3.59,0,0,1-.58-2.06,7.16,7.16,0,0,1,.32-2.05,10.1,10.1,0,0,1,.85-2,5.75,5.75,0,0,1,1.19-1.5,2,2,0,0,1,1.32-.58,1.4,1.4,0,0,1,.34.05l.34.11a3.87,3.87,0,0,0-.69,1,12.12,12.12,0,0,0-.76,1.57,17,17,0,0,0-.59,1.74,5.7,5.7,0,0,0-.24,1.47,2.37,2.37,0,0,0,.32,1.39,1,1,0,0,0,.84.44,2.77,2.77,0,0,0,1.59-.72,11.37,11.37,0,0,0,1.83-1.84,4.82,4.82,0,0,1-1.39-1.94,6.39,6.39,0,0,1-.5-2.45,5.24,5.24,0,0,1,.37-2,3.43,3.43,0,0,1,1.07-1.49,2.67,2.67,0,0,1,1.7-.56,2,2,0,0,1,1.76.7,3.22,3.22,0,0,1,.44,1.76,7.58,7.58,0,0,1-.6,2.77,16.41,16.41,0,0,1-1.54,2.93,2.53,2.53,0,0,0,1.22.32,3.75,3.75,0,0,0,1.15-.21,3.85,3.85,0,0,0,1.26-.72,3.58,3.58,0,0,0,1-1.37l.38.32a4,4,0,0,1-1.8,2.12,4.7,4.7,0,0,1-2.23.63,4.26,4.26,0,0,1-.8-.08,3.12,3.12,0,0,1-.73-.24,11.82,11.82,0,0,1-2.39,2.4A4.24,4.24,0,0,1,286,487.89Zm4.71-4.71A13.12,13.12,0,0,0,292,480.7a6.52,6.52,0,0,0,.53-2.44,2.62,2.62,0,0,0-.27-1.36.8.8,0,0,0-.69-.44c-.43,0-.86.31-1.31.93a3.88,3.88,0,0,0-.67,2.34,6.77,6.77,0,0,0,.27,1.87A4,4,0,0,0,290.71,483.18Z" transform="translate(-228.34 -345.69)" style="fill:#3e3a39"/><path d="M310.61,489.65a5.39,5.39,0,0,1-3.2-1,6.41,6.41,0,0,1-2.16-2.77,10.41,10.41,0,0,1-.79-4.19,16.91,16.91,0,0,1,.79-5,22.83,22.83,0,0,1,2.13-4.83,22.11,22.11,0,0,1,3-4.11,15,15,0,0,1,3.58-2.87,7.62,7.62,0,0,1,3.71-1.05,5.93,5.93,0,0,1,1.09.09,3,3,0,0,1,.83.29h-.38a6.17,6.17,0,0,0-3.36,1.1,14.38,14.38,0,0,0-3.23,3,24.46,24.46,0,0,0-2.75,4.19,23.76,23.76,0,0,0-1.92,4.82,17.71,17.71,0,0,0-.71,4.83,11.14,11.14,0,0,0,.43,3.17,5.06,5.06,0,0,0,1.39,2.35,3.53,3.53,0,0,0,2.47.88,5.79,5.79,0,0,0,3.36-1.1,11.36,11.36,0,0,0,2.83-3,22.15,22.15,0,0,0,2.18-4.2,29.07,29.07,0,0,0,1.4-4.8,23.65,23.65,0,0,0,.5-4.76,14.86,14.86,0,0,0-.13-1.92,6.12,6.12,0,0,0-.45-1.76c-.21-.49-.5-.73-.86-.73a1.85,1.85,0,0,0-1.25.72,9.71,9.71,0,0,0-1.29,1.81,18.07,18.07,0,0,0-1.11,2.25,12.53,12.53,0,0,0-.67,2.07,2.18,2.18,0,0,1-1.17-.63,1.45,1.45,0,0,1-.37-.94,3.9,3.9,0,0,1,.6-1.91,10.5,10.5,0,0,1,1.5-2,9.56,9.56,0,0,1,1.9-1.6,3.46,3.46,0,0,1,1.8-.63,1.76,1.76,0,0,1,1.36.61,4.49,4.49,0,0,1,.83,1.55,10.63,10.63,0,0,1,.42,2c.07.72.11,1.38.11,2a23.69,23.69,0,0,1-.79,6.35,19.25,19.25,0,0,1-2.11,5,16.68,16.68,0,0,1-3,3.67,12.7,12.7,0,0,1-3.34,2.24A8.12,8.12,0,0,1,310.61,489.65Z" transform="translate(-228.34 -345.69)" style="fill:#3e3a39"/><path d="M333.23,488.08a2.1,2.1,0,0,1-1.53-.61,4.05,4.05,0,0,1-1-1.53,9.91,9.91,0,0,1-.55-1.91,10.47,10.47,0,0,1-.17-1.71,4.36,4.36,0,0,0,1-.18,6,6,0,0,0,1.38-.54,3.75,3.75,0,0,0,1.2-1,2.09,2.09,0,0,0,.49-1.39,1.29,1.29,0,0,0-.48-1.06,1.76,1.76,0,0,0-1.12-.38,2.89,2.89,0,0,0-1.85.69,6.68,6.68,0,0,0-1.55,1.79,18.66,18.66,0,0,0-1.24,2.35c-.36.83-.67,1.62-.92,2.37l-.64,1.85a1.35,1.35,0,0,1-.55.79,1.4,1.4,0,0,1-.73.21.82.82,0,0,1-.79-.45,3,3,0,0,1-.29-1.14c0-.46,0-.93,0-1.42a16.18,16.18,0,0,1,.54-3.84,37.54,37.54,0,0,1,1.46-4.53q.9-2.36,2-4.56c.72-1.47,1.45-2.8,2.17-4a21.49,21.49,0,0,1,2-2.85q.93-1.05,1.5-1.05t.72.6a3.66,3.66,0,0,1,.27,1.48,7.4,7.4,0,0,1-.48,2.44,13.17,13.17,0,0,1-1.36,2.74,15.34,15.34,0,0,1-2.08,2.59A13.5,13.5,0,0,1,328,476a29.76,29.76,0,0,0-1.59,5,20.33,20.33,0,0,0-.53,4.11c.35-.85.76-1.79,1.24-2.81a24.16,24.16,0,0,1,1.64-3,10.7,10.7,0,0,1,2-2.3,3.53,3.53,0,0,1,2.27-.9,2.85,2.85,0,0,1,2.85,2.85,2.89,2.89,0,0,1-.53,1.75,4.13,4.13,0,0,1-1.28,1.15,6.45,6.45,0,0,1-1.5.64,4.77,4.77,0,0,1-1.23.21,8.33,8.33,0,0,0,.19.92,8.87,8.87,0,0,0,.46,1.41,5.39,5.39,0,0,0,.75,1.27,1.39,1.39,0,0,0,1.09.52,2.67,2.67,0,0,0,1.76-.7,8.42,8.42,0,0,0,1.59-1.87,19.13,19.13,0,0,0,1.39-2.64l.32.32a10.63,10.63,0,0,1-1.38,3,9.48,9.48,0,0,1-2.06,2.27A3.68,3.68,0,0,1,333.23,488.08Zm-4.67-13.41a14.29,14.29,0,0,0,2.58-2.69,15.68,15.68,0,0,0,1.71-2.89,6.09,6.09,0,0,0,.61-2.19,1.13,1.13,0,0,0,0-.23.08.08,0,0,0-.08-.06c-.21,0-.58.37-1.1,1.12a29,29,0,0,0-1.78,3C329.82,471.92,329.18,473.24,328.56,474.67Z" transform="translate(-228.34 -345.69)" style="fill:#3e3a39"/><path d="M339.54,488.37a2.31,2.31,0,0,1-1.68-.66,2.62,2.62,0,0,1-.69-2,7,7,0,0,1,.51-2.48,12.41,12.41,0,0,1,1.41-2.62,14.36,14.36,0,0,1,2-2.37,10.59,10.59,0,0,1,2.4-1.71,5.47,5.47,0,0,1,2.51-.64,3.29,3.29,0,0,1,2.08.65,2.1,2.1,0,0,1,.83,1.75,1.23,1.23,0,0,1-.43,1.09,2,2,0,0,1-1.13.28c0-.17.08-.35.11-.56a3.75,3.75,0,0,0,.05-.56,2.17,2.17,0,0,0-.36-1.26,1.35,1.35,0,0,0-1.21-.53,3.26,3.26,0,0,0-1.83.63,8.82,8.82,0,0,0-1.79,1.66,14.23,14.23,0,0,0-1.53,2.26,13.87,13.87,0,0,0-1.06,2.4,6.79,6.79,0,0,0-.38,2.11c0,.83.28,1.25.86,1.25a2.66,2.66,0,0,0,1.6-.69,13.31,13.31,0,0,0,1.78-1.76c.6-.72,1.18-1.46,1.74-2.23s1.05-1.47,1.47-2.11c.09-.13.14-.19.16-.19a2.86,2.86,0,0,1,.5.13,2,2,0,0,1,.53.25.5.5,0,0,1,.22.42,1.75,1.75,0,0,1-.29.78l-.64,1.14c-.23.43-.45.86-.64,1.3a3.05,3.05,0,0,0-.29,1.23,1.93,1.93,0,0,0,.26.94.88.88,0,0,0,.83.47,3.92,3.92,0,0,0,2.27-1.27,15.06,15.06,0,0,0,2.85-3.79l.32.32a11.25,11.25,0,0,1-1.73,3,8.73,8.73,0,0,1-2.25,2,4.5,4.5,0,0,1-2.35.73,2.11,2.11,0,0,1-1.75-.7,2.44,2.44,0,0,1-.56-1.54,3.59,3.59,0,0,1,0-.43c0-.16.05-.32.07-.49a16.39,16.39,0,0,1-2.51,2.78A3.65,3.65,0,0,1,339.54,488.37Z" transform="translate(-228.34 -345.69)" style="fill:#3e3a39"/><path d="M249.14,459.11a2.08,2.08,0,0,1-.46-.06,1.44,1.44,0,0,1-.51-.22,1.16,1.16,0,0,1-.42-.43,1.41,1.41,0,0,1-.16-.73,6,6,0,0,1,.31-1.66c.2-.69.43-1.46.7-2.3.2-.64.4-1.32.59-2s.35-1.39.48-2.09a11.84,11.84,0,0,0,.19-2c0-.44,0-.86-.05-1.24a2,2,0,0,0-.27-.93.84.84,0,0,0-.76-.35,1.29,1.29,0,0,0-.86.3,2.34,2.34,0,0,0-.57.76,4.12,4.12,0,0,0-.33,1,5.92,5.92,0,0,0-.1,1,2.48,2.48,0,0,0,.17,1,1.15,1.15,0,0,1-1-.39,1.44,1.44,0,0,1-.29-.91,2.73,2.73,0,0,1,.26-1.12,3.84,3.84,0,0,1,1.77-1.79,2.77,2.77,0,0,1,1.26-.29,1.84,1.84,0,0,1,1.67.87,4.39,4.39,0,0,1,.55,2.33,11.7,11.7,0,0,1-.37,2.78c-.25,1-.52,1.93-.82,2.85-.19.61-.38,1.18-.55,1.72a15.43,15.43,0,0,0-.42,1.51,5.15,5.15,0,0,0-.17,1.2,1.1,1.1,0,0,0,.11.53.46.46,0,0,0,.43.17,1.69,1.69,0,0,0,1-.42,6.39,6.39,0,0,0,1.12-1.14,17,17,0,0,0,1.1-1.59c.35-.59.67-1.18,1-1.79s.54-1.2.74-1.75a7.49,7.49,0,0,0,.37-1.42,1,1,0,0,1,.83.3,1,1,0,0,1,.25.58,2.71,2.71,0,0,1-.24.88c-.15.4-.34.84-.56,1.33s-.36.9-.55,1.39a13.3,13.3,0,0,0-.46,1.48,5.47,5.47,0,0,0-.19,1.4,1.4,1.4,0,0,0,.09.55c.06.14.2.2.41.2a2,2,0,0,0,1.17-.51,8.34,8.34,0,0,0,1.38-1.4,19.56,19.56,0,0,0,1.39-2,22.27,22.27,0,0,0,1.21-2.33,16.33,16.33,0,0,0,.86-2.38,8.07,8.07,0,0,0,.33-2.17,2.53,2.53,0,0,0-.27-1.32,1.26,1.26,0,0,0-.72-.55,2,2,0,0,1,.53-.63,1,1,0,0,1,.51-.2,1,1,0,0,1,.74.49,2.57,2.57,0,0,1,.36,1.51,8,8,0,0,1-.37,2.25,19.08,19.08,0,0,1-1,2.62,22.51,22.51,0,0,1-1.44,2.64,19.28,19.28,0,0,1-1.69,2.3,9.71,9.71,0,0,1-1.75,1.64,2.8,2.8,0,0,1-1.6.61,1.78,1.78,0,0,1-.7-.14,1.47,1.47,0,0,1-.6-.44,1.13,1.13,0,0,1-.25-.77,3.56,3.56,0,0,1,.1-.69c.07-.28.16-.59.26-.93a11.91,11.91,0,0,1-1.88,2.14A2.89,2.89,0,0,1,249.14,459.11Z" transform="translate(-228.34 -345.69)" style="fill:#3e3a39"/><path d="M263.09,458.34a2,2,0,0,1-2.2-2.09,4.18,4.18,0,0,1,.41-1.71,7.11,7.11,0,0,1,1.08-1.69,6.16,6.16,0,0,1,1.48-1.29,3.06,3.06,0,0,1,1.6-.49,1.49,1.49,0,0,1,.77.21,1,1,0,0,1,.35.89,2.33,2.33,0,0,1-.4,1.28,4.35,4.35,0,0,1-1.07,1.07,6.4,6.4,0,0,1-1.44.77,5.92,5.92,0,0,1-1.55.37,2.21,2.21,0,0,0-.06.34c0,.11,0,.21,0,.3a1.9,1.9,0,0,0,.07.54,1.26,1.26,0,0,0,.22.5,1.09,1.09,0,0,0,.44.35,1.62,1.62,0,0,0,.7.13,3.08,3.08,0,0,0,1.53-.44,5.85,5.85,0,0,0,1.4-1.17,7.32,7.32,0,0,0,1.1-1.58l.21.16a6.65,6.65,0,0,1-1.23,1.88,6.21,6.21,0,0,1-1.62,1.23A3.93,3.93,0,0,1,263.09,458.34Zm-.88-3a8,8,0,0,0,1.09-.48,7.81,7.81,0,0,0,1.18-.75,4.44,4.44,0,0,0,.94-.95,1.94,1.94,0,0,0,.37-1.1.65.65,0,0,0-.07-.31.36.36,0,0,0-.31-.11,1.69,1.69,0,0,0-.92.34,4.68,4.68,0,0,0-.93.87,7.78,7.78,0,0,0-.81,1.19A5.78,5.78,0,0,0,262.21,455.32Z" transform="translate(-228.34 -345.69)" style="fill:#3e3a39"/><path d="M268.81,458.86a1.61,1.61,0,0,1-1.39-.61,2.68,2.68,0,0,1-.46-1.66,9.1,9.1,0,0,1,.3-2.12,26.76,26.76,0,0,1,.81-2.57c.34-.89.72-1.76,1.13-2.61a25.86,25.86,0,0,1,1.25-2.32,11.12,11.12,0,0,1,1.19-1.65c.37-.42.68-.62.92-.62s.35.12.44.37a2.29,2.29,0,0,1,.13.76,4.45,4.45,0,0,1-.21,1.22,10.33,10.33,0,0,1-.62,1.54,14.36,14.36,0,0,1-.91,1.61,11.9,11.9,0,0,1-1.13,1.45,5.49,5.49,0,0,1-1.23,1,6,6,0,0,0-.32.82,11.58,11.58,0,0,0-.37,1.42,7.05,7.05,0,0,0-.18,1.56,2.84,2.84,0,0,0,.23,1.21.78.78,0,0,0,.76.48,1.76,1.76,0,0,0,1.08-.43,3,3,0,0,0,.9-1.08,2.28,2.28,0,0,1-1-1,3.06,3.06,0,0,1-.32-1.33,2,2,0,0,1,.45-1.38,1.35,1.35,0,0,1,1.06-.52,1,1,0,0,1,.83.42,2.1,2.1,0,0,1,.31,1.23,4.86,4.86,0,0,1-.17,1.23,5.65,5.65,0,0,1-.46,1.22l.22,0h.24a1.75,1.75,0,0,0,1.08-.31,2.72,2.72,0,0,0,.73-.78,6.62,6.62,0,0,0,.5-.87l.21.24a3.22,3.22,0,0,1-1.19,1.64,2.71,2.71,0,0,1-1.38.41l-.29,0-.29,0a5.15,5.15,0,0,1-1.19,1.42A2.55,2.55,0,0,1,268.81,458.86Zm.42-6.87a6.76,6.76,0,0,0,1-1,15.81,15.81,0,0,0,.89-1.31c.27-.46.52-.91.74-1.36a10.74,10.74,0,0,0,.5-1.2,2.86,2.86,0,0,0,.18-.81.29.29,0,0,0,0-.12.05.05,0,0,0-.05,0c-.1,0-.28.17-.55.52A11.42,11.42,0,0,0,271,448c-.33.57-.66,1.2-1,1.89A13.49,13.49,0,0,0,269.23,452Zm2.08,4.31a3.6,3.6,0,0,0,.31-.87,4.17,4.17,0,0,0,.11-.94,2.41,2.41,0,0,0-.17-1c-.12-.24-.26-.36-.43-.36s-.33.12-.47.37a1.82,1.82,0,0,0-.21.92,3,3,0,0,0,.2,1A1.63,1.63,0,0,0,271.31,456.3Z" transform="translate(-228.34 -345.69)" style="fill:#3e3a39"/><path d="M281.84,459.11a3.72,3.72,0,0,1-1.06-.15,1.64,1.64,0,0,1-.86-.66c.12-.57.27-1.19.44-1.86s.36-1.35.57-2.05.41-1.39.62-2.07.41-1.31.6-1.9.37-1.1.52-1.55l.36-1,.18-.42c.09-.19.19-.37.31-.57a2.48,2.48,0,0,1,.41-.49.76.76,0,0,1,.51-.21.88.88,0,0,1,.5.18c-.37.86-.75,1.82-1.13,2.86s-.74,2.12-1.08,3.23-.67,2.2-1,3.25-.53,2-.72,2.88l.43.06.35,0a4.91,4.91,0,0,0,2.22-.54,7.77,7.77,0,0,0,2-1.45,10.91,10.91,0,0,0,1.63-2.13,11.45,11.45,0,0,0,1.09-2.54,9.84,9.84,0,0,0,.38-2.67,5.29,5.29,0,0,0-.47-2.4,3.09,3.09,0,0,0-1.29-1.4,4,4,0,0,0-1.93-.45,4.63,4.63,0,0,0-2.1.47,3.74,3.74,0,0,0-1.48,1.26,3.09,3.09,0,0,0-.54,1.78,2.09,2.09,0,0,0,0,.38,1.84,1.84,0,0,0,.06.29,1,1,0,0,1-.84-.3,1.09,1.09,0,0,1-.24-.71,2.27,2.27,0,0,1,.44-1.27,4.65,4.65,0,0,1,1.23-1.18,6.84,6.84,0,0,1,1.8-.87,7.1,7.1,0,0,1,2.18-.33,4.66,4.66,0,0,1,2.6.65A3.75,3.75,0,0,1,290,447a6.59,6.59,0,0,1,.45,2.5,9.42,9.42,0,0,1-.48,3,10.13,10.13,0,0,1-1.34,2.62,10.27,10.27,0,0,1-2,2.09,8.67,8.67,0,0,1-2.35,1.39A6.75,6.75,0,0,1,281.84,459.11Z" transform="translate(-228.34 -345.69)" style="fill:#3e3a39"/><path d="M292.48,458.34a2.14,2.14,0,0,1-1.65-.6,2.17,2.17,0,0,1-.54-1.49,4.16,4.16,0,0,1,.4-1.71,7.11,7.11,0,0,1,1.08-1.69,6.2,6.2,0,0,1,1.49-1.29,3,3,0,0,1,1.6-.49,1.45,1.45,0,0,1,.76.21,1,1,0,0,1,.35.89,2.25,2.25,0,0,1-.4,1.28,4.3,4.3,0,0,1-1.06,1.07,6.62,6.62,0,0,1-1.44.77,6,6,0,0,1-1.56.37c0,.12,0,.23-.05.34a1.62,1.62,0,0,0,0,.3,2.35,2.35,0,0,0,.06.54,1.27,1.27,0,0,0,.23.5,1,1,0,0,0,.44.35,1.55,1.55,0,0,0,.69.13,3,3,0,0,0,1.53-.44,5.85,5.85,0,0,0,1.4-1.17,7,7,0,0,0,1.1-1.58l.22.16a6.9,6.9,0,0,1-1.24,1.88,5.89,5.89,0,0,1-1.62,1.23A3.93,3.93,0,0,1,292.48,458.34Zm-.88-3a8.59,8.59,0,0,0,1.1-.48,8.34,8.34,0,0,0,1.18-.75,4.39,4.39,0,0,0,.93-.95,1.87,1.87,0,0,0,.37-1.1.55.55,0,0,0-.07-.31.36.36,0,0,0-.31-.11,1.66,1.66,0,0,0-.91.34,4.46,4.46,0,0,0-.94.87,7.78,7.78,0,0,0-.81,1.19A5.78,5.78,0,0,0,291.6,455.32Z" transform="translate(-228.34 -345.69)" style="fill:#3e3a39"/><path d="M298.42,458.46a2.24,2.24,0,0,1-1.34-.36,2.06,2.06,0,0,1-.7-.91,3,3,0,0,1-.21-1.08,1.84,1.84,0,0,1,.15-.83,1,1,0,0,1,.35-.43,1.73,1.73,0,0,1,.39-.22.66.66,0,0,0,.26-.14,12.8,12.8,0,0,0,1-1.24,10.42,10.42,0,0,0,.8-1.37v-.22a1.51,1.51,0,0,1,.22-.94.62.62,0,0,1,.48-.28.27.27,0,0,1,.21.07.23.23,0,0,1,.08.16,1.13,1.13,0,0,1-.06.29,2.27,2.27,0,0,0-.05.5,4.19,4.19,0,0,0,.23,1.29c.16.46.31.95.47,1.46a5.27,5.27,0,0,1,.23,1.59c0,.16,0,.31,0,.46s0,.29-.08.42a2.52,2.52,0,0,0,1.18-.56,4.51,4.51,0,0,0,1.08-1.47l.17.18a3,3,0,0,1-1,1.5,3.29,3.29,0,0,1-1.49.64,2.15,2.15,0,0,1-.91,1.14A2.85,2.85,0,0,1,298.42,458.46Zm0-.63a1.54,1.54,0,0,0,.57-.14,1.1,1.1,0,0,0,.56-.74,3.07,3.07,0,0,1-1.34-.59,3.63,3.63,0,0,1-.87-.9c-.27,0-.4.22-.4.63a2,2,0,0,0,.39,1.2A1.26,1.26,0,0,0,298.46,457.83Zm1.22-1.16c0-.13,0-.25.06-.38s0-.29,0-.47a7.28,7.28,0,0,0-.2-1.68c-.14-.56-.26-1.09-.35-1.58-.28.46-.57.89-.88,1.31a8.81,8.81,0,0,1-.87,1,3.24,3.24,0,0,0,.84,1.08A3,3,0,0,0,299.68,456.67Z" transform="translate(-228.34 -345.69)" style="fill:#3e3a39"/><path d="M304,458a1.23,1.23,0,0,1-1.05-.44,1.73,1.73,0,0,1-.34-1.07,4.7,4.7,0,0,1,.15-1c.11-.42.24-.86.41-1.32a9.78,9.78,0,0,1,.58-1.31,4.52,4.52,0,0,1,.72-1,1,1,0,0,1,.73-.38.43.43,0,0,1,.28.09.38.38,0,0,1,.12.3,1.61,1.61,0,0,1-.28.7c-.19.33-.4.7-.66,1.12a9,9,0,0,0-.65,1.32,3.45,3.45,0,0,0-.28,1.32,1.27,1.27,0,0,0,.21.87.94.94,0,0,0,.67.21,2,2,0,0,0,1.31-.61,7.14,7.14,0,0,0,1.46-2.14l.16.18a5.17,5.17,0,0,1-1.5,2.38A3.12,3.12,0,0,1,304,458Zm2.16-8.24a1,1,0,0,1-.51-.14.51.51,0,0,1-.23-.45.8.8,0,0,1,.44-.66,1.62,1.62,0,0,1,.87-.28.68.68,0,0,1,.44.13.52.52,0,0,1,.16.43.9.9,0,0,1-.37.66A1.21,1.21,0,0,1,306.2,449.77Z" transform="translate(-228.34 -345.69)" style="fill:#3e3a39"/><path d="M307.76,462.59a1.15,1.15,0,0,1-.72-.25.94.94,0,0,1-.32-.8,1.69,1.69,0,0,1,.33-1,4.3,4.3,0,0,1,.86-.84,8.12,8.12,0,0,1,1.14-.71l1.18-.61c.17-.42.33-.88.48-1.36s.29-1,.44-1.61a9.45,9.45,0,0,1-1.43,1.64,2.29,2.29,0,0,1-1.51.66,1.16,1.16,0,0,1-1-.49,2.11,2.11,0,0,1-.35-1.26,3.78,3.78,0,0,1,.46-1.78,5.54,5.54,0,0,1,1.2-1.49,6,6,0,0,1,1.57-1,3.72,3.72,0,0,1,1.54-.37,1.3,1.3,0,0,1,.75.17.52.52,0,0,1,.23.41.33.33,0,0,1-.09.25l-.13.11a.48.48,0,0,0-.27-.21,1.44,1.44,0,0,0-.45-.06,2.57,2.57,0,0,0-1.36.41,4.65,4.65,0,0,0-1.16,1.06,6.24,6.24,0,0,0-.8,1.34,3.28,3.28,0,0,0-.3,1.27,1.11,1.11,0,0,0,.17.66.56.56,0,0,0,.46.23,2,2,0,0,0,1.25-.7,10.62,10.62,0,0,0,1.42-1.68,3.83,3.83,0,0,1,.1-.45c0-.13.06-.3.11-.5a1.94,1.94,0,0,1,.26-.59.73.73,0,0,1,.66-.33h.18a.79.79,0,0,1,.2,0,6.21,6.21,0,0,1-.17,1.05c-.12.51-.28,1.11-.49,1.79s-.45,1.37-.73,2.09a6.05,6.05,0,0,0,1.16-.73,6.39,6.39,0,0,0,1-1,4.91,4.91,0,0,0,.74-1.27l.23.18a4.35,4.35,0,0,1-.86,1.48,8,8,0,0,1-1.27,1.15,10.18,10.18,0,0,1-1.24.76,21.5,21.5,0,0,1-1.06,2.2,6.82,6.82,0,0,1-1.16,1.59A1.81,1.81,0,0,1,307.76,462.59Zm-.05-.58c.24,0,.57-.24,1-.71a9.19,9.19,0,0,0,1.34-2.44c-.48.24-.92.49-1.34.75a5.15,5.15,0,0,0-1,.82,1.37,1.37,0,0,0-.39.95.78.78,0,0,0,.12.46A.4.4,0,0,0,307.71,462Z" transform="translate(-228.34 -345.69)" style="fill:#3e3a39"/><path d="M319.9,457.91a1.25,1.25,0,0,1-.95-.33,1.13,1.13,0,0,1-.32-.83,2.58,2.58,0,0,1,.14-.79c.09-.27.18-.56.26-.85a3,3,0,0,0,.13-.86.92.92,0,0,0-.21-.69.72.72,0,0,0-.51-.19,1.84,1.84,0,0,0-1.14.46,7,7,0,0,0-1.11,1.17,16.62,16.62,0,0,0-1,1.47l-.83,1.35a1.72,1.72,0,0,1-.55-.1.88.88,0,0,1-.4-.3,2.56,2.56,0,0,1,.19-.56c.12-.31.27-.69.44-1.15s.32-.92.45-1.4a5.1,5.1,0,0,0,.2-1.32,1.3,1.3,0,0,1,.34-.25,1,1,0,0,1,.48-.12c.33,0,.49.15.49.46a4.57,4.57,0,0,1-.16,1q-.16.68-.42,1.41c.33-.49.69-1,1.09-1.47a6.63,6.63,0,0,1,1.29-1.21,2.32,2.32,0,0,1,1.37-.49,1.11,1.11,0,0,1,1,.5,2.09,2.09,0,0,1,.32,1.12,3,3,0,0,1-.18,1c-.12.31-.24.62-.37.91a2.23,2.23,0,0,0-.19.89.77.77,0,0,0,.15.54.54.54,0,0,0,.39.15,1.33,1.33,0,0,0,.9-.42,6.11,6.11,0,0,0,.87-1.07,10.32,10.32,0,0,0,.75-1.32l.2.24a9.17,9.17,0,0,1-.85,1.56,4.09,4.09,0,0,1-1,1.08A2.06,2.06,0,0,1,319.9,457.91Z" transform="translate(-228.34 -345.69)" style="fill:#3e3a39"/><path d="M324.41,458.34a2.1,2.1,0,0,1-1.64-.6,2.13,2.13,0,0,1-.55-1.49,4.16,4.16,0,0,1,.4-1.71,7.11,7.11,0,0,1,1.08-1.69,6.2,6.2,0,0,1,1.49-1.29,3,3,0,0,1,1.6-.49,1.45,1.45,0,0,1,.76.21,1,1,0,0,1,.35.89,2.25,2.25,0,0,1-.4,1.28,4.14,4.14,0,0,1-1.06,1.07,6.62,6.62,0,0,1-1.44.77,5.9,5.9,0,0,1-1.56.37c0,.12,0,.23-.05.34s0,.21,0,.3a2.35,2.35,0,0,0,.06.54,1.27,1.27,0,0,0,.23.5,1,1,0,0,0,.44.35,1.57,1.57,0,0,0,.69.13,3,3,0,0,0,1.53-.44,5.66,5.66,0,0,0,1.4-1.17,7,7,0,0,0,1.1-1.58l.22.16a7.11,7.11,0,0,1-1.23,1.88,6.21,6.21,0,0,1-1.62,1.23A4,4,0,0,1,324.41,458.34Zm-.88-3a8,8,0,0,0,1.1-.48,7.81,7.81,0,0,0,1.18-.75,4.17,4.17,0,0,0,.93-.95,1.87,1.87,0,0,0,.37-1.1.55.55,0,0,0-.07-.31.36.36,0,0,0-.31-.11,1.66,1.66,0,0,0-.91.34,4.46,4.46,0,0,0-.94.87,7.78,7.78,0,0,0-.81,1.19A5.78,5.78,0,0,0,323.53,455.32Z" transform="translate(-228.34 -345.69)" style="fill:#3e3a39"/><path d="M331.58,458a1.37,1.37,0,0,1-1-.32,1.11,1.11,0,0,1-.35-.85,3.09,3.09,0,0,1,.25-1.13c.17-.39.34-.79.5-1.18a2.81,2.81,0,0,0,.24-1,1.07,1.07,0,0,0-.33-.86c-.22-.18-.45-.35-.68-.51-.27.71-.56,1.38-.86,2s-.55,1.11-.74,1.44l-.16-.31c.17-.31.39-.77.66-1.37s.53-1.28.8-2.05a.58.58,0,0,1-.18-.43,1.27,1.27,0,0,1,.3-.88c.21-.23.36-.34.45-.34s.21.05.23.17a1.58,1.58,0,0,1,0,.26,1.66,1.66,0,0,1-.1.35,1.31,1.31,0,0,0-.1.31.57.57,0,0,0,.28.46l.64.47a2.69,2.69,0,0,1,.63.63,1.51,1.51,0,0,1,.28,1,2.87,2.87,0,0,1-.22,1.09c-.15.37-.3.73-.45,1.07a2.21,2.21,0,0,0-.23.88.48.48,0,0,0,.17.43.65.65,0,0,0,.37.11,1.79,1.79,0,0,0,.9-.27,5,5,0,0,0,.89-.69,6.31,6.31,0,0,0,.77-.87,3.73,3.73,0,0,0,.5-.85l.24.18a6.9,6.9,0,0,1-.94,1.48,5.51,5.51,0,0,1-1.32,1.2A2.77,2.77,0,0,1,331.58,458Z" transform="translate(-228.34 -345.69)" style="fill:#3e3a39"/></svg>