<?xml version="1.0" encoding="utf-8"?>
<!-- Generator: Adobe Illustrator 24.0.0, SVG Export Plug-In . SVG Version: 6.00 Build 0)  -->
<svg version="1.1" id="Layer_1" xmlns="http://www.w3.org/2000/svg" xmlns:xlink="http://www.w3.org/1999/xlink" x="0px" y="0px"
	 viewBox="0 0 249.9 249.9" style="enable-background:new 0 0 249.9 249.9;" xml:space="preserve">
<style type="text/css">
	.st0{fill:#E60012;}
	.st1{fill:#EF7F4D;}
	.st2{fill:#F8CABA;}
</style>
<title>logo_circle</title>
<path class="st0" d="M124.9,5c66.2,0,119.9,53.7,119.9,119.9s-53.7,119.9-119.9,119.9C58.7,244.8,5,191.1,5,124.9
	c0-31.8,12.6-62.3,35.1-84.8C62.6,17.6,93.1,4.9,124.9,5 M124.9,0C55.9,0,0,55.9,0,124.9s55.9,124.9,124.9,124.9
	s124.9-55.9,124.9-124.9c0,0,0,0,0,0C249.9,55.9,193.9,0,124.9,0C124.9,0,124.9,0,124.9,0z"/>
<path class="st1" d="M124.9,13c61.8,0,111.9,50.1,112,111.9c0,61.8-50.1,111.9-111.9,112C63.1,236.9,13,186.8,13,124.9c0,0,0,0,0,0
	C13.1,63.1,63.1,13.1,124.9,13 M124.9,8C60.3,8,8,60.3,8,124.9s52.4,116.9,116.9,116.9s116.9-52.4,116.9-116.9c0,0,0,0,0,0
	C241.8,60.4,189.5,8.1,124.9,8z"/>
<path class="st2" d="M124.9,21c57.4,0,103.9,46.5,104,103.9c0,57.4-46.5,103.9-103.9,104C67.5,228.9,21,182.3,21,124.9c0,0,0,0,0,0
	C21,67.5,67.5,21,124.9,21 M124.9,16C64.8,16,16,64.8,16,124.9s48.8,108.9,108.9,108.9s108.9-48.8,108.9-108.9c0,0,0,0,0,0
	C233.8,64.8,185.1,16.1,124.9,16z"/>
<path class="st1" d="M117.8,239.9c-8.7-14.8-35.5-68.2-15.7-134l4.8,1.4c-19.2,63.8,6.8,115.6,15.2,130L117.8,239.9z"/>
<path class="st0" d="M113.6,248.3c-0.5-0.7-11.2-16.3-18.9-42.2c-7.1-23.6-12.9-60.5-0.3-102.5l4.8,1.4
	c-12.2,40.8-6.6,76.7,0.3,99.6c7.5,25.1,18.1,40.6,18.2,40.8L113.6,248.3z"/>
<path class="st2" d="M122.7,232.3c-5.3-10-9.6-20.5-12.8-31.4c-9.2-31.2-9.3-62.4-0.1-92.7l4.8,1.4c-8.9,29.4-8.8,59.6,0.1,89.9
	c3.1,10.5,7.3,20.8,12.4,30.4L122.7,232.3z"/>
<path class="st1" d="M65.8,122.9c-19.5,0-33.4-7.3-34.3-7.8l2.4-4.4c1.2,0.6,29.2,15.5,61.7,0.7c1.9-0.9,3.8-1.9,5.8-3l0.1-0.1
	l2.3,4.4l-0.1,0.1c-2.1,1.1-4,2.1-6,3.1C86.3,121.1,75.4,122.9,65.8,122.9z"/>
<path class="st2" d="M65.6,114.9c-17.4,0-29.6-6.6-30.2-6.9l2.4-4.4c0.2,0.1,18.8,10.2,42.5,4.6c4.1-1,8.2-2.4,12.1-4.1
	c1.7-0.8,3.5-1.7,5.3-2.7l2.4,4.4c-1.9,1.1-3.8,2-5.7,2.9c-4.2,1.9-8.5,3.4-13,4.5C75.8,114.4,70.5,114.9,65.6,114.9z"/>
<path class="st1" d="M208.3,204.9c-16.4-1.7-31.4-5.6-44.6-11.3c-35.4-15.5-56.2-43.5-61.9-83.2l4.9-0.7c5.4,37.9,25.3,64.6,59,79.3
	c12.8,5.6,27.3,9.3,43.1,11L208.3,204.9z"/>
<path class="st0" d="M212.7,213.4c-19.2-1.5-36.8-5.7-52.2-12.4c-38.1-16.7-60.5-46.7-66.6-89.4l4.9-0.7
	c5.8,40.8,27.3,69.6,63.7,85.5c14.9,6.5,32,10.6,50.6,12L212.7,213.4z"/>
<path class="st2" d="M204.9,196.4c-13.1-1.6-25.9-5-38-10.2c-32.7-14.3-51.9-40.2-57.2-77l4.9-0.7c5,35,23.2,59.6,54.2,73.1
	c11.7,5,24,8.3,36.6,9.8L204.9,196.4z"/>
<path class="st1" d="M36.7,151.1l0-5c1.5,0,38.2-0.6,59.3-29.1c1.3-1.7,2.5-3.5,3.7-5.5l4.3,2.6c-1.3,2.1-2.6,4-3.9,5.8
	C77.3,150.5,38.3,151.1,36.7,151.1z"/>
<path class="st0" d="M36.7,159.1l0-5c4.3,0,42.7-1.3,65.7-32.3c1.4-1.9,2.8-3.9,4.1-6l4.2,2.6c-1.4,2.2-2.8,4.3-4.3,6.4
	C81.9,157.7,41.3,159,36.7,159.1z"/>
<path class="st2" d="M36.6,143.1v-5c0.3,0,34-0.3,52.9-25.9c1.2-1.6,2.3-3.2,3.3-4.9l4.3,2.6c-1.1,1.8-2.3,3.6-3.6,5.3
	C73.1,142.8,36.9,143.1,36.6,143.1z"/>
<path class="st0" d="M93.6,67.5c14.5,0,26.2,11.7,26.2,26.2s-11.7,26.2-26.2,26.2c-14.5,0-26.2-11.7-26.2-26.2
	c0-6.6,2.5-12.9,7-17.8C79.3,70.6,86.3,67.5,93.6,67.5 M93.6,62.5c-17.2,0-31.2,13.9-31.2,31.2c0,17.2,13.9,31.2,31.2,31.2
	c17.2,0,31.2-13.9,31.2-31.2c0-0.4,0-0.9,0-1.3C124.1,75.7,110.3,62.5,93.6,62.5z"/>
<path class="st1" d="M93.6,75.5c10,0,18.2,8.1,18.2,18.2c0,10-8.1,18.2-18.2,18.2c-10,0-18.2-8.1-18.2-18.2c0-4.6,1.7-9,4.8-12.3
	C83.7,77.6,88.5,75.5,93.6,75.5 M93.6,70.5c-12.8,0-23.2,10.4-23.2,23.2c0,12.8,10.4,23.2,23.2,23.2c6.5,0,12.7-2.7,17.1-7.4
	c8.7-9.4,8.1-24.1-1.3-32.8C105,72.7,99.4,70.5,93.6,70.5z"/>
<path class="st2" d="M93.6,83.5c5.6,0,10.2,4.6,10.2,10.2c0,5.6-4.6,10.2-10.2,10.2c-5.6,0-10.2-4.6-10.2-10.2c0-2.6,1-5,2.7-6.9
	C88,84.7,90.8,83.5,93.6,83.5 M93.6,78.5c-8.4,0-15.2,6.8-15.2,15.2c0,0.2,0,0.4,0,0.6c0.3,8.2,7,14.6,15.2,14.6
	c4.2,0,8.3-1.8,11.2-4.9c5.7-6.2,5.3-15.8-0.8-21.5C101.1,80,97.4,78.5,93.6,78.5z"/>
<path class="st0" d="M65.9,130.8c-21.8,0-37.4-8.3-38.2-8.8l2.4-4.4c1,0.5,24.4,13,54,6c5.1-1.2,10.1-2.9,14.8-5.1
	c2.3-1,4.5-2.1,6.5-3.3l2.5,4.4c-2.2,1.2-4.5,2.4-6.9,3.5c-5,2.3-10.3,4.1-15.7,5.4C78.5,130.2,72,130.8,65.9,130.8z"/>
<path class="st0" d="M140.5,67.5c23.1,0,41.8,18.7,41.8,41.8c0,23.1-18.7,41.8-41.8,41.8c-23.1,0-41.8-18.7-41.8-41.8
	c0-10.5,4-20.6,11.1-28.3C117.7,72.3,128.8,67.5,140.5,67.5 M140.5,62.5c-13.1,0-25.5,5.5-34.4,15c-17.6,19-16.4,48.6,2.6,66.2
	c8.7,8,20,12.4,31.8,12.4c25.9,0,46.8-21,46.8-46.9C187.3,83.5,166.3,62.5,140.5,62.5L140.5,62.5z"/>
<path class="st1" d="M140.5,75.5c18.7,0,33.8,15.1,33.8,33.8c0,18.7-15.1,33.8-33.8,33.8c-18.7,0-33.8-15.1-33.8-33.8
	c0-8.5,3.2-16.7,9-23C122.1,79.4,131.1,75.5,140.5,75.5 M140.5,70.5c-10.8,0-21.2,4.5-28.5,12.5c-14.6,15.8-13.6,40.3,2.2,54.9
	c7.2,6.6,16.6,10.3,26.4,10.3c10.8,0,21.1-4.6,28.5-12.5c14.6-15.8,13.6-40.3-2.2-54.9C159.7,74.1,150.3,70.5,140.5,70.5L140.5,70.5
	z"/>
<path class="st2" d="M140.5,83.5c14.2,0,25.8,11.6,25.8,25.8c0,14.2-11.6,25.8-25.8,25.8c-14.2,0-25.8-11.6-25.8-25.8
	c0-6.5,2.5-12.7,6.8-17.5C126.4,86.5,133.3,83.5,140.5,83.5 M140.5,78.5c-17,0-30.9,13.8-30.9,30.8c0,17,13.8,30.9,30.8,30.9
	c8.6,0,16.8-3.6,22.7-9.9c11.6-12.5,10.8-32-1.7-43.6C155.7,81.4,148.3,78.5,140.5,78.5L140.5,78.5z"/>
</svg>
