<svg id="Layer_1" data-name="Layer 1" xmlns="http://www.w3.org/2000/svg" viewBox="0 0 250.02 87.52"><title>logo_long_name</title><path d="M378,461.11c-4.26-6.84-17.52-31.56-9.1-62.67l2.26.62c-8.17,30.19,4.69,54.18,8.83,60.81Z" transform="translate(-172.26 -377.58)" style="fill:#ef7f4d"/><path d="M376.11,465.1a77,77,0,0,1-9.4-19.55,83.62,83.62,0,0,1-1.46-48.09l2.26.62a81.33,81.33,0,0,0,1.43,46.74,74,74,0,0,0,9.07,18.9Z" transform="translate(-172.26 -377.58)" style="fill:#e60012"/><path d="M380.18,457.49a78.24,78.24,0,0,1-6.43-14.56,75,75,0,0,1-1.26-43.5l2.26.61A72.76,72.76,0,0,0,376,442.21a75.06,75.06,0,0,0,6.23,14.11Z" transform="translate(-172.26 -377.58)" style="fill:#f8caba"/><path d="M351.06,406.89a36.25,36.25,0,0,1-15.17-3.23l1.06-2.1a34.13,34.13,0,0,0,29-.46c.91-.45,1.83-1,2.72-1.48l1.2,2c-.95.57-1.92,1.1-2.89,1.58A36,36,0,0,1,351.06,406.89Z" transform="translate(-172.26 -377.58)" style="fill:#ef7f4d"/><path d="M351,403.16a32,32,0,0,1-13.42-2.85l1.06-2.09a30.13,30.13,0,0,0,20,1.6,30.9,30.9,0,0,0,5.61-2.09c.81-.4,1.64-.85,2.44-1.33l1.2,2c-.86.52-1.74,1-2.61,1.42a32.35,32.35,0,0,1-6,2.26A32,32,0,0,1,351,403.16Z" transform="translate(-172.26 -377.58)" style="fill:#f8caba"/><path d="M420,443.54a71,71,0,0,1-21.08-4.74c-16.81-6.8-26.94-19.67-30.12-38.24l2.31-.39c3,17.71,12.69,30,28.69,36.45a68.32,68.32,0,0,0,20.38,4.58Z" transform="translate(-172.26 -377.58)" style="fill:#ef7f4d"/><path d="M422.16,447.44a77.48,77.48,0,0,1-24.68-5.16c-18.09-7.33-29-21.15-32.41-41.08l2.31-.4c3.27,19.08,13.69,32.3,31,39.3a75,75,0,0,0,23.91,5Z" transform="translate(-172.26 -377.58)" style="fill:#e60012"/><path d="M418.26,439.62a65.84,65.84,0,0,1-18-4.3c-15.52-6.28-24.89-18.19-27.83-35.39l2.31-.4c2.8,16.35,11.68,27.66,26.4,33.62a64,64,0,0,0,17.32,4.14Z" transform="translate(-172.26 -377.58)" style="fill:#f8caba"/><path d="M338.74,420.5l-.08-2.34c.73,0,17.92-.79,27.46-14.41.58-.84,1.14-1.71,1.67-2.62l2,1.18c-.55,1-1.15,1.9-1.77,2.78C357.84,419.66,339.52,420.48,338.74,420.5Z" transform="translate(-172.26 -377.58)" style="fill:#ef7f4d"/><path d="M338.88,424.25l-.09-2.34c2-.07,20-1.12,30.4-16,.65-.93,1.27-1.9,1.84-2.88l2,1.18c-.61,1-1.26,2.06-1.94,3C360.05,423.06,341,424.18,338.88,424.25Z" transform="translate(-172.26 -377.58)" style="fill:#e60012"/><path d="M338.61,416.75l-.08-2.34c.65,0,16-.71,24.51-12.82q.79-1.12,1.5-2.34l2,1.18c-.5.86-1,1.7-1.6,2.51C355.83,416,339.31,416.73,338.61,416.75Z" transform="translate(-172.26 -377.58)" style="fill:#f8caba"/><path d="M364.73,380.55h0a12.29,12.29,0,0,1,.32,24.58h-.34a12.29,12.29,0,0,1-.33-24.58h.35m0-2.35h-.41a14.66,14.66,0,0,0-10.62,5,14.64,14.64,0,0,0,11,24.27h.41a14.73,14.73,0,0,0,10.62-5,14.65,14.65,0,0,0-11-24.28Z" transform="translate(-172.26 -377.58)" style="fill:#e60012"/><path d="M364.73,384.3a8.52,8.52,0,0,1,8.5,8,8.43,8.43,0,0,1-2.08,6.19,8.57,8.57,0,0,1-6.2,2.92h-.24a8.54,8.54,0,0,1-.22-17.07h.24m0-2.34h-.31a10.92,10.92,0,0,0-7.9,3.72,10.89,10.89,0,0,0,8.19,18.05H365a10.92,10.92,0,0,0,7.89-3.71A10.88,10.88,0,0,0,364.73,382Z" transform="translate(-172.26 -377.58)" style="fill:#ef7f4d"/><path d="M364.72,388.05a4.79,4.79,0,0,1,3.6,7.94,4.81,4.81,0,0,1-3.47,1.64h-.14a4.79,4.79,0,0,1-.12-9.57h.13m0-2.34h-.19a7.14,7.14,0,0,0-6.93,7.61,7.14,7.14,0,0,0,7.11,6.65h.2a7.13,7.13,0,0,0-.19-14.26Z" transform="translate(-172.26 -377.58)" style="fill:#f8caba"/><path d="M351.13,410.63A40.32,40.32,0,0,1,334.19,407l1.06-2.09a37.7,37.7,0,0,0,32.3-.44c1-.49,2-1,3-1.63l1.21,2c-1.05.62-2.11,1.2-3.18,1.72a40.32,40.32,0,0,1-7.31,2.73A39.09,39.09,0,0,1,351.13,410.63Z" transform="translate(-172.26 -377.58)" style="fill:#e60012"/><path d="M386.93,379.92a19.64,19.64,0,0,1,.53,39.28h-.55a19.64,19.64,0,0,1-.53-39.27h.55m0-2.34h-.61a22,22,0,0,0,.59,44h.61a22,22,0,0,0-.59-44Z" transform="translate(-172.26 -377.58)" style="fill:#e60012"/><path d="M386.93,383.67a15.89,15.89,0,0,1,15.84,14.83A15.74,15.74,0,0,1,398.88,410a15.94,15.94,0,0,1-11.53,5.42h-.44a15.89,15.89,0,0,1-.42-31.77h.44m0-2.34h-.51a18.32,18.32,0,0,0-13.23,6.22,18.24,18.24,0,0,0,13.72,30.24h.51a18.29,18.29,0,0,0,13.23-6.23,18.23,18.23,0,0,0-13.72-30.23Z" transform="translate(-172.26 -377.58)" style="fill:#ef7f4d"/><path d="M386.93,387.43h0a12.13,12.13,0,0,1,.32,24.26h-.34a12.14,12.14,0,0,1-.32-24.27h.34m0-2.35h-.4a14.48,14.48,0,0,0,.38,29h.4a14.54,14.54,0,0,0,10.51-5,14.48,14.48,0,0,0-10.89-24Z" transform="translate(-172.26 -377.58)" style="fill:#f8caba"/><path d="M192.42,457a3.72,3.72,0,0,1-2.32-1.23,22.22,22.22,0,0,1-2.77-3.24q-1.44-2-2.86-4.39t-2.61-4.77c-.79-1.59-1.46-3-2-4.27-.84,2.94-1.65,5.82-2.43,8.66s-1.51,5.4-2.2,7.72a3.62,3.62,0,0,1-2-.63,1.9,1.9,0,0,1-.92-1.62,4,4,0,0,1,.22-1.2c.15-.46.29-.89.41-1.28.75-2.37,1.48-4.6,2.2-6.71s1.43-4.12,2.12-6.07,1.4-3.88,2.13-5.8,1.51-3.86,2.32-5.81,1.68-4,2.61-6.07a13.74,13.74,0,0,0-3.28.92,19.54,19.54,0,0,0-2.25,1.12,3,3,0,0,1-1.17.52,1.19,1.19,0,0,1-.52-.2,2.67,2.67,0,0,1-.61-.5.8.8,0,0,1-.27-.51c.78-.33,1.7-.69,2.75-1.08a24.91,24.91,0,0,1,3.46-1,18.68,18.68,0,0,1,3.92-.4,17.28,17.28,0,0,1,3.93.47,12.76,12.76,0,0,1,3.69,1.49,8.13,8.13,0,0,1,2.73,2.61,6.92,6.92,0,0,1,1,3.85,7,7,0,0,1-1,3.8A9.06,9.06,0,0,1,194,434a16,16,0,0,1-3.57,1.73,28.05,28.05,0,0,1-3.83,1q-1.89.33-3.42.45c-1,.07-1.78.11-2.29.11q1.4,2.38,2.65,4.64t2.75,4.47a39,39,0,0,0,3.51,4.48,43.39,43.39,0,0,0,4.9,4.59,2.57,2.57,0,0,1-1,1A2.5,2.5,0,0,1,192.42,457Zm-11.84-20.38a24.67,24.67,0,0,0,4.93-.79,18.52,18.52,0,0,0,4.57-1.84,10.12,10.12,0,0,0,3.33-3,7.43,7.43,0,0,0,1.26-4.34,5.92,5.92,0,0,0-1.17-3.89,6.44,6.44,0,0,0-3-2,12.44,12.44,0,0,0-3.87-.61,70,70,0,0,0-3.06,7.45Q182,431.85,180.58,436.57Z" transform="translate(-172.26 -377.58)" style="fill:#3e3a39"/><path d="M198.18,464.11a3.3,3.3,0,0,1-2-.61,2,2,0,0,1-.86-1.78,4.64,4.64,0,0,1,.72-2.56,8.36,8.36,0,0,1,1.94-2.07,20.36,20.36,0,0,1,2.79-1.8c1.05-.57,2.14-1.14,3.28-1.71.42-1.11.85-2.35,1.28-3.71s.85-2.87,1.24-4.53a22.81,22.81,0,0,1-3.08,4,4.85,4.85,0,0,1-3.49,1.69,4.11,4.11,0,0,1-1.69-.38,3.33,3.33,0,0,1-1.37-1.19,3.67,3.67,0,0,1-.54-2.08,11.77,11.77,0,0,1,.43-2.92,25.56,25.56,0,0,1,1.06-3.24,15.07,15.07,0,0,1,1.3-2.61c.45-.69.84-1,1.17-1a2.73,2.73,0,0,1,.65.13,4,4,0,0,1,.9.38c.29.17.43.34.43.52a11.75,11.75,0,0,0-.9,1.66c-.33.73-.65,1.53-1,2.41s-.57,1.75-.78,2.59a9.17,9.17,0,0,0-.32,2.16,2.13,2.13,0,0,0,.36,1.3,1.43,1.43,0,0,0,1.26.5,3.23,3.23,0,0,0,1.91-.83,13.86,13.86,0,0,0,2.12-2.14,25.72,25.72,0,0,0,2-2.79c.09-.33.17-.67.24-1s.15-.7.21-1.06a4.59,4.59,0,0,1,.65-1.46,1.77,1.77,0,0,1,1.64-.83,3.39,3.39,0,0,1,.45,0,2.06,2.06,0,0,1,.5.11,16,16,0,0,1-.43,2.68c-.29,1.3-.69,2.83-1.22,4.56s-1.14,3.53-1.86,5.36a13,13,0,0,0,4.14-2.68,13.52,13.52,0,0,0,3.28-5l.59.45a10.63,10.63,0,0,1-2.05,3.76,15.36,15.36,0,0,1-3.08,2.74,24.88,24.88,0,0,1-3.38,1.92,56.21,56.21,0,0,1-2.54,5.4,19.29,19.29,0,0,1-2.88,4.07A4.37,4.37,0,0,1,198.18,464.11Zm-.23-1.44c.45,0,1.21-.59,2.27-1.78a22.06,22.06,0,0,0,3.4-6.23c-1.23.66-2.37,1.31-3.42,2a10.16,10.16,0,0,0-2.52,2.09,3.93,3.93,0,0,0-.94,2.61,1.91,1.91,0,0,0,.27.86A1,1,0,0,0,198,462.67Z" transform="translate(-172.26 -377.58)" style="fill:#3e3a39"/><path d="M216.85,453a3.08,3.08,0,0,1-2.74-1.19,5,5,0,0,1-.81-2.9,10,10,0,0,1,.45-2.89,13.78,13.78,0,0,1,1.19-2.79,8.26,8.26,0,0,1,1.66-2.11,2.85,2.85,0,0,1,1.87-.81,1.58,1.58,0,0,1,.47.07,3.38,3.38,0,0,1,.48.16,5.58,5.58,0,0,0-1,1.32,16.28,16.28,0,0,0-1.06,2.21,22.1,22.1,0,0,0-.83,2.45,7.76,7.76,0,0,0-.34,2.07,3.35,3.35,0,0,0,.45,2,1.41,1.41,0,0,0,1.17.61,3.92,3.92,0,0,0,2.25-1,15.29,15.29,0,0,0,2.57-2.58,6.76,6.76,0,0,1-2-2.73,8.82,8.82,0,0,1-.7-3.44,7.4,7.4,0,0,1,.52-2.79,4.86,4.86,0,0,1,1.51-2.09,3.67,3.67,0,0,1,2.38-.79,2.73,2.73,0,0,1,2.48,1,4.52,4.52,0,0,1,.63,2.48,10.66,10.66,0,0,1-.86,3.89,22.75,22.75,0,0,1-2.16,4.11,3.37,3.37,0,0,0,1.71.45,5.15,5.15,0,0,0,1.62-.29,5.46,5.46,0,0,0,1.78-1,5.28,5.28,0,0,0,1.42-1.93l.54.44a5.78,5.78,0,0,1-2.55,3,6.67,6.67,0,0,1-3.12.88,5.22,5.22,0,0,1-1.13-.12,4.15,4.15,0,0,1-1-.34,16.57,16.57,0,0,1-3.36,3.38A6,6,0,0,1,216.85,453Zm6.62-6.61a18.91,18.91,0,0,0,1.86-3.49,9.07,9.07,0,0,0,.75-3.44,3.68,3.68,0,0,0-.39-1.92,1.11,1.11,0,0,0-1-.6c-.6,0-1.22.43-1.85,1.3a5.46,5.46,0,0,0-.94,3.28,9.31,9.31,0,0,0,.38,2.64A5.9,5.9,0,0,0,223.47,446.34Z" transform="translate(-172.26 -377.58)" style="fill:#3e3a39"/><path d="M243.54,453.22a3.06,3.06,0,0,1-2.16-.85A5.94,5.94,0,0,1,240,450.2a13.81,13.81,0,0,1-.77-2.67,14.28,14.28,0,0,1-.24-2.41,6,6,0,0,0,1.44-.25,9.18,9.18,0,0,0,1.93-.76,5.73,5.73,0,0,0,1.69-1.35,3,3,0,0,0,.7-2,1.79,1.79,0,0,0-.68-1.48,2.38,2.38,0,0,0-1.57-.54,4.13,4.13,0,0,0-2.61,1,10.09,10.09,0,0,0-2.19,2.52,26.53,26.53,0,0,0-1.73,3.31c-.51,1.17-.94,2.28-1.3,3.33l-.9,2.61a1.9,1.9,0,0,1-.77,1.1,2,2,0,0,1-1,.3,1.19,1.19,0,0,1-1.11-.63,4,4,0,0,1-.4-1.6c0-.65-.07-1.31-.07-2a22.64,22.64,0,0,1,.77-5.4,54.24,54.24,0,0,1,2-6.37c.86-2.21,1.8-4.34,2.82-6.42s2-3.94,3.06-5.62a28.76,28.76,0,0,1,2.83-4c.87-1,1.58-1.49,2.12-1.49s.75.29,1,.86a5.09,5.09,0,0,1,.38,2.06,10.47,10.47,0,0,1-.67,3.45,18.36,18.36,0,0,1-1.92,3.84,21.85,21.85,0,0,1-2.92,3.65,19.15,19.15,0,0,1-3.67,2.92,43.33,43.33,0,0,0-2.23,7.09,28.73,28.73,0,0,0-.74,5.78c.48-1.19,1.06-2.52,1.73-4a35,35,0,0,1,2.32-4.14,14.63,14.63,0,0,1,2.84-3.23,5,5,0,0,1,3.19-1.27,4,4,0,0,1,4,4,4,4,0,0,1-.75,2.45,5.57,5.57,0,0,1-1.8,1.62,8.7,8.7,0,0,1-2.11.9,6.58,6.58,0,0,1-1.73.29c0,.25.12.68.27,1.31a12.67,12.67,0,0,0,.65,2,6.61,6.61,0,0,0,1.06,1.78,2,2,0,0,0,1.53.74,3.77,3.77,0,0,0,2.47-1,12,12,0,0,0,2.23-2.63,26.78,26.78,0,0,0,2-3.71l.45.45a14.86,14.86,0,0,1-1.94,4.16,13.43,13.43,0,0,1-2.9,3.19A5.16,5.16,0,0,1,243.54,453.22ZM237,434.37a20.24,20.24,0,0,0,3.62-3.78,21.69,21.69,0,0,0,2.41-4.08,8.3,8.3,0,0,0,.85-3.08,2,2,0,0,0,0-.31c0-.06-.05-.09-.11-.09-.3,0-.82.52-1.56,1.57a45,45,0,0,0-2.49,4.16Q238.28,431.36,237,434.37Z" transform="translate(-172.26 -377.58)" style="fill:#3e3a39"/><path d="M253.35,453a3.1,3.1,0,0,1-2.75-1.19,5,5,0,0,1-.81-2.9,10,10,0,0,1,.45-2.89,14.37,14.37,0,0,1,1.19-2.79,8.28,8.28,0,0,1,1.67-2.11,2.83,2.83,0,0,1,1.87-.81,1.62,1.62,0,0,1,.47.07,3.71,3.71,0,0,1,.47.16,5.87,5.87,0,0,0-1,1.32,17.59,17.59,0,0,0-1.05,2.21,24.49,24.49,0,0,0-.84,2.45,8.12,8.12,0,0,0-.33,2.07,3.35,3.35,0,0,0,.45,2,1.41,1.41,0,0,0,1.17.61,3.92,3.92,0,0,0,2.25-1,15.25,15.25,0,0,0,2.56-2.58,6.85,6.85,0,0,1-2-2.73,9,9,0,0,1-.69-3.44,7.6,7.6,0,0,1,.51-2.79,4.94,4.94,0,0,1,1.51-2.09,3.7,3.7,0,0,1,2.39-.79,2.71,2.71,0,0,1,2.47,1,4.52,4.52,0,0,1,.63,2.48,10.62,10.62,0,0,1-.85,3.89,22.75,22.75,0,0,1-2.16,4.11,3.37,3.37,0,0,0,1.71.45,5.15,5.15,0,0,0,1.62-.29,5.33,5.33,0,0,0,1.77-1,5.17,5.17,0,0,0,1.42-1.93l.54.44a5.81,5.81,0,0,1-2.54,3,6.74,6.74,0,0,1-3.13.88,5.13,5.13,0,0,1-1.12-.12,4.22,4.22,0,0,1-1-.34,16.78,16.78,0,0,1-3.35,3.38A6,6,0,0,1,253.35,453Zm6.61-6.61a19.58,19.58,0,0,0,1.87-3.49,9.24,9.24,0,0,0,.74-3.44,3.79,3.79,0,0,0-.38-1.92,1.13,1.13,0,0,0-1-.6c-.6,0-1.21.43-1.84,1.3a5.46,5.46,0,0,0-.95,3.28,9.68,9.68,0,0,0,.38,2.64A6,6,0,0,0,260,446.34Z" transform="translate(-172.26 -377.58)" style="fill:#3e3a39"/><path d="M288,455.43a7.55,7.55,0,0,1-4.5-1.38,9.11,9.11,0,0,1-3-3.89,14.72,14.72,0,0,1-1.1-5.9,23.87,23.87,0,0,1,1.1-7,33.11,33.11,0,0,1,3-6.79,31.69,31.69,0,0,1,4.27-5.78,20.91,20.91,0,0,1,5-4,10.64,10.64,0,0,1,5.22-1.48,7.87,7.87,0,0,1,1.53.13,3.84,3.84,0,0,1,1.17.41h-.54a8.57,8.57,0,0,0-4.72,1.55,20.22,20.22,0,0,0-4.55,4.18,35.73,35.73,0,0,0-6.57,12.67,25,25,0,0,0-1,6.79,15.56,15.56,0,0,0,.61,4.46,7.06,7.06,0,0,0,2,3.31,4.93,4.93,0,0,0,3.46,1.23,8,8,0,0,0,4.73-1.55,15.77,15.77,0,0,0,4-4.2,31.71,31.71,0,0,0,3.06-5.92,40.9,40.9,0,0,0,2-6.75,34.51,34.51,0,0,0,.7-6.69,21.81,21.81,0,0,0-.18-2.69,9.07,9.07,0,0,0-.63-2.48c-.3-.69-.71-1-1.22-1a2.57,2.57,0,0,0-1.75,1,13.77,13.77,0,0,0-1.83,2.54,28.16,28.16,0,0,0-1.55,3.17,17.75,17.75,0,0,0-.94,2.9,3,3,0,0,1-1.65-.87,2,2,0,0,1-.51-1.33,5.46,5.46,0,0,1,.83-2.68,15.07,15.07,0,0,1,2.11-2.83,13.41,13.41,0,0,1,2.68-2.25,4.82,4.82,0,0,1,2.52-.88,2.41,2.41,0,0,1,1.91.86,6,6,0,0,1,1.17,2.18,13.91,13.91,0,0,1,.59,2.83c.1,1,.16,1.95.16,2.82a33.59,33.59,0,0,1-1.11,8.93,27.19,27.19,0,0,1-3,7.09,23.36,23.36,0,0,1-4.16,5.15,17.75,17.75,0,0,1-4.7,3.15A11.49,11.49,0,0,1,288,455.43Z" transform="translate(-172.26 -377.58)" style="fill:#3e3a39"/><path d="M319.77,453.22a3.06,3.06,0,0,1-2.16-.85,5.94,5.94,0,0,1-1.42-2.17,13.81,13.81,0,0,1-.77-2.67,14.28,14.28,0,0,1-.24-2.41,6,6,0,0,0,1.44-.25,9.18,9.18,0,0,0,1.93-.76,5.73,5.73,0,0,0,1.69-1.35,3,3,0,0,0,.7-2,1.79,1.79,0,0,0-.68-1.48,2.38,2.38,0,0,0-1.57-.54,4.13,4.13,0,0,0-2.61,1,10.09,10.09,0,0,0-2.19,2.52,26.53,26.53,0,0,0-1.73,3.31c-.51,1.17-.94,2.28-1.3,3.33l-.9,2.61a1.9,1.9,0,0,1-.77,1.1,2,2,0,0,1-1,.3,1.18,1.18,0,0,1-1.11-.63,4,4,0,0,1-.4-1.6c0-.65-.07-1.31-.07-2a22.64,22.64,0,0,1,.77-5.4,54.24,54.24,0,0,1,2-6.37c.86-2.21,1.8-4.34,2.82-6.42s2-3.94,3.06-5.62a28.76,28.76,0,0,1,2.83-4c.87-1,1.58-1.49,2.12-1.49s.75.29,1,.86a5.09,5.09,0,0,1,.38,2.06,10.47,10.47,0,0,1-.67,3.45,18.36,18.36,0,0,1-1.92,3.84,21.85,21.85,0,0,1-2.92,3.65,19.15,19.15,0,0,1-3.67,2.92,43.33,43.33,0,0,0-2.23,7.09,28.73,28.73,0,0,0-.74,5.78c.48-1.19,1.06-2.52,1.73-4a35,35,0,0,1,2.32-4.14,14.63,14.63,0,0,1,2.84-3.23,5,5,0,0,1,3.19-1.27,4,4,0,0,1,4,4,4,4,0,0,1-.75,2.45,5.57,5.57,0,0,1-1.8,1.62,8.7,8.7,0,0,1-2.11.9,6.58,6.58,0,0,1-1.73.29,11.2,11.2,0,0,0,.27,1.31,12.67,12.67,0,0,0,.65,2,6.61,6.61,0,0,0,1.06,1.78,1.94,1.94,0,0,0,1.53.74,3.77,3.77,0,0,0,2.47-1,12,12,0,0,0,2.23-2.63,26.78,26.78,0,0,0,2-3.71l.45.45a15.15,15.15,0,0,1-1.94,4.16,13.43,13.43,0,0,1-2.9,3.19A5.16,5.16,0,0,1,319.77,453.22Zm-6.57-18.85a20.24,20.24,0,0,0,3.62-3.78,21.69,21.69,0,0,0,2.41-4.08,8.3,8.3,0,0,0,.85-3.08,2,2,0,0,0,0-.31c0-.06-.05-.09-.11-.09-.3,0-.82.52-1.56,1.57a45,45,0,0,0-2.49,4.16Q314.51,431.36,313.2,434.37Z" transform="translate(-172.26 -377.58)" style="fill:#3e3a39"/><path d="M328.63,453.63a3.27,3.27,0,0,1-2.36-.93,3.69,3.69,0,0,1-1-2.81,9.77,9.77,0,0,1,.72-3.49,17.94,17.94,0,0,1,2-3.69,21.13,21.13,0,0,1,2.86-3.33,14.85,14.85,0,0,1,3.37-2.41,7.94,7.94,0,0,1,3.54-.9,4.54,4.54,0,0,1,2.92.93,3,3,0,0,1,1.17,2.45,1.7,1.7,0,0,1-.61,1.53,2.8,2.8,0,0,1-1.59.41,8,8,0,0,0,.15-.79,4.62,4.62,0,0,0,.07-.79,3.15,3.15,0,0,0-.49-1.78,1.91,1.91,0,0,0-1.71-.74,4.57,4.57,0,0,0-2.57.88,11.84,11.84,0,0,0-2.52,2.34,20.11,20.11,0,0,0-2.16,3.17,19.56,19.56,0,0,0-1.48,3.37,9.87,9.87,0,0,0-.54,3c0,1.17.4,1.75,1.21,1.75a3.7,3.7,0,0,0,2.25-1,18.6,18.6,0,0,0,2.5-2.47c.85-1,1.67-2,2.45-3.13s1.47-2.07,2.07-3c.12-.18.2-.27.23-.27a5.1,5.1,0,0,1,.69.18,2.61,2.61,0,0,1,.75.36.69.69,0,0,1,.31.58,2.41,2.41,0,0,1-.4,1.11c-.27.46-.57,1-.9,1.6s-.63,1.2-.9,1.82a4.31,4.31,0,0,0-.41,1.73,2.74,2.74,0,0,0,.36,1.33,1.24,1.24,0,0,0,1.17.65c.81,0,1.88-.59,3.2-1.78a21.32,21.32,0,0,0,4-5.33l.45.45A16.05,16.05,0,0,1,345,449a12.38,12.38,0,0,1-3.17,2.87,6.34,6.34,0,0,1-3.31,1,2.93,2.93,0,0,1-2.45-1,3.37,3.37,0,0,1-.79-2.16,4.82,4.82,0,0,1,0-.61q0-.33.09-.69a21.84,21.84,0,0,1-3.54,3.91A5.12,5.12,0,0,1,328.63,453.63Z" transform="translate(-172.26 -377.58)" style="fill:#3e3a39"/><path d="M199.94,409.88a2.87,2.87,0,0,1-.66-.09,2.78,2.78,0,0,1-.74-.31,1.82,1.82,0,0,1-.6-.63,2.15,2.15,0,0,1-.23-1.05,9.17,9.17,0,0,1,.44-2.41c.3-1,.63-2.1,1-3.31.3-.94.59-1.91.86-2.91s.51-2,.69-3a16.35,16.35,0,0,0,.27-2.88c0-.65,0-1.24-.06-1.8a2.83,2.83,0,0,0-.39-1.34,1.21,1.21,0,0,0-1.1-.5,1.88,1.88,0,0,0-1.24.42,3.24,3.24,0,0,0-.83,1.11,5.46,5.46,0,0,0-.47,1.43,7.14,7.14,0,0,0-.14,1.4,3.55,3.55,0,0,0,.23,1.41,1.69,1.69,0,0,1-1.43-.56,2.11,2.11,0,0,1-.41-1.31,3.82,3.82,0,0,1,.37-1.62,5.65,5.65,0,0,1,1-1.49,5.36,5.36,0,0,1,1.52-1.11,4.21,4.21,0,0,1,1.82-.41,2.65,2.65,0,0,1,2.41,1.26,6.25,6.25,0,0,1,.79,3.37,16.7,16.7,0,0,1-.53,4c-.36,1.42-.75,2.79-1.19,4.12-.27.87-.54,1.7-.79,2.49s-.45,1.51-.61,2.17a7.44,7.44,0,0,0-.23,1.74,1.5,1.5,0,0,0,.15.75.66.66,0,0,0,.63.26,2.44,2.44,0,0,0,1.44-.61,8.75,8.75,0,0,0,1.61-1.65,22.05,22.05,0,0,0,1.59-2.3,28.09,28.09,0,0,0,1.4-2.59,25.59,25.59,0,0,0,1.07-2.52,10.18,10.18,0,0,0,.53-2,1.47,1.47,0,0,1,1.21.44,1.38,1.38,0,0,1,.35.83,3.9,3.9,0,0,1-.34,1.28c-.22.57-.49,1.21-.8,1.92s-.53,1.29-.8,2a21.79,21.79,0,0,0-.67,2.13,8.32,8.32,0,0,0-.28,2,2,2,0,0,0,.14.8c.08.19.28.29.59.29a2.88,2.88,0,0,0,1.69-.74,11.66,11.66,0,0,0,2-2,26,26,0,0,0,2-2.89A30.74,30.74,0,0,0,215,400a25.75,25.75,0,0,0,1.25-3.45,11.76,11.76,0,0,0,.47-3.12,3.65,3.65,0,0,0-.4-1.91,1.78,1.78,0,0,0-1-.79,2.89,2.89,0,0,1,.77-.91,1.34,1.34,0,0,1,.74-.29,1.42,1.42,0,0,1,1.07.71,3.63,3.63,0,0,1,.52,2.18,11.9,11.9,0,0,1-.53,3.25,27.66,27.66,0,0,1-1.45,3.78,32,32,0,0,1-2.08,3.81,28.66,28.66,0,0,1-2.44,3.33,14.36,14.36,0,0,1-2.52,2.37,4.12,4.12,0,0,1-2.32.88,2.69,2.69,0,0,1-1-.21,2.06,2.06,0,0,1-.87-.64,1.63,1.63,0,0,1-.35-1.1,4.3,4.3,0,0,1,.14-1c.1-.41.22-.85.38-1.34a17.17,17.17,0,0,1-2.72,3.08A4.16,4.16,0,0,1,199.94,409.88Z" transform="translate(-172.26 -377.58)" style="fill:#3e3a39"/><path d="M220.09,408.76a2.88,2.88,0,0,1-3.17-3,6,6,0,0,1,.59-2.47,10.15,10.15,0,0,1,1.56-2.45,9.09,9.09,0,0,1,2.14-1.86,4.47,4.47,0,0,1,2.32-.71,2,2,0,0,1,1.1.31,1.38,1.38,0,0,1,.51,1.27,3.28,3.28,0,0,1-.59,1.86,6.08,6.08,0,0,1-1.53,1.55,9,9,0,0,1-2.08,1.1,8.38,8.38,0,0,1-2.25.54c0,.17-.06.34-.08.49s0,.31,0,.44a3.46,3.46,0,0,0,.09.78,2.12,2.12,0,0,0,.32.72,1.63,1.63,0,0,0,.64.51,2.45,2.45,0,0,0,1,.18,4.29,4.29,0,0,0,2.21-.64,8.33,8.33,0,0,0,2-1.68,10.92,10.92,0,0,0,1.58-2.28l.32.23a9.9,9.9,0,0,1-1.78,2.7,8.26,8.26,0,0,1-2.34,1.78A5.62,5.62,0,0,1,220.09,408.76Zm-1.27-4.37a10.08,10.08,0,0,0,1.59-.69,11.78,11.78,0,0,0,1.7-1.07,6.28,6.28,0,0,0,1.35-1.38,2.66,2.66,0,0,0,.53-1.59.78.78,0,0,0-.1-.44.52.52,0,0,0-.44-.16,2.38,2.38,0,0,0-1.33.48,6.93,6.93,0,0,0-1.35,1.27,11.7,11.7,0,0,0-1.17,1.71A8.46,8.46,0,0,0,218.82,404.39Z" transform="translate(-172.26 -377.58)" style="fill:#3e3a39"/><path d="M228.36,409.52a2.35,2.35,0,0,1-2-.89,3.9,3.9,0,0,1-.67-2.39,12.7,12.7,0,0,1,.45-3.07,31.86,31.86,0,0,1,1.17-3.7c.48-1.29,1-2.56,1.62-3.79s1.2-2.34,1.81-3.34a17.66,17.66,0,0,1,1.71-2.39c.54-.6,1-.9,1.33-.9s.51.19.64.55a3.21,3.21,0,0,1,.19,1.09,6.22,6.22,0,0,1-.31,1.77,15.67,15.67,0,0,1-.88,2.22,21.75,21.75,0,0,1-1.33,2.33,16.34,16.34,0,0,1-1.62,2.09,8.5,8.5,0,0,1-1.78,1.5,7.74,7.74,0,0,0-.46,1.18,20.51,20.51,0,0,0-.55,2.05,11.2,11.2,0,0,0-.24,2.25,4.1,4.1,0,0,0,.32,1.76,1.14,1.14,0,0,0,1.11.69,2.66,2.66,0,0,0,1.56-.61,4.6,4.6,0,0,0,1.3-1.58,3.16,3.16,0,0,1-1.43-1.44,4.3,4.3,0,0,1-.47-1.91,3,3,0,0,1,.65-2,2,2,0,0,1,1.53-.76,1.42,1.42,0,0,1,1.2.61,3.09,3.09,0,0,1,.44,1.79,7.27,7.27,0,0,1-.23,1.76,8.86,8.86,0,0,1-.68,1.77l.33,0a2,2,0,0,0,.35,0,2.55,2.55,0,0,0,1.56-.46,4.28,4.28,0,0,0,1.05-1.11,12.07,12.07,0,0,0,.71-1.26l.32.33a4.73,4.73,0,0,1-1.73,2.38,3.93,3.93,0,0,1-2,.59l-.42,0-.41-.05a7.62,7.62,0,0,1-1.73,2A3.71,3.71,0,0,1,228.36,409.52Zm.6-9.94a8.17,8.17,0,0,0,1.42-1.45,16.91,16.91,0,0,0,1.28-1.89c.4-.66.76-1.32,1.07-2a14.31,14.31,0,0,0,.73-1.74,4.25,4.25,0,0,0,.26-1.17.29.29,0,0,0,0-.17s0,0-.08,0-.4.25-.79.74a16.63,16.63,0,0,0-1.3,2c-.48.82-1,1.73-1.42,2.73A23.16,23.16,0,0,0,229,399.58Zm3,6.24a6.25,6.25,0,0,0,.44-1.26,6.1,6.1,0,0,0,.15-1.36,3.48,3.48,0,0,0-.24-1.43c-.17-.35-.37-.52-.61-.52s-.49.18-.69.53a2.71,2.71,0,0,0-.3,1.34,4.09,4.09,0,0,0,.29,1.48A2.38,2.38,0,0,0,232,405.82Z" transform="translate(-172.26 -377.58)" style="fill:#3e3a39"/><path d="M247.19,409.88a5.21,5.21,0,0,1-1.54-.22,2.41,2.41,0,0,1-1.25-1c.18-.83.39-1.73.64-2.69s.53-1.95.82-3,.59-2,.9-3,.59-1.89.87-2.74.53-1.59.75-2.23l.52-1.46c0-.14.14-.34.26-.61a7.34,7.34,0,0,1,.44-.82,3.26,3.26,0,0,1,.6-.71,1.09,1.09,0,0,1,.73-.3,1.21,1.21,0,0,1,.73.26c-.54,1.24-1.08,2.62-1.63,4.13s-1.07,3.06-1.57,4.67-1,3.16-1.38,4.69-.76,2.91-1,4.16l.61.08a4.35,4.35,0,0,0,.51,0,7.14,7.14,0,0,0,3.21-.76,11.19,11.19,0,0,0,2.89-2.11,15.12,15.12,0,0,0,2.35-3.07,15.61,15.61,0,0,0,1.57-3.66,13.6,13.6,0,0,0,.56-3.86,7.88,7.88,0,0,0-.67-3.48,4.43,4.43,0,0,0-1.88-2,5.74,5.74,0,0,0-2.78-.65,6.73,6.73,0,0,0-3,.68,5.43,5.43,0,0,0-2.13,1.82,4.45,4.45,0,0,0-.78,2.57,3,3,0,0,0,0,.55,2.26,2.26,0,0,0,.09.41,1.47,1.47,0,0,1-1.21-.43,1.58,1.58,0,0,1-.35-1,3.21,3.21,0,0,1,.64-1.84,6.82,6.82,0,0,1,1.76-1.7,10.29,10.29,0,0,1,5.76-1.74,6.61,6.61,0,0,1,3.76,1,5.5,5.5,0,0,1,2.07,2.56,9.63,9.63,0,0,1,.65,3.61,13.33,13.33,0,0,1-.71,4.33,14.47,14.47,0,0,1-1.93,3.8,15.87,15.87,0,0,1-2.82,3,12.66,12.66,0,0,1-3.4,2A9.69,9.69,0,0,1,247.19,409.88Z" transform="translate(-172.26 -377.58)" style="fill:#3e3a39"/><path d="M262.55,408.76a2.87,2.87,0,0,1-3.17-3,6,6,0,0,1,.59-2.47,10.15,10.15,0,0,1,1.56-2.45,9.09,9.09,0,0,1,2.14-1.86,4.46,4.46,0,0,1,2.31-.71,2.07,2.07,0,0,1,1.11.31,1.38,1.38,0,0,1,.51,1.27,3.28,3.28,0,0,1-.59,1.86,6.08,6.08,0,0,1-1.53,1.55,9.19,9.19,0,0,1-2.08,1.1,8.56,8.56,0,0,1-2.25.54c0,.17-.06.34-.08.49a3.61,3.61,0,0,0,0,.44,3,3,0,0,0,.1.78,1.94,1.94,0,0,0,.32.72,1.63,1.63,0,0,0,.64.51,2.45,2.45,0,0,0,1,.18,4.32,4.32,0,0,0,2.21-.64,8.33,8.33,0,0,0,2-1.68,10.92,10.92,0,0,0,1.58-2.28l.31.23a9.46,9.46,0,0,1-1.78,2.7,8.26,8.26,0,0,1-2.34,1.78A5.55,5.55,0,0,1,262.55,408.76Zm-1.27-4.37a10,10,0,0,0,1.58-.69,11.87,11.87,0,0,0,1.71-1.07,6.76,6.76,0,0,0,1.35-1.38,2.73,2.73,0,0,0,.53-1.59.78.78,0,0,0-.1-.44.52.52,0,0,0-.44-.16,2.38,2.38,0,0,0-1.33.48,6.93,6.93,0,0,0-1.35,1.27,11,11,0,0,0-1.17,1.71A8.46,8.46,0,0,0,261.28,404.39Z" transform="translate(-172.26 -377.58)" style="fill:#3e3a39"/><path d="M271.13,408.94a3.11,3.11,0,0,1-1.93-.53,2.88,2.88,0,0,1-1-1.31,4.32,4.32,0,0,1-.3-1.56,2.75,2.75,0,0,1,.21-1.2,1.61,1.61,0,0,1,.51-.62,2.7,2.7,0,0,1,.57-.31,1.16,1.16,0,0,0,.38-.21,17.64,17.64,0,0,0,1.43-1.8,14.22,14.22,0,0,0,1.14-2v-.31a2.18,2.18,0,0,1,.33-1.37.88.88,0,0,1,.69-.4.43.43,0,0,1,.31.1.33.33,0,0,1,.1.24,2,2,0,0,1-.08.41,3,3,0,0,0-.08.73,6,6,0,0,0,.34,1.86c.23.67.45,1.37.68,2.1a8.07,8.07,0,0,1,.34,2.31c0,.22,0,.44,0,.66a5.07,5.07,0,0,1-.12.61,3.65,3.65,0,0,0,1.72-.82,7,7,0,0,0,1.56-2.12l.23.26a4.37,4.37,0,0,1-1.48,2.17,4.83,4.83,0,0,1-2.16.93,3,3,0,0,1-1.31,1.63A3.92,3.92,0,0,1,271.13,408.94Zm.05-.91a2.61,2.61,0,0,0,.84-.2,1.62,1.62,0,0,0,.8-1.07,4.45,4.45,0,0,1-1.93-.86,5.14,5.14,0,0,1-1.27-1.3c-.38,0-.57.32-.57.91a3,3,0,0,0,.56,1.73A1.81,1.81,0,0,0,271.18,408Zm1.77-1.69a4.37,4.37,0,0,0,.08-.54,6.66,6.66,0,0,0,0-.68,10.1,10.1,0,0,0-.3-2.43c-.2-.8-.37-1.56-.51-2.27-.4.65-.82,1.28-1.26,1.88a13,13,0,0,1-1.26,1.5,4.92,4.92,0,0,0,1.21,1.56A4.36,4.36,0,0,0,273,406.34Z" transform="translate(-172.26 -377.58)" style="fill:#3e3a39"/><path d="M279.24,408.29a1.79,1.79,0,0,1-1.5-.63,2.46,2.46,0,0,1-.5-1.55,7.1,7.1,0,0,1,.22-1.51c.15-.6.35-1.24.59-1.91a13.39,13.39,0,0,1,.84-1.88,6.84,6.84,0,0,1,1-1.45,1.55,1.55,0,0,1,1.07-.56.59.59,0,0,1,.4.15.54.54,0,0,1,.17.43,2.64,2.64,0,0,1-.4,1c-.27.47-.59,1-1,1.61a13.59,13.59,0,0,0-.95,1.91,5.14,5.14,0,0,0-.41,1.91,1.79,1.79,0,0,0,.32,1.25,1.27,1.27,0,0,0,1,.31,2.91,2.91,0,0,0,1.88-.88,10.47,10.47,0,0,0,2.12-3.09l.24.26a7.61,7.61,0,0,1-2.17,3.43A4.58,4.58,0,0,1,279.24,408.29Zm3.12-11.9a1.36,1.36,0,0,1-.74-.21.73.73,0,0,1-.32-.65,1.13,1.13,0,0,1,.64-.95,2.31,2.31,0,0,1,1.26-.4,1,1,0,0,1,.62.18.73.73,0,0,1,.23.62,1.25,1.25,0,0,1-.53.95A1.76,1.76,0,0,1,282.36,396.39Z" transform="translate(-172.26 -377.58)" style="fill:#3e3a39"/><path d="M284.63,414.9a1.69,1.69,0,0,1-1-.35,1.34,1.34,0,0,1-.47-1.16,2.4,2.4,0,0,1,.48-1.44,6,6,0,0,1,1.23-1.23,13.49,13.49,0,0,1,1.65-1l1.71-.89c.24-.6.47-1.26.69-2s.43-1.48.63-2.33a12.66,12.66,0,0,1-2.06,2.38,3.28,3.28,0,0,1-2.17,1,1.68,1.68,0,0,1-1.45-.7,3.08,3.08,0,0,1-.5-1.82,5.32,5.32,0,0,1,.66-2.57,7.67,7.67,0,0,1,1.73-2.16,8.59,8.59,0,0,1,2.26-1.47,5.44,5.44,0,0,1,2.24-.53,1.87,1.87,0,0,1,1.08.24.74.74,0,0,1,.32.59.47.47,0,0,1-.13.36l-.18.16a.74.74,0,0,0-.39-.3,2,2,0,0,0-.65-.09,3.6,3.6,0,0,0-2,.6,6.25,6.25,0,0,0-1.68,1.53,8.66,8.66,0,0,0-1.16,1.94,4.61,4.61,0,0,0-.43,1.83,1.52,1.52,0,0,0,.25,1,.76.76,0,0,0,.66.32,2.91,2.91,0,0,0,1.81-1,15,15,0,0,0,2-2.43l.14-.65c.05-.19.1-.43.17-.73a2.72,2.72,0,0,1,.38-.84,1,1,0,0,1,.95-.48h.26a1.14,1.14,0,0,1,.28.07,8.8,8.8,0,0,1-.24,1.52c-.17.73-.4,1.59-.7,2.57s-.66,2-1.06,3a9.41,9.41,0,0,0,3.17-2.56,7.19,7.19,0,0,0,1.07-1.83l.34.26a6.07,6.07,0,0,1-1.25,2.13,11.36,11.36,0,0,1-1.83,1.66,12.42,12.42,0,0,1-1.78,1.09,30.67,30.67,0,0,1-1.54,3.19,10,10,0,0,1-1.68,2.3A2.63,2.63,0,0,1,284.63,414.9Zm-.08-.83c.34,0,.82-.35,1.42-1a13.86,13.86,0,0,0,1.93-3.52,21.72,21.72,0,0,0-1.93,1.07,7,7,0,0,0-1.47,1.19,2,2,0,0,0-.58,1.38,1.05,1.05,0,0,0,.19.66A.54.54,0,0,0,284.55,414.07Z" transform="translate(-172.26 -377.58)" style="fill:#3e3a39"/><path d="M302.15,408.14a1.81,1.81,0,0,1-1.36-.47,1.62,1.62,0,0,1-.46-1.2,3.43,3.43,0,0,1,.2-1.14c.13-.4.25-.81.37-1.24a4.47,4.47,0,0,0,.18-1.23,1.36,1.36,0,0,0-.29-1,1.08,1.08,0,0,0-.75-.27,2.64,2.64,0,0,0-1.63.66,9.07,9.07,0,0,0-1.62,1.69,25.58,25.58,0,0,0-1.45,2.12l-1.2,1.95a2.3,2.3,0,0,1-.79-.14,1.32,1.32,0,0,1-.59-.43,3.48,3.48,0,0,1,.28-.81c.18-.45.39-1,.63-1.66s.46-1.34.65-2a6.92,6.92,0,0,0,.29-1.9,1.72,1.72,0,0,1,.49-.36,1.4,1.4,0,0,1,.71-.19.61.61,0,0,1,.7.68,6.72,6.72,0,0,1-.24,1.39c-.15.65-.35,1.33-.59,2a22.67,22.67,0,0,1,1.57-2.12,9.81,9.81,0,0,1,1.86-1.75,3.39,3.39,0,0,1,2-.7,1.6,1.6,0,0,1,1.47.72,3,3,0,0,1,.46,1.62,4.28,4.28,0,0,1-.26,1.49c-.18.46-.35.9-.53,1.33a3.08,3.08,0,0,0-.28,1.28,1.11,1.11,0,0,0,.22.77.76.76,0,0,0,.56.22,1.89,1.89,0,0,0,1.3-.61,7.84,7.84,0,0,0,1.26-1.55,16.34,16.34,0,0,0,1.08-1.89l.29.33a13.81,13.81,0,0,1-1.22,2.27,6.37,6.37,0,0,1-1.49,1.56A3,3,0,0,1,302.15,408.14Z" transform="translate(-172.26 -377.58)" style="fill:#3e3a39"/><path d="M308.68,408.76a2.88,2.88,0,0,1-3.18-3,6,6,0,0,1,.59-2.47,10.15,10.15,0,0,1,1.56-2.45,9.09,9.09,0,0,1,2.14-1.86,4.5,4.5,0,0,1,2.32-.71,2,2,0,0,1,1.1.31,1.38,1.38,0,0,1,.51,1.27,3.28,3.28,0,0,1-.59,1.86,6.08,6.08,0,0,1-1.53,1.55,9,9,0,0,1-2.08,1.1,8.38,8.38,0,0,1-2.25.54c0,.17-.06.34-.08.49s0,.31,0,.44a3.46,3.46,0,0,0,.09.78,2.12,2.12,0,0,0,.32.72,1.63,1.63,0,0,0,.64.51,2.45,2.45,0,0,0,1,.18,4.29,4.29,0,0,0,2.21-.64,8.14,8.14,0,0,0,2-1.68,11.35,11.35,0,0,0,1.59-2.28l.31.23a9.67,9.67,0,0,1-1.78,2.7,8.26,8.26,0,0,1-2.34,1.78A5.58,5.58,0,0,1,308.68,408.76Zm-1.28-4.37a10.08,10.08,0,0,0,1.59-.69,11.78,11.78,0,0,0,1.7-1.07,6.28,6.28,0,0,0,1.35-1.38,2.68,2.68,0,0,0,.54-1.59.77.77,0,0,0-.11-.44.52.52,0,0,0-.44-.16,2.38,2.38,0,0,0-1.33.48,7.22,7.22,0,0,0-1.35,1.27,11.7,11.7,0,0,0-1.17,1.71A8.46,8.46,0,0,0,307.4,404.39Z" transform="translate(-172.26 -377.58)" style="fill:#3e3a39"/><path d="M319,408.29a2,2,0,0,1-1.39-.46,1.59,1.59,0,0,1-.5-1.23,4.19,4.19,0,0,1,.36-1.63c.24-.58.48-1.14.71-1.71a3.92,3.92,0,0,0,.36-1.52,1.52,1.52,0,0,0-.49-1.23,10.84,10.84,0,0,0-1-.74c-.4,1-.82,2-1.25,2.91s-.79,1.61-1.06,2.08l-.24-.44c.24-.45.56-1.11.95-2s.78-1.85,1.16-3a.85.85,0,0,1-.26-.63,1.85,1.85,0,0,1,.44-1.27c.29-.33.51-.5.65-.5a.28.28,0,0,1,.32.25,2.21,2.21,0,0,1,0,.38,1.69,1.69,0,0,1-.14.51,2.46,2.46,0,0,0-.14.45.83.83,0,0,0,.4.66l.92.68a4.22,4.22,0,0,1,.93.91,2.18,2.18,0,0,1,.4,1.36,4.2,4.2,0,0,1-.33,1.59c-.21.54-.43,1.05-.65,1.53a3.33,3.33,0,0,0-.32,1.28.71.71,0,0,0,.23.62.94.94,0,0,0,.55.16A2.56,2.56,0,0,0,321,407a6.78,6.78,0,0,0,1.28-1,10.11,10.11,0,0,0,1.12-1.26,5.69,5.69,0,0,0,.73-1.24l.34.26a9.83,9.83,0,0,1-1.35,2.15,8.21,8.21,0,0,1-1.92,1.73A4,4,0,0,1,319,408.29Z" transform="translate(-172.26 -377.58)" style="fill:#3e3a39"/></svg>